<svg class="main-svg" xmlns="http://www.w3.org/2000/svg" xmlns:xlink="http://www.w3.org/1999/xlink" width="1200" height="600" style="" viewBox="0 0 1200 600"><rect x="0" y="0" width="1200" height="600" style="fill: rgb(255, 255, 255); fill-opacity: 1;"/><defs id="defs-060ed5"><g class="clips"><clipPath id="clip060ed5xyplot" class="plotclip"><rect width="1141" height="519"/></clipPath><clipPath class="axesclip" id="clip060ed5x"><rect x="48" y="0" width="1141" height="600"/></clipPath><clipPath class="axesclip" id="clip060ed5y"><rect x="0" y="0" width="1200" height="519"/></clipPath><clipPath class="axesclip" id="clip060ed5xy"><rect x="48" y="0" width="1141" height="519"/></clipPath></g><g class="gradients"/><g class="patterns"/></defs><g class="bglayer"/><g class="layer-below"><g class="imagelayer"/><g class="shapelayer"/></g><g class="cartesianlayer"><g class="subplot xy"><g class="layer-subplot"><g class="shapelayer"/><g class="imagelayer"/></g><g class="gridlayer"><g class="x"><path class="xgrid crisp" transform="translate(189.38,0)" d="M0,0v519" style="stroke: rgb(232, 236, 240); stroke-opacity: 1; stroke-width: 1px;"/><path class="xgrid crisp" transform="translate(332.18,0)" d="M0,0v519" style="stroke: rgb(232, 236, 240); stroke-opacity: 1; stroke-width: 1px;"/><path class="xgrid crisp" transform="translate(474.98,0)" d="M0,0v519" style="stroke: rgb(232, 236, 240); stroke-opacity: 1; stroke-width: 1px;"/><path class="xgrid crisp" transform="translate(617.79,0)" d="M0,0v519" style="stroke: rgb(232, 236, 240); stroke-opacity: 1; stroke-width: 1px;"/><path class="xgrid crisp" transform="translate(760.59,0)" d="M0,0v519" style="stroke: rgb(232, 236, 240); stroke-opacity: 1; stroke-width: 1px;"/><path class="xgrid crisp" transform="translate(903.39,0)" d="M0,0v519" style="stroke: rgb(232, 236, 240); stroke-opacity: 1; stroke-width: 1px;"/><path class="xgrid crisp" transform="translate(1046.2,0)" d="M0,0v519" style="stroke: rgb(232, 236, 240); stroke-opacity: 1; stroke-width: 1px;"/></g><g class="y"><path class="ygrid crisp" transform="translate(0,431.01)" d="M48,0h1141" style="stroke: rgb(232, 236, 240); stroke-opacity: 1; stroke-width: 1px;"/><path class="ygrid crisp" transform="translate(0,367.88)" d="M48,0h1141" style="stroke: rgb(232, 236, 240); stroke-opacity: 1; stroke-width: 1px;"/><path class="ygrid crisp" transform="translate(0,304.74)" d="M48,0h1141" style="stroke: rgb(232, 236, 240); stroke-opacity: 1; stroke-width: 1px;"/><path class="ygrid crisp" transform="translate(0,241.61)" d="M48,0h1141" style="stroke: rgb(232, 236, 240); stroke-opacity: 1; stroke-width: 1px;"/><path class="ygrid crisp" transform="translate(0,178.47)" d="M48,0h1141" style="stroke: rgb(232, 236, 240); stroke-opacity: 1; stroke-width: 1px;"/><path class="ygrid crisp" transform="translate(0,115.34)" d="M48,0h1141" style="stroke: rgb(232, 236, 240); stroke-opacity: 1; stroke-width: 1px;"/><path class="ygrid crisp" transform="translate(0,52.2)" d="M48,0h1141" style="stroke: rgb(232, 236, 240); stroke-opacity: 1; stroke-width: 1px;"/></g></g><g class="zerolinelayer"><path class="yzl zl crisp" transform="translate(0,494.15)" d="M48,0h1141" style="stroke: rgb(68, 68, 68); stroke-opacity: 1; stroke-width: 1px;"/></g><path class="xlines-below"/><path class="ylines-below"/><g class="overlines-below"/><g class="xaxislayer-below"/><g class="yaxislayer-below"/><g class="overaxes-below"/><g class="plot" transform="translate(48,0)" clip-path="url(#clip060ed5xyplot)"><g class="scatterlayer mlayer"><g class="trace scatter trace160912" style="stroke-miterlimit: 2; opacity: 1;"><g class="fills"/><g class="errorbars"/><g class="lines"><path class="js-line" d="M0,454.29L2.86,452.06L7.14,468.74L10,426.25L14.28,486.06L17.14,460.31L21.42,379.5L24.28,447.12L28.56,489.45L31.42,403.74L35.7,484.71L38.56,470.81L42.84,479.02L45.7,400.57L49.98,390.53L52.84,394.59L57.12,324.64L59.98,337.13L64.26,433.59L67.12,414.58L71.4,477.69L74.26,414.33L78.54,385.98L81.4,487.9L85.68,409.59L88.54,486.2L92.82,479.44L95.68,363.07L99.96,390.89L102.82,443.41L107.1,477.09L109.96,464L114.24,487.06L117.1,478.42L121.38,462.14L124.24,297L128.52,484.24L131.38,433.48L135.66,488.26L138.52,417L142.8,450.25L145.66,468.4L149.94,448.85L152.8,462.85L157.08,287.64L159.94,448.75L164.22,467.53L167.08,396.32L171.36,492.75L174.22,474.04L178.5,423.87L181.36,397.54L185.64,469.04L188.5,478.13L192.78,456.83L195.64,487.29L199.92,484.75L202.78,487.26L207.07,476.47L209.92,415.59L214.21,483.85L217.06,460.38L221.35,479.37L224.2,480.41L228.49,447.57L231.34,451.53L235.63,358.33L238.48,472.94L242.77,458.5L245.62,365.59L249.91,491.02L252.76,492.67L257.05,463.6L259.9,485.51L264.19,438.46L267.04,483.9L271.33,490.29L274.18,483.51L278.47,434.43L281.32,365.95L285.61,363.15L288.46,483.25L292.75,486.94L295.6,478.87L299.89,400.13L302.74,354.67L307.03,462.38L309.88,344.92L314.17,483.97L317.02,467.56L321.31,459.13L324.16,487.89L328.45,477.63L331.3,458L335.59,459.81L338.44,342.37L342.73,485.51L345.58,481.49L349.87,419.98L352.72,466.8L357.01,489.3L359.86,460.17L364.15,452.8L367.01,458.9L371.29,463.77L374.15,486.04L378.43,432.06L381.29,372.73L385.57,477.12L388.43,360.23L392.71,355.51L395.57,476.86L399.85,464.94L402.71,492.99L406.99,473.05L409.85,465.9L414.13,416.68L416.99,470.39L421.27,290.65L424.13,426.29L428.41,399.07L431.27,488.27L435.55,443.99L438.41,449.5L442.69,421.49L445.55,378.33L449.83,488.08L452.69,457.54L456.97,428.63L464.11,492.67L466.97,469.22L471.25,455.29L474.11,432.33L478.39,453.07L481.25,83.19L485.53,363.89L488.39,468.91L492.67,453.38L495.53,475.01L499.81,447.63L502.67,484.51L506.95,482.06L509.81,456.4L514.09,447.61L516.95,357.62L521.23,424.62L524.09,383.52L528.37,430.38L531.23,485.05L535.51,383.65L538.37,485.17L542.65,399.56L545.51,408.03L549.79,444.29L552.65,482.92L556.93,466.41L559.79,471.99L564.07,457.95L566.93,487.08L571.21,288.62L574.07,481.5L578.35,397.9L581.21,402.1L585.49,482.66L588.35,468.7L592.63,469.74L595.49,461.67L599.77,292.64L602.63,489.87L606.91,486.65L609.77,458.73L614.06,391.65L616.91,465.95L621.2,478.76L624.05,473.32L628.34,468.35L631.19,484.98L635.48,457.99L638.33,417.03L642.62,437.51L645.47,472.42L649.76,479.84L652.61,488.09L656.9,373.82L659.75,461.82L664.04,492.51L666.89,452.84L671.18,483.36L674.03,486.24L678.32,299L681.17,442.12L685.46,414.6L688.31,488.97L692.6,485.49L695.45,331.85L699.74,452.7L702.59,419.76L706.88,491.46L709.73,314.64L714.02,473.3L716.87,445.13L721.16,348.95L724.01,471.87L728.3,489.66L731.15,460.19L735.44,482.6L738.29,449.91L742.58,492.62L745.43,484.51L749.72,493.05L752.57,484.72L756.86,485.74L759.71,475.06L764,457.76L766.85,338L771.14,471.88L773.99,472.73L778.28,486.84L781.14,486.18L785.42,478.3L788.28,486.9L792.56,463.26L795.42,425.13L799.7,492.34L802.56,422.5L806.84,25.95L809.7,491.44L813.98,435.32L816.84,438.36L821.12,488.13L823.98,406.98L828.26,388.61L831.12,438.78L835.4,399.33L838.26,483.52L842.54,434.94L845.4,460.38L849.68,481.35L852.54,459.35L856.82,469.27L859.68,485.44L863.96,347.56L866.82,447.89L871.1,484.9L873.96,398.92L878.24,492.74L881.1,382.37L885.38,489.69L888.24,464.22L892.52,473.05L895.38,487.61L899.66,484.8L902.52,484.78L906.8,434.56L909.66,479.33L913.94,487.38L916.8,418.05L921.08,483.61L923.94,469.13L928.22,389.03L931.08,487.17L935.36,94.98L938.22,492.29L945.36,419.87L949.64,410.26L952.5,382.02L956.78,489.57L959.64,447.21L963.92,481.86L966.78,392.23L971.06,484.24L973.92,478.15L978.2,438.53L981.06,455.8L985.34,437.06L988.2,487.32L992.48,385.94L995.34,483.22L999.62,435.06L1002.48,420.37L1006.76,489.78L1009.62,393.81L1013.9,471.49L1016.76,437.11L1021.05,482.62L1023.9,455.91L1028.19,490.16L1031.04,488.45L1035.33,477.77L1038.18,414.54L1042.47,486.47L1045.32,489.13L1049.61,258.91L1052.46,366.08L1056.75,414.97L1059.6,303.18L1063.89,466.57L1066.74,447.08L1071.03,465.56L1073.88,478.53L1078.17,479.55L1081.02,441.92L1085.31,432.36L1088.16,465.07L1092.45,484.48L1095.3,397.92L1099.59,426.01L1102.44,414.62L1106.73,473.16L1109.58,408.62L1113.87,490.21L1116.72,483.01L1121.01,491.89L1123.86,459.09L1128.15,466.51L1131,484.26L1135.29,400.37L1138.14,404.71L1141,90.82" style="vector-effect: non-scaling-stroke; fill: none; stroke: rgb(68, 84, 97); stroke-opacity: 1; stroke-width: 2px; opacity: 1;"/></g><g class="points"/><g class="text"/></g><g class="trace scatter trace27f94d" style="stroke-miterlimit: 2; opacity: 1;"><g class="fills"/><g class="errorbars"/><g class="lines"><path class="js-line" d="M0,454.29L2.86,452.06L7.14,468.74L10,426.25L14.28,486.06L17.14,460.31L21.42,379.5L24.28,447.12L28.56,489.45L31.42,403.74L35.7,484.71L38.56,470.81L42.84,479.02L45.7,400.57L49.98,390.53L52.84,394.59L57.12,324.64L59.98,337.13L64.26,433.59L67.12,414.58L71.4,477.69L74.26,414.33L78.54,385.98L81.4,487.9L85.68,409.59L88.54,486.2L92.82,479.44L95.68,363.07L99.96,390.89L102.82,443.41L107.1,477.09L109.96,464L114.24,487.06L117.1,478.42L121.38,462.14L124.24,297L128.52,484.24L131.38,433.48L135.66,488.26L138.52,417L142.8,450.25L145.66,468.4L149.94,448.85L152.8,462.85L157.08,287.64L159.94,448.75L164.22,467.53L167.08,396.32L171.36,492.75L174.22,474.04L178.5,423.87L181.36,397.54L185.64,469.04L188.5,478.13L192.78,456.83L195.64,487.29L199.92,484.75L202.78,487.26L207.07,476.47L209.92,415.59L214.21,483.85L217.06,460.38L221.35,479.37L224.2,480.41L228.49,447.57L231.34,451.53L235.63,358.33L238.48,472.94L242.77,458.5L245.62,365.59L249.91,491.02L252.76,492.67L257.05,463.6L259.9,485.51L264.19,438.46L267.04,483.9L271.33,490.29L274.18,483.51L278.47,434.43L281.32,365.95L285.61,363.15L288.46,483.25L292.75,486.94L295.6,478.87L299.89,400.13L302.74,354.67L307.03,462.38L309.88,344.92L314.17,483.97L317.02,467.56L321.31,459.13L324.16,487.89L328.45,477.63L331.3,458L335.59,459.81L338.44,342.37L342.73,485.51L345.58,481.49L349.87,419.98L352.72,466.8L357.01,489.3L359.86,460.17L364.15,452.8L367.01,458.9L371.29,463.77L374.15,486.04L378.43,432.06L381.29,372.73L385.57,477.12L388.43,360.23L392.71,355.51L395.57,476.86L399.85,464.94L402.71,492.99L406.99,473.05L409.85,465.9L414.13,416.68L416.99,470.39L421.27,290.65L424.13,426.29L428.41,399.07L431.27,488.27L435.55,443.99L438.41,449.5L442.69,421.49L445.55,378.33L449.83,488.08L452.69,457.54L456.97,428.63L464.11,492.67L466.97,469.22L471.25,455.29L474.11,432.33L478.39,453.07L481.25,83.19L485.53,363.89L488.39,468.91L492.67,453.38L495.53,475.01L499.81,447.63L502.67,484.51L506.95,482.06L509.81,456.4L514.09,447.61L516.95,357.62L521.23,424.62L524.09,383.52L528.37,430.38L531.23,485.05L535.51,383.65L538.37,485.17L542.65,399.56L545.51,408.03L549.79,444.29L552.65,482.92L556.93,466.41L559.79,471.99L564.07,457.95L566.93,487.08L571.21,288.62L574.07,481.5L578.35,397.9L581.21,402.1L585.49,482.66L588.35,468.7L592.63,469.74L595.49,461.67L599.77,292.64L602.63,489.87L606.91,486.65L609.77,458.73L614.06,391.65L616.91,465.95L621.2,478.76L624.05,473.32L628.34,468.35L631.19,484.98L635.48,457.99L638.33,417.03L642.62,437.51L645.47,472.42L649.76,479.84L652.61,488.09L656.9,373.82L659.75,461.82L664.04,492.51L666.89,452.84L671.18,483.36L674.03,486.24L678.32,299L681.17,442.12L685.46,414.6L688.31,488.97L692.6,485.49L695.45,331.85L699.74,452.7L702.59,419.76L706.88,491.46L709.73,314.64L714.02,473.3L716.87,445.13L721.16,348.95L724.01,471.87L728.3,489.66L731.15,460.19L735.44,482.6L738.29,449.91L742.58,492.62L745.43,484.51L749.72,493.05L752.57,484.72L756.86,485.74L759.71,475.06L764,457.76L766.85,338L771.14,471.88L773.99,472.73L778.28,486.84L781.14,486.18L785.42,478.3L788.28,486.9L792.56,463.26L795.42,425.13L799.7,492.34L802.56,422.5L806.84,25.95L809.7,491.44L813.98,435.32L816.84,438.36L821.12,488.13L823.98,406.98L828.26,388.61L831.12,438.78L835.4,399.33L838.26,483.52L842.54,434.94L845.4,460.38L849.68,481.35L852.54,459.35L856.82,469.27L859.68,485.44L863.96,347.56L866.82,447.89L871.1,484.9L873.96,398.92L878.24,492.74L881.1,382.37L885.38,489.69L888.24,464.22L892.52,473.05L895.38,487.61L899.66,484.8L902.52,484.78L906.8,434.56L909.66,479.33L913.94,487.38L916.8,418.05L921.08,483.61L923.94,469.13L928.22,389.03L931.08,487.17L935.36,94.98L938.22,492.29L945.36,419.87L949.64,410.26L952.5,382.02L956.78,489.57L959.64,447.21L963.92,481.86L966.78,392.23L971.06,484.24L973.92,478.15L978.2,438.53L981.06,455.8L985.34,437.06L988.2,487.32L992.48,385.94L995.34,483.22L999.62,435.06L1002.48,420.37L1006.76,489.78L1009.62,393.81L1013.9,471.49L1016.76,437.11L1021.05,482.62L1023.9,455.91L1028.19,490.16L1031.04,488.45L1035.33,477.77L1038.18,414.54L1042.47,486.47L1045.32,489.13L1049.61,258.91L1052.46,366.08L1056.75,414.97L1059.6,303.18L1063.89,466.57L1066.74,447.08L1071.03,465.56L1073.88,478.53L1078.17,479.55L1081.02,441.92L1085.31,432.36L1088.16,465.07L1092.45,484.48L1095.3,397.92L1099.59,426.01L1102.44,414.62L1106.73,473.16L1109.58,408.62L1113.87,490.21L1116.72,483.01L1121.01,491.89L1123.86,459.09L1128.15,466.51L1131,484.26L1135.29,400.37L1138.14,404.71L1141,90.82" style="vector-effect: non-scaling-stroke; fill: none; stroke: rgb(68, 84, 97); stroke-opacity: 0.14902; stroke-width: 2px; opacity: 1;"/></g><g class="points"/><g class="text"/></g></g></g><g class="overplot"/><path class="xlines-above crisp" d="M0,0" style="fill: none;"/><path class="ylines-above crisp" d="M0,0" style="fill: none;"/><g class="overlines-above"/><g class="xaxislayer-above"><g class="xtick"><text text-anchor="middle" x="0" y="531" transform="translate(189.38,0)" style="font-family: 'Open Sans', verdana, arial, sans-serif; font-size: 11px; fill: rgb(95, 114, 129); fill-opacity: 1; white-space: pre; opacity: 1;">100</text></g><g class="xtick"><text text-anchor="middle" x="0" y="531" style="font-family: 'Open Sans', verdana, arial, sans-serif; font-size: 11px; fill: rgb(95, 114, 129); fill-opacity: 1; white-space: pre; opacity: 1;" transform="translate(332.18,0)">200</text></g><g class="xtick"><text text-anchor="middle" x="0" y="531" style="font-family: 'Open Sans', verdana, arial, sans-serif; font-size: 11px; fill: rgb(95, 114, 129); fill-opacity: 1; white-space: pre; opacity: 1;" transform="translate(474.98,0)">300</text></g><g class="xtick"><text text-anchor="middle" x="0" y="531" style="font-family: 'Open Sans', verdana, arial, sans-serif; font-size: 11px; fill: rgb(95, 114, 129); fill-opacity: 1; white-space: pre; opacity: 1;" transform="translate(617.79,0)">400</text></g><g class="xtick"><text text-anchor="middle" x="0" y="531" style="font-family: 'Open Sans', verdana, arial, sans-serif; font-size: 11px; fill: rgb(95, 114, 129); fill-opacity: 1; white-space: pre; opacity: 1;" transform="translate(760.59,0)">500</text></g><g class="xtick"><text text-anchor="middle" x="0" y="531" style="font-family: 'Open Sans', verdana, arial, sans-serif; font-size: 11px; fill: rgb(95, 114, 129); fill-opacity: 1; white-space: pre; opacity: 1;" transform="translate(903.39,0)">600</text></g><g class="xtick"><text text-anchor="middle" x="0" y="531" style="font-family: 'Open Sans', verdana, arial, sans-serif; font-size: 11px; fill: rgb(95, 114, 129); fill-opacity: 1; white-space: pre; opacity: 1;" transform="translate(1046.2,0)">700</text></g><g class="xtick"><text text-anchor="middle" x="0" y="531" style="font-family: 'Open Sans', verdana, arial, sans-serif; font-size: 11px; fill: rgb(95, 114, 129); fill-opacity: 1; white-space: pre; opacity: 1;" transform="translate(1189,0)">800</text></g></g><g class="yaxislayer-above"><g class="ytick"><text text-anchor="end" x="47" y="3.8499999999999996" transform="translate(0,494.15)" style="font-family: 'Open Sans', verdana, arial, sans-serif; font-size: 11px; fill: rgb(95, 114, 129); fill-opacity: 1; white-space: pre; opacity: 1;">0</text></g><g class="ytick"><text text-anchor="end" x="47" y="3.8499999999999996" style="font-family: 'Open Sans', verdana, arial, sans-serif; font-size: 11px; fill: rgb(95, 114, 129); fill-opacity: 1; white-space: pre; opacity: 1;" transform="translate(0,431.01)">0.02</text></g><g class="ytick"><text text-anchor="end" x="47" y="3.8499999999999996" style="font-family: 'Open Sans', verdana, arial, sans-serif; font-size: 11px; fill: rgb(95, 114, 129); fill-opacity: 1; white-space: pre; opacity: 1;" transform="translate(0,367.88)">0.04</text></g><g class="ytick"><text text-anchor="end" x="47" y="3.8499999999999996" style="font-family: 'Open Sans', verdana, arial, sans-serif; font-size: 11px; fill: rgb(95, 114, 129); fill-opacity: 1; white-space: pre; opacity: 1;" transform="translate(0,304.74)">0.06</text></g><g class="ytick"><text text-anchor="end" x="47" y="3.8499999999999996" style="font-family: 'Open Sans', verdana, arial, sans-serif; font-size: 11px; fill: rgb(95, 114, 129); fill-opacity: 1; white-space: pre; opacity: 1;" transform="translate(0,241.61)">0.08</text></g><g class="ytick"><text text-anchor="end" x="47" y="3.8499999999999996" style="font-family: 'Open Sans', verdana, arial, sans-serif; font-size: 11px; fill: rgb(95, 114, 129); fill-opacity: 1; white-space: pre; opacity: 1;" transform="translate(0,178.47)">0.1</text></g><g class="ytick"><text text-anchor="end" x="47" y="3.8499999999999996" style="font-family: 'Open Sans', verdana, arial, sans-serif; font-size: 11px; fill: rgb(95, 114, 129); fill-opacity: 1; white-space: pre; opacity: 1;" transform="translate(0,115.34)">0.12</text></g><g class="ytick"><text text-anchor="end" x="47" y="3.8499999999999996" style="font-family: 'Open Sans', verdana, arial, sans-serif; font-size: 11px; fill: rgb(95, 114, 129); fill-opacity: 1; white-space: pre; opacity: 1;" transform="translate(0,52.2)">0.14</text></g></g><g class="overaxes-above"/></g></g><g class="polarlayer"/><g class="ternarylayer"/><g class="geolayer"/><g class="funnelarealayer"/><g class="pielayer"/><g class="iciclelayer"/><g class="treemaplayer"/><g class="sunburstlayer"/><g class="glimages"/><defs id="topdefs-060ed5"><g class="clips"/><clipPath id="legend060ed5"><rect width="337" height="29" x="0" y="0"/></clipPath></defs><g class="layer-above"><g class="imagelayer"/><g class="shapelayer"/></g><g class="infolayer"><g class="legend" pointer-events="all" transform="translate(48,570.9000000000001)"><rect class="bg" shape-rendering="crispEdges" style="stroke: rgb(68, 68, 68); stroke-opacity: 1; fill: rgb(255, 255, 255); fill-opacity: 1; stroke-width: 0px;" width="337" height="29" x="0" y="0"/><g class="scrollbox" transform="" clip-path="url(#legend060ed5)"><g class="groups"><g class="traces" transform="translate(0,14.5)" style="opacity: 1;"><text class="legendtext" text-anchor="start" x="40" y="4.680000000000001" style="font-family: 'Open Sans', verdana, arial, sans-serif; font-size: 12px; fill: rgb(17, 23, 28); fill-opacity: 1; white-space: pre;">enthused-worm-654</text><g class="layers" style="opacity: 1;"><g class="legendfill"/><g class="legendlines"><path class="js-line" d="M5,0h30" style="fill: none; stroke: rgb(68, 84, 97); stroke-opacity: 1; stroke-width: 2px;"/></g><g class="legendsymbols"><g class="legendpoints"/></g></g><rect class="legendtoggle" x="0" y="-9.5" width="165.9703140258789" height="19" style="fill: rgb(0, 0, 0); fill-opacity: 0;"/></g><g class="traces" transform="translate(168.4703140258789,14.5)" style="opacity: 1;"><text class="legendtext" text-anchor="start" x="40" y="4.680000000000001" style="font-family: 'Open Sans', verdana, arial, sans-serif; font-size: 12px; fill: rgb(17, 23, 28); fill-opacity: 1; white-space: pre;">enthused-worm-654</text><g class="layers" style="opacity: 1;"><g class="legendfill"/><g class="legendlines"><path class="js-line" d="M5,0h30" style="fill: none; stroke: rgb(68, 84, 97); stroke-opacity: 0.14902; stroke-width: 2px;"/></g><g class="legendsymbols"><g class="legendpoints"/></g></g><rect class="legendtoggle" x="0" y="-9.5" width="165.9703140258789" height="19" style="fill: rgb(0, 0, 0); fill-opacity: 0;"/></g></g></g><rect class="scrollbar" rx="20" ry="3" width="0" height="0" style="fill: rgb(128, 139, 164); fill-opacity: 1;" x="0" y="0"/></g><g class="g-gtitle"/><g class="g-xtitle"><text class="xtitle" x="618.5" y="571" text-anchor="middle" style="font-family: 'Open Sans', verdana, arial, sans-serif; font-size: 14px; fill: rgb(17, 23, 28); opacity: 1; font-weight: normal; white-space: pre;">Step</text></g><g class="g-ytitle"/></g></svg>