<?xml version="1.0" encoding="utf-8" standalone="no"?>
<!DOCTYPE svg PUBLIC "-//W3C//DTD SVG 1.1//EN"
  "http://www.w3.org/Graphics/SVG/1.1/DTD/svg11.dtd">
<svg xmlns:xlink="http://www.w3.org/1999/xlink" width="640.771562pt" height="316.042031pt" viewBox="0 0 640.771562 316.042031" xmlns="http://www.w3.org/2000/svg" version="1.1">
 <metadata>
  <rdf:RDF xmlns:dc="http://purl.org/dc/elements/1.1/" xmlns:cc="http://creativecommons.org/ns#" xmlns:rdf="http://www.w3.org/1999/02/22-rdf-syntax-ns#">
   <cc:Work>
    <dc:type rdf:resource="http://purl.org/dc/dcmitype/StillImage"/>
    <dc:date>2026-05-12T17:49:22.170063</dc:date>
    <dc:format>image/svg+xml</dc:format>
    <dc:creator>
     <cc:Agent>
      <dc:title>Matplotlib v3.10.8, https://matplotlib.org/</dc:title>
     </cc:Agent>
    </dc:creator>
   </cc:Work>
  </rdf:RDF>
 </metadata>
 <defs>
  <style type="text/css">*{stroke-linejoin: round; stroke-linecap: butt}</style>
 </defs>
 <g id="figure_1">
  <g id="patch_1">
   <path d="M 0 316.042031 
L 640.771562 316.042031 
L 640.771562 0 
L 0 0 
z
" style="fill: #ffffff"/>
  </g>
  <g id="axes_1">
   <g id="patch_2">
    <path d="M 51.111563 277.517969 
L 633.571563 277.517969 
L 633.571563 32.077969 
L 51.111563 32.077969 
z
" style="fill: #ffffff"/>
   </g>
   <g id="matplotlib.axis_1">
    <g id="xtick_1">
     <g id="line2d_1">
      <path d="M 76.924302 277.517969 
L 76.924302 32.077969 
" clip-path="url(#pdc6de95474)" style="fill: none; stroke-dasharray: 2.96,1.28; stroke-dashoffset: 0; stroke: #b0b0b0; stroke-opacity: 0.4; stroke-width: 0.8"/>
     </g>
     <g id="line2d_2">
      <defs>
       <path id="mb50c745325" d="M 0 0 
L 0 3.5 
" style="stroke: #000000; stroke-width: 0.8"/>
      </defs>
      <g>
       <use xlink:href="#mb50c745325" x="76.924302" y="277.517969" style="stroke: #000000; stroke-width: 0.8"/>
      </g>
     </g>
     <g id="text_1">
      <!-- 0 -->
      <g transform="translate(73.743052 292.116406) scale(0.1 -0.1)">
       <defs>
        <path id="DejaVuSans-30" d="M 2034 4250 
Q 1547 4250 1301 3770 
Q 1056 3291 1056 2328 
Q 1056 1369 1301 889 
Q 1547 409 2034 409 
Q 2525 409 2770 889 
Q 3016 1369 3016 2328 
Q 3016 3291 2770 3770 
Q 2525 4250 2034 4250 
z
M 2034 4750 
Q 2819 4750 3233 4129 
Q 3647 3509 3647 2328 
Q 3647 1150 3233 529 
Q 2819 -91 2034 -91 
Q 1250 -91 836 529 
Q 422 1150 422 2328 
Q 422 3509 836 4129 
Q 1250 4750 2034 4750 
z
" transform="scale(0.015625)"/>
       </defs>
       <use xlink:href="#DejaVuSans-30"/>
      </g>
     </g>
    </g>
    <g id="xtick_2">
     <g id="line2d_3">
      <path d="M 143.195778 277.517969 
L 143.195778 32.077969 
" clip-path="url(#pdc6de95474)" style="fill: none; stroke-dasharray: 2.96,1.28; stroke-dashoffset: 0; stroke: #b0b0b0; stroke-opacity: 0.4; stroke-width: 0.8"/>
     </g>
     <g id="line2d_4">
      <g>
       <use xlink:href="#mb50c745325" x="143.195778" y="277.517969" style="stroke: #000000; stroke-width: 0.8"/>
      </g>
     </g>
     <g id="text_2">
      <!-- 100 -->
      <g transform="translate(133.652028 292.116406) scale(0.1 -0.1)">
       <defs>
        <path id="DejaVuSans-31" d="M 794 531 
L 1825 531 
L 1825 4091 
L 703 3866 
L 703 4441 
L 1819 4666 
L 2450 4666 
L 2450 531 
L 3481 531 
L 3481 0 
L 794 0 
L 794 531 
z
" transform="scale(0.015625)"/>
       </defs>
       <use xlink:href="#DejaVuSans-31"/>
       <use xlink:href="#DejaVuSans-30" transform="translate(63.623047 0)"/>
       <use xlink:href="#DejaVuSans-30" transform="translate(127.246094 0)"/>
      </g>
     </g>
    </g>
    <g id="xtick_3">
     <g id="line2d_5">
      <path d="M 209.467254 277.517969 
L 209.467254 32.077969 
" clip-path="url(#pdc6de95474)" style="fill: none; stroke-dasharray: 2.96,1.28; stroke-dashoffset: 0; stroke: #b0b0b0; stroke-opacity: 0.4; stroke-width: 0.8"/>
     </g>
     <g id="line2d_6">
      <g>
       <use xlink:href="#mb50c745325" x="209.467254" y="277.517969" style="stroke: #000000; stroke-width: 0.8"/>
      </g>
     </g>
     <g id="text_3">
      <!-- 200 -->
      <g transform="translate(199.923504 292.116406) scale(0.1 -0.1)">
       <defs>
        <path id="DejaVuSans-32" d="M 1228 531 
L 3431 531 
L 3431 0 
L 469 0 
L 469 531 
Q 828 903 1448 1529 
Q 2069 2156 2228 2338 
Q 2531 2678 2651 2914 
Q 2772 3150 2772 3378 
Q 2772 3750 2511 3984 
Q 2250 4219 1831 4219 
Q 1534 4219 1204 4116 
Q 875 4013 500 3803 
L 500 4441 
Q 881 4594 1212 4672 
Q 1544 4750 1819 4750 
Q 2544 4750 2975 4387 
Q 3406 4025 3406 3419 
Q 3406 3131 3298 2873 
Q 3191 2616 2906 2266 
Q 2828 2175 2409 1742 
Q 1991 1309 1228 531 
z
" transform="scale(0.015625)"/>
       </defs>
       <use xlink:href="#DejaVuSans-32"/>
       <use xlink:href="#DejaVuSans-30" transform="translate(63.623047 0)"/>
       <use xlink:href="#DejaVuSans-30" transform="translate(127.246094 0)"/>
      </g>
     </g>
    </g>
    <g id="xtick_4">
     <g id="line2d_7">
      <path d="M 275.738729 277.517969 
L 275.738729 32.077969 
" clip-path="url(#pdc6de95474)" style="fill: none; stroke-dasharray: 2.96,1.28; stroke-dashoffset: 0; stroke: #b0b0b0; stroke-opacity: 0.4; stroke-width: 0.8"/>
     </g>
     <g id="line2d_8">
      <g>
       <use xlink:href="#mb50c745325" x="275.738729" y="277.517969" style="stroke: #000000; stroke-width: 0.8"/>
      </g>
     </g>
     <g id="text_4">
      <!-- 300 -->
      <g transform="translate(266.194979 292.116406) scale(0.1 -0.1)">
       <defs>
        <path id="DejaVuSans-33" d="M 2597 2516 
Q 3050 2419 3304 2112 
Q 3559 1806 3559 1356 
Q 3559 666 3084 287 
Q 2609 -91 1734 -91 
Q 1441 -91 1130 -33 
Q 819 25 488 141 
L 488 750 
Q 750 597 1062 519 
Q 1375 441 1716 441 
Q 2309 441 2620 675 
Q 2931 909 2931 1356 
Q 2931 1769 2642 2001 
Q 2353 2234 1838 2234 
L 1294 2234 
L 1294 2753 
L 1863 2753 
Q 2328 2753 2575 2939 
Q 2822 3125 2822 3475 
Q 2822 3834 2567 4026 
Q 2313 4219 1838 4219 
Q 1578 4219 1281 4162 
Q 984 4106 628 3988 
L 628 4550 
Q 988 4650 1302 4700 
Q 1616 4750 1894 4750 
Q 2613 4750 3031 4423 
Q 3450 4097 3450 3541 
Q 3450 3153 3228 2886 
Q 3006 2619 2597 2516 
z
" transform="scale(0.015625)"/>
       </defs>
       <use xlink:href="#DejaVuSans-33"/>
       <use xlink:href="#DejaVuSans-30" transform="translate(63.623047 0)"/>
       <use xlink:href="#DejaVuSans-30" transform="translate(127.246094 0)"/>
      </g>
     </g>
    </g>
    <g id="xtick_5">
     <g id="line2d_9">
      <path d="M 342.010205 277.517969 
L 342.010205 32.077969 
" clip-path="url(#pdc6de95474)" style="fill: none; stroke-dasharray: 2.96,1.28; stroke-dashoffset: 0; stroke: #b0b0b0; stroke-opacity: 0.4; stroke-width: 0.8"/>
     </g>
     <g id="line2d_10">
      <g>
       <use xlink:href="#mb50c745325" x="342.010205" y="277.517969" style="stroke: #000000; stroke-width: 0.8"/>
      </g>
     </g>
     <g id="text_5">
      <!-- 400 -->
      <g transform="translate(332.466455 292.116406) scale(0.1 -0.1)">
       <defs>
        <path id="DejaVuSans-34" d="M 2419 4116 
L 825 1625 
L 2419 1625 
L 2419 4116 
z
M 2253 4666 
L 3047 4666 
L 3047 1625 
L 3713 1625 
L 3713 1100 
L 3047 1100 
L 3047 0 
L 2419 0 
L 2419 1100 
L 313 1100 
L 313 1709 
L 2253 4666 
z
" transform="scale(0.015625)"/>
       </defs>
       <use xlink:href="#DejaVuSans-34"/>
       <use xlink:href="#DejaVuSans-30" transform="translate(63.623047 0)"/>
       <use xlink:href="#DejaVuSans-30" transform="translate(127.246094 0)"/>
      </g>
     </g>
    </g>
    <g id="xtick_6">
     <g id="line2d_11">
      <path d="M 408.281681 277.517969 
L 408.281681 32.077969 
" clip-path="url(#pdc6de95474)" style="fill: none; stroke-dasharray: 2.96,1.28; stroke-dashoffset: 0; stroke: #b0b0b0; stroke-opacity: 0.4; stroke-width: 0.8"/>
     </g>
     <g id="line2d_12">
      <g>
       <use xlink:href="#mb50c745325" x="408.281681" y="277.517969" style="stroke: #000000; stroke-width: 0.8"/>
      </g>
     </g>
     <g id="text_6">
      <!-- 500 -->
      <g transform="translate(398.737931 292.116406) scale(0.1 -0.1)">
       <defs>
        <path id="DejaVuSans-35" d="M 691 4666 
L 3169 4666 
L 3169 4134 
L 1269 4134 
L 1269 2991 
Q 1406 3038 1543 3061 
Q 1681 3084 1819 3084 
Q 2600 3084 3056 2656 
Q 3513 2228 3513 1497 
Q 3513 744 3044 326 
Q 2575 -91 1722 -91 
Q 1428 -91 1123 -41 
Q 819 9 494 109 
L 494 744 
Q 775 591 1075 516 
Q 1375 441 1709 441 
Q 2250 441 2565 725 
Q 2881 1009 2881 1497 
Q 2881 1984 2565 2268 
Q 2250 2553 1709 2553 
Q 1456 2553 1204 2497 
Q 953 2441 691 2322 
L 691 4666 
z
" transform="scale(0.015625)"/>
       </defs>
       <use xlink:href="#DejaVuSans-35"/>
       <use xlink:href="#DejaVuSans-30" transform="translate(63.623047 0)"/>
       <use xlink:href="#DejaVuSans-30" transform="translate(127.246094 0)"/>
      </g>
     </g>
    </g>
    <g id="xtick_7">
     <g id="line2d_13">
      <path d="M 474.553157 277.517969 
L 474.553157 32.077969 
" clip-path="url(#pdc6de95474)" style="fill: none; stroke-dasharray: 2.96,1.28; stroke-dashoffset: 0; stroke: #b0b0b0; stroke-opacity: 0.4; stroke-width: 0.8"/>
     </g>
     <g id="line2d_14">
      <g>
       <use xlink:href="#mb50c745325" x="474.553157" y="277.517969" style="stroke: #000000; stroke-width: 0.8"/>
      </g>
     </g>
     <g id="text_7">
      <!-- 600 -->
      <g transform="translate(465.009407 292.116406) scale(0.1 -0.1)">
       <defs>
        <path id="DejaVuSans-36" d="M 2113 2584 
Q 1688 2584 1439 2293 
Q 1191 2003 1191 1497 
Q 1191 994 1439 701 
Q 1688 409 2113 409 
Q 2538 409 2786 701 
Q 3034 994 3034 1497 
Q 3034 2003 2786 2293 
Q 2538 2584 2113 2584 
z
M 3366 4563 
L 3366 3988 
Q 3128 4100 2886 4159 
Q 2644 4219 2406 4219 
Q 1781 4219 1451 3797 
Q 1122 3375 1075 2522 
Q 1259 2794 1537 2939 
Q 1816 3084 2150 3084 
Q 2853 3084 3261 2657 
Q 3669 2231 3669 1497 
Q 3669 778 3244 343 
Q 2819 -91 2113 -91 
Q 1303 -91 875 529 
Q 447 1150 447 2328 
Q 447 3434 972 4092 
Q 1497 4750 2381 4750 
Q 2619 4750 2861 4703 
Q 3103 4656 3366 4563 
z
" transform="scale(0.015625)"/>
       </defs>
       <use xlink:href="#DejaVuSans-36"/>
       <use xlink:href="#DejaVuSans-30" transform="translate(63.623047 0)"/>
       <use xlink:href="#DejaVuSans-30" transform="translate(127.246094 0)"/>
      </g>
     </g>
    </g>
    <g id="xtick_8">
     <g id="line2d_15">
      <path d="M 540.824632 277.517969 
L 540.824632 32.077969 
" clip-path="url(#pdc6de95474)" style="fill: none; stroke-dasharray: 2.96,1.28; stroke-dashoffset: 0; stroke: #b0b0b0; stroke-opacity: 0.4; stroke-width: 0.8"/>
     </g>
     <g id="line2d_16">
      <g>
       <use xlink:href="#mb50c745325" x="540.824632" y="277.517969" style="stroke: #000000; stroke-width: 0.8"/>
      </g>
     </g>
     <g id="text_8">
      <!-- 700 -->
      <g transform="translate(531.280882 292.116406) scale(0.1 -0.1)">
       <defs>
        <path id="DejaVuSans-37" d="M 525 4666 
L 3525 4666 
L 3525 4397 
L 1831 0 
L 1172 0 
L 2766 4134 
L 525 4134 
L 525 4666 
z
" transform="scale(0.015625)"/>
       </defs>
       <use xlink:href="#DejaVuSans-37"/>
       <use xlink:href="#DejaVuSans-30" transform="translate(63.623047 0)"/>
       <use xlink:href="#DejaVuSans-30" transform="translate(127.246094 0)"/>
      </g>
     </g>
    </g>
    <g id="xtick_9">
     <g id="line2d_17">
      <path d="M 607.096108 277.517969 
L 607.096108 32.077969 
" clip-path="url(#pdc6de95474)" style="fill: none; stroke-dasharray: 2.96,1.28; stroke-dashoffset: 0; stroke: #b0b0b0; stroke-opacity: 0.4; stroke-width: 0.8"/>
     </g>
     <g id="line2d_18">
      <g>
       <use xlink:href="#mb50c745325" x="607.096108" y="277.517969" style="stroke: #000000; stroke-width: 0.8"/>
      </g>
     </g>
     <g id="text_9">
      <!-- 800 -->
      <g transform="translate(597.552358 292.116406) scale(0.1 -0.1)">
       <defs>
        <path id="DejaVuSans-38" d="M 2034 2216 
Q 1584 2216 1326 1975 
Q 1069 1734 1069 1313 
Q 1069 891 1326 650 
Q 1584 409 2034 409 
Q 2484 409 2743 651 
Q 3003 894 3003 1313 
Q 3003 1734 2745 1975 
Q 2488 2216 2034 2216 
z
M 1403 2484 
Q 997 2584 770 2862 
Q 544 3141 544 3541 
Q 544 4100 942 4425 
Q 1341 4750 2034 4750 
Q 2731 4750 3128 4425 
Q 3525 4100 3525 3541 
Q 3525 3141 3298 2862 
Q 3072 2584 2669 2484 
Q 3125 2378 3379 2068 
Q 3634 1759 3634 1313 
Q 3634 634 3220 271 
Q 2806 -91 2034 -91 
Q 1263 -91 848 271 
Q 434 634 434 1313 
Q 434 1759 690 2068 
Q 947 2378 1403 2484 
z
M 1172 3481 
Q 1172 3119 1398 2916 
Q 1625 2713 2034 2713 
Q 2441 2713 2670 2916 
Q 2900 3119 2900 3481 
Q 2900 3844 2670 4047 
Q 2441 4250 2034 4250 
Q 1625 4250 1398 4047 
Q 1172 3844 1172 3481 
z
" transform="scale(0.015625)"/>
       </defs>
       <use xlink:href="#DejaVuSans-38"/>
       <use xlink:href="#DejaVuSans-30" transform="translate(63.623047 0)"/>
       <use xlink:href="#DejaVuSans-30" transform="translate(127.246094 0)"/>
      </g>
     </g>
    </g>
    <g id="text_10">
     <!-- Training step -->
     <g transform="translate(306.998047 306.554375) scale(0.11 -0.11)">
      <defs>
       <path id="DejaVuSans-54" d="M -19 4666 
L 3928 4666 
L 3928 4134 
L 2272 4134 
L 2272 0 
L 1638 0 
L 1638 4134 
L -19 4134 
L -19 4666 
z
" transform="scale(0.015625)"/>
       <path id="DejaVuSans-72" d="M 2631 2963 
Q 2534 3019 2420 3045 
Q 2306 3072 2169 3072 
Q 1681 3072 1420 2755 
Q 1159 2438 1159 1844 
L 1159 0 
L 581 0 
L 581 3500 
L 1159 3500 
L 1159 2956 
Q 1341 3275 1631 3429 
Q 1922 3584 2338 3584 
Q 2397 3584 2469 3576 
Q 2541 3569 2628 3553 
L 2631 2963 
z
" transform="scale(0.015625)"/>
       <path id="DejaVuSans-61" d="M 2194 1759 
Q 1497 1759 1228 1600 
Q 959 1441 959 1056 
Q 959 750 1161 570 
Q 1363 391 1709 391 
Q 2188 391 2477 730 
Q 2766 1069 2766 1631 
L 2766 1759 
L 2194 1759 
z
M 3341 1997 
L 3341 0 
L 2766 0 
L 2766 531 
Q 2569 213 2275 61 
Q 1981 -91 1556 -91 
Q 1019 -91 701 211 
Q 384 513 384 1019 
Q 384 1609 779 1909 
Q 1175 2209 1959 2209 
L 2766 2209 
L 2766 2266 
Q 2766 2663 2505 2880 
Q 2244 3097 1772 3097 
Q 1472 3097 1187 3025 
Q 903 2953 641 2809 
L 641 3341 
Q 956 3463 1253 3523 
Q 1550 3584 1831 3584 
Q 2591 3584 2966 3190 
Q 3341 2797 3341 1997 
z
" transform="scale(0.015625)"/>
       <path id="DejaVuSans-69" d="M 603 3500 
L 1178 3500 
L 1178 0 
L 603 0 
L 603 3500 
z
M 603 4863 
L 1178 4863 
L 1178 4134 
L 603 4134 
L 603 4863 
z
" transform="scale(0.015625)"/>
       <path id="DejaVuSans-6e" d="M 3513 2113 
L 3513 0 
L 2938 0 
L 2938 2094 
Q 2938 2591 2744 2837 
Q 2550 3084 2163 3084 
Q 1697 3084 1428 2787 
Q 1159 2491 1159 1978 
L 1159 0 
L 581 0 
L 581 3500 
L 1159 3500 
L 1159 2956 
Q 1366 3272 1645 3428 
Q 1925 3584 2291 3584 
Q 2894 3584 3203 3211 
Q 3513 2838 3513 2113 
z
" transform="scale(0.015625)"/>
       <path id="DejaVuSans-67" d="M 2906 1791 
Q 2906 2416 2648 2759 
Q 2391 3103 1925 3103 
Q 1463 3103 1205 2759 
Q 947 2416 947 1791 
Q 947 1169 1205 825 
Q 1463 481 1925 481 
Q 2391 481 2648 825 
Q 2906 1169 2906 1791 
z
M 3481 434 
Q 3481 -459 3084 -895 
Q 2688 -1331 1869 -1331 
Q 1566 -1331 1297 -1286 
Q 1028 -1241 775 -1147 
L 775 -588 
Q 1028 -725 1275 -790 
Q 1522 -856 1778 -856 
Q 2344 -856 2625 -561 
Q 2906 -266 2906 331 
L 2906 616 
Q 2728 306 2450 153 
Q 2172 0 1784 0 
Q 1141 0 747 490 
Q 353 981 353 1791 
Q 353 2603 747 3093 
Q 1141 3584 1784 3584 
Q 2172 3584 2450 3431 
Q 2728 3278 2906 2969 
L 2906 3500 
L 3481 3500 
L 3481 434 
z
" transform="scale(0.015625)"/>
       <path id="DejaVuSans-20" transform="scale(0.015625)"/>
       <path id="DejaVuSans-73" d="M 2834 3397 
L 2834 2853 
Q 2591 2978 2328 3040 
Q 2066 3103 1784 3103 
Q 1356 3103 1142 2972 
Q 928 2841 928 2578 
Q 928 2378 1081 2264 
Q 1234 2150 1697 2047 
L 1894 2003 
Q 2506 1872 2764 1633 
Q 3022 1394 3022 966 
Q 3022 478 2636 193 
Q 2250 -91 1575 -91 
Q 1294 -91 989 -36 
Q 684 19 347 128 
L 347 722 
Q 666 556 975 473 
Q 1284 391 1588 391 
Q 1994 391 2212 530 
Q 2431 669 2431 922 
Q 2431 1156 2273 1281 
Q 2116 1406 1581 1522 
L 1381 1569 
Q 847 1681 609 1914 
Q 372 2147 372 2553 
Q 372 3047 722 3315 
Q 1072 3584 1716 3584 
Q 2034 3584 2315 3537 
Q 2597 3491 2834 3397 
z
" transform="scale(0.015625)"/>
       <path id="DejaVuSans-74" d="M 1172 4494 
L 1172 3500 
L 2356 3500 
L 2356 3053 
L 1172 3053 
L 1172 1153 
Q 1172 725 1289 603 
Q 1406 481 1766 481 
L 2356 481 
L 2356 0 
L 1766 0 
Q 1100 0 847 248 
Q 594 497 594 1153 
L 594 3053 
L 172 3053 
L 172 3500 
L 594 3500 
L 594 4494 
L 1172 4494 
z
" transform="scale(0.015625)"/>
       <path id="DejaVuSans-65" d="M 3597 1894 
L 3597 1613 
L 953 1613 
Q 991 1019 1311 708 
Q 1631 397 2203 397 
Q 2534 397 2845 478 
Q 3156 559 3463 722 
L 3463 178 
Q 3153 47 2828 -22 
Q 2503 -91 2169 -91 
Q 1331 -91 842 396 
Q 353 884 353 1716 
Q 353 2575 817 3079 
Q 1281 3584 2069 3584 
Q 2775 3584 3186 3129 
Q 3597 2675 3597 1894 
z
M 3022 2063 
Q 3016 2534 2758 2815 
Q 2500 3097 2075 3097 
Q 1594 3097 1305 2825 
Q 1016 2553 972 2059 
L 3022 2063 
z
" transform="scale(0.015625)"/>
       <path id="DejaVuSans-70" d="M 1159 525 
L 1159 -1331 
L 581 -1331 
L 581 3500 
L 1159 3500 
L 1159 2969 
Q 1341 3281 1617 3432 
Q 1894 3584 2278 3584 
Q 2916 3584 3314 3078 
Q 3713 2572 3713 1747 
Q 3713 922 3314 415 
Q 2916 -91 2278 -91 
Q 1894 -91 1617 61 
Q 1341 213 1159 525 
z
M 3116 1747 
Q 3116 2381 2855 2742 
Q 2594 3103 2138 3103 
Q 1681 3103 1420 2742 
Q 1159 2381 1159 1747 
Q 1159 1113 1420 752 
Q 1681 391 2138 391 
Q 2594 391 2855 752 
Q 3116 1113 3116 1747 
z
" transform="scale(0.015625)"/>
      </defs>
      <use xlink:href="#DejaVuSans-54"/>
      <use xlink:href="#DejaVuSans-72" transform="translate(46.333984 0)"/>
      <use xlink:href="#DejaVuSans-61" transform="translate(87.447266 0)"/>
      <use xlink:href="#DejaVuSans-69" transform="translate(148.726562 0)"/>
      <use xlink:href="#DejaVuSans-6e" transform="translate(176.509766 0)"/>
      <use xlink:href="#DejaVuSans-69" transform="translate(239.888672 0)"/>
      <use xlink:href="#DejaVuSans-6e" transform="translate(267.671875 0)"/>
      <use xlink:href="#DejaVuSans-67" transform="translate(331.050781 0)"/>
      <use xlink:href="#DejaVuSans-20" transform="translate(394.527344 0)"/>
      <use xlink:href="#DejaVuSans-73" transform="translate(426.314453 0)"/>
      <use xlink:href="#DejaVuSans-74" transform="translate(478.414062 0)"/>
      <use xlink:href="#DejaVuSans-65" transform="translate(517.623047 0)"/>
      <use xlink:href="#DejaVuSans-70" transform="translate(579.146484 0)"/>
     </g>
    </g>
   </g>
   <g id="matplotlib.axis_2">
    <g id="ytick_1">
     <g id="line2d_19">
      <path d="M 51.111563 266.776445 
L 633.571563 266.776445 
" clip-path="url(#pdc6de95474)" style="fill: none; stroke-dasharray: 2.96,1.28; stroke-dashoffset: 0; stroke: #b0b0b0; stroke-opacity: 0.4; stroke-width: 0.8"/>
     </g>
     <g id="line2d_20">
      <defs>
       <path id="m50ea14f8b0" d="M 0 0 
L -3.5 0 
" style="stroke: #000000; stroke-width: 0.8"/>
      </defs>
      <g>
       <use xlink:href="#m50ea14f8b0" x="51.111563" y="266.776445" style="stroke: #000000; stroke-width: 0.8"/>
      </g>
     </g>
     <g id="text_11">
      <!-- 0.00 -->
      <g transform="translate(21.845938 270.575664) scale(0.1 -0.1)">
       <defs>
        <path id="DejaVuSans-2e" d="M 684 794 
L 1344 794 
L 1344 0 
L 684 0 
L 684 794 
z
" transform="scale(0.015625)"/>
       </defs>
       <use xlink:href="#DejaVuSans-30"/>
       <use xlink:href="#DejaVuSans-2e" transform="translate(63.623047 0)"/>
       <use xlink:href="#DejaVuSans-30" transform="translate(95.410156 0)"/>
       <use xlink:href="#DejaVuSans-30" transform="translate(159.033203 0)"/>
      </g>
     </g>
    </g>
    <g id="ytick_2">
     <g id="line2d_21">
      <path d="M 51.111563 236.632485 
L 633.571563 236.632485 
" clip-path="url(#pdc6de95474)" style="fill: none; stroke-dasharray: 2.96,1.28; stroke-dashoffset: 0; stroke: #b0b0b0; stroke-opacity: 0.4; stroke-width: 0.8"/>
     </g>
     <g id="line2d_22">
      <g>
       <use xlink:href="#m50ea14f8b0" x="51.111563" y="236.632485" style="stroke: #000000; stroke-width: 0.8"/>
      </g>
     </g>
     <g id="text_12">
      <!-- 0.02 -->
      <g transform="translate(21.845938 240.431703) scale(0.1 -0.1)">
       <use xlink:href="#DejaVuSans-30"/>
       <use xlink:href="#DejaVuSans-2e" transform="translate(63.623047 0)"/>
       <use xlink:href="#DejaVuSans-30" transform="translate(95.410156 0)"/>
       <use xlink:href="#DejaVuSans-32" transform="translate(159.033203 0)"/>
      </g>
     </g>
    </g>
    <g id="ytick_3">
     <g id="line2d_23">
      <path d="M 51.111563 206.488525 
L 633.571563 206.488525 
" clip-path="url(#pdc6de95474)" style="fill: none; stroke-dasharray: 2.96,1.28; stroke-dashoffset: 0; stroke: #b0b0b0; stroke-opacity: 0.4; stroke-width: 0.8"/>
     </g>
     <g id="line2d_24">
      <g>
       <use xlink:href="#m50ea14f8b0" x="51.111563" y="206.488525" style="stroke: #000000; stroke-width: 0.8"/>
      </g>
     </g>
     <g id="text_13">
      <!-- 0.04 -->
      <g transform="translate(21.845938 210.287743) scale(0.1 -0.1)">
       <use xlink:href="#DejaVuSans-30"/>
       <use xlink:href="#DejaVuSans-2e" transform="translate(63.623047 0)"/>
       <use xlink:href="#DejaVuSans-30" transform="translate(95.410156 0)"/>
       <use xlink:href="#DejaVuSans-34" transform="translate(159.033203 0)"/>
      </g>
     </g>
    </g>
    <g id="ytick_4">
     <g id="line2d_25">
      <path d="M 51.111563 176.344564 
L 633.571563 176.344564 
" clip-path="url(#pdc6de95474)" style="fill: none; stroke-dasharray: 2.96,1.28; stroke-dashoffset: 0; stroke: #b0b0b0; stroke-opacity: 0.4; stroke-width: 0.8"/>
     </g>
     <g id="line2d_26">
      <g>
       <use xlink:href="#m50ea14f8b0" x="51.111563" y="176.344564" style="stroke: #000000; stroke-width: 0.8"/>
      </g>
     </g>
     <g id="text_14">
      <!-- 0.06 -->
      <g transform="translate(21.845938 180.143783) scale(0.1 -0.1)">
       <use xlink:href="#DejaVuSans-30"/>
       <use xlink:href="#DejaVuSans-2e" transform="translate(63.623047 0)"/>
       <use xlink:href="#DejaVuSans-30" transform="translate(95.410156 0)"/>
       <use xlink:href="#DejaVuSans-36" transform="translate(159.033203 0)"/>
      </g>
     </g>
    </g>
    <g id="ytick_5">
     <g id="line2d_27">
      <path d="M 51.111563 146.200604 
L 633.571563 146.200604 
" clip-path="url(#pdc6de95474)" style="fill: none; stroke-dasharray: 2.96,1.28; stroke-dashoffset: 0; stroke: #b0b0b0; stroke-opacity: 0.4; stroke-width: 0.8"/>
     </g>
     <g id="line2d_28">
      <g>
       <use xlink:href="#m50ea14f8b0" x="51.111563" y="146.200604" style="stroke: #000000; stroke-width: 0.8"/>
      </g>
     </g>
     <g id="text_15">
      <!-- 0.08 -->
      <g transform="translate(21.845938 149.999823) scale(0.1 -0.1)">
       <use xlink:href="#DejaVuSans-30"/>
       <use xlink:href="#DejaVuSans-2e" transform="translate(63.623047 0)"/>
       <use xlink:href="#DejaVuSans-30" transform="translate(95.410156 0)"/>
       <use xlink:href="#DejaVuSans-38" transform="translate(159.033203 0)"/>
      </g>
     </g>
    </g>
    <g id="ytick_6">
     <g id="line2d_29">
      <path d="M 51.111563 116.056644 
L 633.571563 116.056644 
" clip-path="url(#pdc6de95474)" style="fill: none; stroke-dasharray: 2.96,1.28; stroke-dashoffset: 0; stroke: #b0b0b0; stroke-opacity: 0.4; stroke-width: 0.8"/>
     </g>
     <g id="line2d_30">
      <g>
       <use xlink:href="#m50ea14f8b0" x="51.111563" y="116.056644" style="stroke: #000000; stroke-width: 0.8"/>
      </g>
     </g>
     <g id="text_16">
      <!-- 0.10 -->
      <g transform="translate(21.845938 119.855863) scale(0.1 -0.1)">
       <use xlink:href="#DejaVuSans-30"/>
       <use xlink:href="#DejaVuSans-2e" transform="translate(63.623047 0)"/>
       <use xlink:href="#DejaVuSans-31" transform="translate(95.410156 0)"/>
       <use xlink:href="#DejaVuSans-30" transform="translate(159.033203 0)"/>
      </g>
     </g>
    </g>
    <g id="ytick_7">
     <g id="line2d_31">
      <path d="M 51.111563 85.912684 
L 633.571563 85.912684 
" clip-path="url(#pdc6de95474)" style="fill: none; stroke-dasharray: 2.96,1.28; stroke-dashoffset: 0; stroke: #b0b0b0; stroke-opacity: 0.4; stroke-width: 0.8"/>
     </g>
     <g id="line2d_32">
      <g>
       <use xlink:href="#m50ea14f8b0" x="51.111563" y="85.912684" style="stroke: #000000; stroke-width: 0.8"/>
      </g>
     </g>
     <g id="text_17">
      <!-- 0.12 -->
      <g transform="translate(21.845938 89.711903) scale(0.1 -0.1)">
       <use xlink:href="#DejaVuSans-30"/>
       <use xlink:href="#DejaVuSans-2e" transform="translate(63.623047 0)"/>
       <use xlink:href="#DejaVuSans-31" transform="translate(95.410156 0)"/>
       <use xlink:href="#DejaVuSans-32" transform="translate(159.033203 0)"/>
      </g>
     </g>
    </g>
    <g id="ytick_8">
     <g id="line2d_33">
      <path d="M 51.111563 55.768724 
L 633.571563 55.768724 
" clip-path="url(#pdc6de95474)" style="fill: none; stroke-dasharray: 2.96,1.28; stroke-dashoffset: 0; stroke: #b0b0b0; stroke-opacity: 0.4; stroke-width: 0.8"/>
     </g>
     <g id="line2d_34">
      <g>
       <use xlink:href="#m50ea14f8b0" x="51.111563" y="55.768724" style="stroke: #000000; stroke-width: 0.8"/>
      </g>
     </g>
     <g id="text_18">
      <!-- 0.14 -->
      <g transform="translate(21.845938 59.567943) scale(0.1 -0.1)">
       <use xlink:href="#DejaVuSans-30"/>
       <use xlink:href="#DejaVuSans-2e" transform="translate(63.623047 0)"/>
       <use xlink:href="#DejaVuSans-31" transform="translate(95.410156 0)"/>
       <use xlink:href="#DejaVuSans-34" transform="translate(159.033203 0)"/>
      </g>
     </g>
    </g>
    <g id="text_19">
     <!-- MSE loss (noise prediction) -->
     <g transform="translate(15.558281 228.889844) rotate(-90) scale(0.11 -0.11)">
      <defs>
       <path id="DejaVuSans-4d" d="M 628 4666 
L 1569 4666 
L 2759 1491 
L 3956 4666 
L 4897 4666 
L 4897 0 
L 4281 0 
L 4281 4097 
L 3078 897 
L 2444 897 
L 1241 4097 
L 1241 0 
L 628 0 
L 628 4666 
z
" transform="scale(0.015625)"/>
       <path id="DejaVuSans-53" d="M 3425 4513 
L 3425 3897 
Q 3066 4069 2747 4153 
Q 2428 4238 2131 4238 
Q 1616 4238 1336 4038 
Q 1056 3838 1056 3469 
Q 1056 3159 1242 3001 
Q 1428 2844 1947 2747 
L 2328 2669 
Q 3034 2534 3370 2195 
Q 3706 1856 3706 1288 
Q 3706 609 3251 259 
Q 2797 -91 1919 -91 
Q 1588 -91 1214 -16 
Q 841 59 441 206 
L 441 856 
Q 825 641 1194 531 
Q 1563 422 1919 422 
Q 2459 422 2753 634 
Q 3047 847 3047 1241 
Q 3047 1584 2836 1778 
Q 2625 1972 2144 2069 
L 1759 2144 
Q 1053 2284 737 2584 
Q 422 2884 422 3419 
Q 422 4038 858 4394 
Q 1294 4750 2059 4750 
Q 2388 4750 2728 4690 
Q 3069 4631 3425 4513 
z
" transform="scale(0.015625)"/>
       <path id="DejaVuSans-45" d="M 628 4666 
L 3578 4666 
L 3578 4134 
L 1259 4134 
L 1259 2753 
L 3481 2753 
L 3481 2222 
L 1259 2222 
L 1259 531 
L 3634 531 
L 3634 0 
L 628 0 
L 628 4666 
z
" transform="scale(0.015625)"/>
       <path id="DejaVuSans-6c" d="M 603 4863 
L 1178 4863 
L 1178 0 
L 603 0 
L 603 4863 
z
" transform="scale(0.015625)"/>
       <path id="DejaVuSans-6f" d="M 1959 3097 
Q 1497 3097 1228 2736 
Q 959 2375 959 1747 
Q 959 1119 1226 758 
Q 1494 397 1959 397 
Q 2419 397 2687 759 
Q 2956 1122 2956 1747 
Q 2956 2369 2687 2733 
Q 2419 3097 1959 3097 
z
M 1959 3584 
Q 2709 3584 3137 3096 
Q 3566 2609 3566 1747 
Q 3566 888 3137 398 
Q 2709 -91 1959 -91 
Q 1206 -91 779 398 
Q 353 888 353 1747 
Q 353 2609 779 3096 
Q 1206 3584 1959 3584 
z
" transform="scale(0.015625)"/>
       <path id="DejaVuSans-28" d="M 1984 4856 
Q 1566 4138 1362 3434 
Q 1159 2731 1159 2009 
Q 1159 1288 1364 580 
Q 1569 -128 1984 -844 
L 1484 -844 
Q 1016 -109 783 600 
Q 550 1309 550 2009 
Q 550 2706 781 3412 
Q 1013 4119 1484 4856 
L 1984 4856 
z
" transform="scale(0.015625)"/>
       <path id="DejaVuSans-64" d="M 2906 2969 
L 2906 4863 
L 3481 4863 
L 3481 0 
L 2906 0 
L 2906 525 
Q 2725 213 2448 61 
Q 2172 -91 1784 -91 
Q 1150 -91 751 415 
Q 353 922 353 1747 
Q 353 2572 751 3078 
Q 1150 3584 1784 3584 
Q 2172 3584 2448 3432 
Q 2725 3281 2906 2969 
z
M 947 1747 
Q 947 1113 1208 752 
Q 1469 391 1925 391 
Q 2381 391 2643 752 
Q 2906 1113 2906 1747 
Q 2906 2381 2643 2742 
Q 2381 3103 1925 3103 
Q 1469 3103 1208 2742 
Q 947 2381 947 1747 
z
" transform="scale(0.015625)"/>
       <path id="DejaVuSans-63" d="M 3122 3366 
L 3122 2828 
Q 2878 2963 2633 3030 
Q 2388 3097 2138 3097 
Q 1578 3097 1268 2742 
Q 959 2388 959 1747 
Q 959 1106 1268 751 
Q 1578 397 2138 397 
Q 2388 397 2633 464 
Q 2878 531 3122 666 
L 3122 134 
Q 2881 22 2623 -34 
Q 2366 -91 2075 -91 
Q 1284 -91 818 406 
Q 353 903 353 1747 
Q 353 2603 823 3093 
Q 1294 3584 2113 3584 
Q 2378 3584 2631 3529 
Q 2884 3475 3122 3366 
z
" transform="scale(0.015625)"/>
       <path id="DejaVuSans-29" d="M 513 4856 
L 1013 4856 
Q 1481 4119 1714 3412 
Q 1947 2706 1947 2009 
Q 1947 1309 1714 600 
Q 1481 -109 1013 -844 
L 513 -844 
Q 928 -128 1133 580 
Q 1338 1288 1338 2009 
Q 1338 2731 1133 3434 
Q 928 4138 513 4856 
z
" transform="scale(0.015625)"/>
      </defs>
      <use xlink:href="#DejaVuSans-4d"/>
      <use xlink:href="#DejaVuSans-53" transform="translate(86.279297 0)"/>
      <use xlink:href="#DejaVuSans-45" transform="translate(149.755859 0)"/>
      <use xlink:href="#DejaVuSans-20" transform="translate(212.939453 0)"/>
      <use xlink:href="#DejaVuSans-6c" transform="translate(244.726562 0)"/>
      <use xlink:href="#DejaVuSans-6f" transform="translate(272.509766 0)"/>
      <use xlink:href="#DejaVuSans-73" transform="translate(333.691406 0)"/>
      <use xlink:href="#DejaVuSans-73" transform="translate(385.791016 0)"/>
      <use xlink:href="#DejaVuSans-20" transform="translate(437.890625 0)"/>
      <use xlink:href="#DejaVuSans-28" transform="translate(469.677734 0)"/>
      <use xlink:href="#DejaVuSans-6e" transform="translate(508.691406 0)"/>
      <use xlink:href="#DejaVuSans-6f" transform="translate(572.070312 0)"/>
      <use xlink:href="#DejaVuSans-69" transform="translate(633.251953 0)"/>
      <use xlink:href="#DejaVuSans-73" transform="translate(661.035156 0)"/>
      <use xlink:href="#DejaVuSans-65" transform="translate(713.134766 0)"/>
      <use xlink:href="#DejaVuSans-20" transform="translate(774.658203 0)"/>
      <use xlink:href="#DejaVuSans-70" transform="translate(806.445312 0)"/>
      <use xlink:href="#DejaVuSans-72" transform="translate(869.921875 0)"/>
      <use xlink:href="#DejaVuSans-65" transform="translate(908.785156 0)"/>
      <use xlink:href="#DejaVuSans-64" transform="translate(970.308594 0)"/>
      <use xlink:href="#DejaVuSans-69" transform="translate(1033.785156 0)"/>
      <use xlink:href="#DejaVuSans-63" transform="translate(1061.568359 0)"/>
      <use xlink:href="#DejaVuSans-74" transform="translate(1116.548828 0)"/>
      <use xlink:href="#DejaVuSans-69" transform="translate(1155.757812 0)"/>
      <use xlink:href="#DejaVuSans-6f" transform="translate(1183.541016 0)"/>
      <use xlink:href="#DejaVuSans-6e" transform="translate(1244.722656 0)"/>
      <use xlink:href="#DejaVuSans-29" transform="translate(1308.101562 0)"/>
     </g>
    </g>
   </g>
   <g id="line2d_35">
    <path d="M 77.587017 247.746273 
L 78.249732 204.798801 
L 78.912447 246.679306 
L 79.575161 251.178223 
L 80.237876 262.69013 
L 80.900591 254.643203 
L 81.563306 193.739512 
L 82.22602 234.35987 
L 82.888735 260.238103 
L 83.55145 252.727052 
L 84.214165 262.91606 
L 84.876879 220.893541 
L 85.539594 250.617778 
L 86.202309 264.68293 
L 86.865024 242.215714 
L 87.527738 212.036786 
L 88.190453 265.677901 
L 88.853168 244.324262 
L 89.515883 229.23745 
L 90.178597 263.276146 
L 90.841312 264.532074 
L 92.166742 223.612632 
L 92.829456 214.780872 
L 93.492171 204.361602 
L 94.154886 262.26753 
L 94.817601 192.11403 
L 95.480315 255.635067 
L 96.14303 254.786538 
L 96.805745 258.289478 
L 97.46846 259.554631 
L 98.131175 210.876594 
L 98.793889 222.096481 
L 99.456604 254.654003 
L 100.119319 244.690764 
L 100.782034 217.301676 
L 101.444748 212.021245 
L 102.107463 219.24192 
L 102.770178 194.174874 
L 103.432893 255.164575 
L 104.095607 185.84592 
L 104.758322 265.166781 
L 105.421037 191.809655 
L 106.083752 239.491477 
L 106.746466 147.369508 
L 107.409181 237.861582 
L 108.071896 259.98919 
L 108.734611 228.786939 
L 109.397325 186.194057 
L 110.06004 206.356338 
L 110.722755 258.920308 
L 111.38547 245.551447 
L 112.048184 228.666744 
L 112.710899 262.904871 
L 113.373614 257.697663 
L 114.036329 215.131625 
L 114.699043 208.624607 
L 115.361758 263.793721 
L 116.024473 205.534063 
L 116.687188 266.085117 
L 117.349902 226.405948 
L 118.012617 247.694376 
L 118.675332 262.979823 
L 119.338047 257.794476 
L 120.000761 251.40392 
L 120.663476 259.755547 
L 121.326191 262.422079 
L 121.988906 204.190706 
L 122.651621 250.836363 
L 123.314335 258.254173 
L 123.97705 217.475896 
L 124.639765 184.818886 
L 125.30248 242.550977 
L 125.965194 231.345266 
L 126.627909 250.877033 
L 127.290624 258.630088 
L 128.616053 252.381292 
L 129.278768 261.183707 
L 129.941483 242.129505 
L 130.604198 263.391993 
L 131.266912 256.298847 
L 131.929627 259.266667 
L 132.592342 256.432357 
L 133.255057 207.433241 
L 133.917771 251.491938 
L 134.580486 263.492318 
L 135.243201 172.645137 
L 135.905916 258.624861 
L 136.56863 233.10987 
L 137.231345 262.046052 
L 137.89406 260.736583 
L 138.556775 237.811678 
L 139.219489 231.360443 
L 139.882204 265.024981 
L 140.544919 263.965998 
L 141.207634 264.189904 
L 141.870348 229.943653 
L 142.533063 259.768774 
L 143.195778 238.070768 
L 143.858493 245.817652 
L 144.521208 188.274456 
L 145.183922 254.481377 
L 145.846637 259.570119 
L 146.509352 263.150361 
L 147.172067 245.147898 
L 147.834781 258.919686 
L 148.497496 251.834609 
L 149.160211 229.871658 
L 149.822926 263.400591 
L 150.48564 168.180108 
L 151.148355 257.756208 
L 151.81107 245.098911 
L 152.473785 162.948373 
L 153.136499 195.385346 
L 153.799214 254.067274 
L 154.461929 234.760298 
L 155.124644 220.065792 
L 155.787358 227.234797 
L 156.450073 261.052047 
L 157.112788 266.106629 
L 157.775503 246.955992 
L 158.438217 257.174991 
L 159.100932 258.714881 
L 159.763647 229.190173 
L 160.426362 233.222645 
L 161.089076 256.618558 
L 161.751791 220.649041 
L 162.414506 224.637032 
L 163.077221 234.3795 
L 163.739935 254.787044 
L 165.065365 259.130381 
L 165.72808 262.380558 
L 166.390794 259.463196 
L 167.053509 248.959025 
L 167.716224 154.191081 
L 168.378939 263.503399 
L 169.041654 245.215226 
L 169.704368 263.681294 
L 170.367083 262.287563 
L 171.029798 264.728399 
L 171.692513 263.489292 
L 172.355227 260.512084 
L 173.017942 255.24681 
L 173.680657 258.336158 
L 174.343372 225.156947 
L 175.006086 229.268468 
L 175.668801 245.278959 
L 176.331516 241.499912 
L 176.994231 261.859003 
L 177.656945 242.6907 
L 178.982375 258.492034 
L 179.64509 263.217595 
L 180.307804 259.719353 
L 180.970519 239.259795 
L 181.633234 260.21818 
L 182.295949 262.848386 
L 182.958663 221.784655 
L 183.621378 244.536271 
L 184.284093 258.84908 
L 184.946808 246.429553 
L 185.609522 259.113987 
L 186.272237 208.857782 
L 186.934952 201.928596 
L 188.260381 256.649231 
L 188.923096 239.428957 
L 189.585811 251.160164 
L 190.248526 249.754224 
L 190.911241 236.07361 
L 191.573955 205.396558 
L 192.23667 210.099961 
L 192.899385 262.701212 
L 193.5621 265.282567 
L 194.224814 259.946181 
L 194.887529 266.072512 
L 195.550244 165.218058 
L 196.212959 253.987194 
L 196.875673 252.189244 
L 197.538388 218.299383 
L 198.201103 262.649441 
L 198.863818 203.356933 
L 199.526532 261.438913 
L 200.189247 240.186047 
L 200.851962 261.37543 
L 201.514677 261.881818 
L 202.177391 238.689351 
L 202.840106 246.272051 
L 203.502821 264.933011 
L 204.165536 262.672205 
L 204.82825 261.696156 
L 205.490965 250.458363 
L 206.15368 207.486267 
L 206.816395 238.263624 
L 207.479109 189.616808 
L 208.141824 205.569509 
L 208.804539 134.366342 
L 209.467254 258.479161 
L 210.129968 204.229454 
L 210.792683 219.492922 
L 211.455398 261.572877 
L 212.118113 256.699308 
L 212.780827 222.04802 
L 213.443542 263.336201 
L 214.106257 251.535964 
L 214.768972 259.480118 
L 215.431687 248.653458 
L 216.094401 261.172726 
L 216.757116 221.88709 
L 217.419831 189.729934 
L 218.082546 200.18169 
L 218.74526 264.56383 
L 219.407975 255.46726 
L 220.07069 251.608613 
L 220.733405 259.842939 
L 221.396119 195.527866 
L 222.058834 237.786451 
L 222.721549 266.181239 
L 223.384264 261.918056 
L 224.046978 258.579958 
L 224.709693 254.083763 
L 225.372408 207.547973 
L 226.035123 242.627882 
L 226.697837 250.054123 
L 227.360552 249.083256 
L 228.023267 263.789107 
L 228.685982 248.958158 
L 229.348696 257.160312 
L 230.011411 258.889555 
L 230.674126 249.230887 
L 231.336841 249.514648 
L 231.999555 264.541658 
L 232.66227 264.211564 
L 233.9877 237.951733 
L 234.650414 194.30988 
L 235.313129 255.595477 
L 235.975844 253.808979 
L 236.638559 262.651147 
L 237.301274 260.20043 
L 237.963988 260.732604 
L 238.626703 260.863189 
L 239.289418 239.733784 
L 239.952133 231.364233 
L 240.614847 258.309602 
L 241.277562 253.716954 
L 241.940277 259.613674 
L 242.602992 261.545153 
L 243.265706 264.460791 
L 243.928421 261.445416 
L 244.591136 250.55069 
L 245.253851 257.676693 
L 245.916565 257.780395 
L 246.57928 247.032331 
L 247.241995 248.083263 
L 247.90471 249.945614 
L 248.567424 181.460699 
L 249.230139 254.765164 
L 249.892854 252.272326 
L 250.555569 251.991505 
L 251.218283 262.906824 
L 251.880998 263.892698 
L 252.543713 260.730764 
L 253.206428 237.13317 
L 253.869142 261.66193 
L 254.531857 208.802454 
L 255.194572 213.360559 
L 255.857287 242.155926 
L 256.520001 258.643915 
L 257.182716 220.903291 
L 257.845431 202.83713 
L 259.17086 249.858411 
L 259.833575 200.580955 
L 260.49629 258.574126 
L 261.159005 258.522625 
L 261.82172 258.687192 
L 262.484434 137.367853 
L 263.147149 252.829549 
L 263.809864 251.344923 
L 264.472579 266.224008 
L 265.135293 260.054073 
L 265.798008 184.134005 
L 266.460723 256.70219 
L 267.123438 228.950704 
L 267.786152 253.287655 
L 268.448867 257.496613 
L 269.111582 246.680207 
L 269.774297 229.7892 
L 270.437011 234.25552 
L 271.099726 255.434681 
L 271.762441 263.555796 
L 272.425156 260.681504 
L 273.08787 169.614957 
L 273.750585 261.660327 
L 274.4133 234.37834 
L 275.076015 260.554923 
L 275.738729 234.812287 
L 276.401444 221.381929 
L 277.064159 203.648327 
L 277.726874 263.968319 
L 278.389588 184.189434 
L 279.052303 210.936834 
L 279.715018 242.827026 
L 280.377733 183.554097 
L 281.040447 245.459167 
L 281.703162 245.789486 
L 282.365877 258.000794 
L 283.028592 232.083617 
L 283.691306 266.107868 
L 284.354021 211.480308 
L 285.016736 236.018816 
L 285.679451 251.407191 
L 286.342166 263.877949 
L 287.00488 238.838728 
L 287.667595 249.299 
L 288.33031 215.370263 
L 288.993025 264.446031 
L 289.655739 235.494968 
L 290.318454 254.899622 
L 290.981169 248.722303 
L 291.643884 224.637442 
L 292.306598 218.558285 
L 292.969313 266.069872 
L 293.632028 239.857115 
L 294.294743 254.871705 
L 294.957457 181.355018 
L 295.620172 261.573645 
L 296.282887 248.225136 
L 296.945602 255.055082 
L 297.608316 237.261113 
L 298.271031 249.400664 
L 298.933746 256.840278 
L 299.596461 247.164418 
L 300.259175 264.856022 
L 300.92189 70.562556 
L 301.584605 265.432928 
L 302.910034 204.583222 
L 303.572749 243.886136 
L 304.235464 254.724572 
L 304.898179 258.472098 
L 305.560893 174.778046 
L 306.223608 247.312591 
L 306.886323 237.850479 
L 307.549038 257.637927 
L 308.211753 244.355967 
L 308.874467 249.784598 
L 309.537182 244.566126 
L 310.199897 57.124842 
L 310.862612 262.173536 
L 311.525326 230.021493 
L 312.188041 261.862116 
L 312.850756 261.004124 
L 313.513471 235.834424 
L 314.176185 248.75315 
L 314.8389 216.503107 
L 315.501615 260.125713 
L 316.16433 244.556254 
L 316.827044 261.148108 
L 317.489759 201.591846 
L 318.152474 259.429214 
L 318.815189 234.874162 
L 319.477903 233.581871 
L 320.140618 220.39937 
L 320.803333 213.957772 
L 322.128762 265.384621 
L 322.791477 236.329657 
L 323.454192 259.241484 
L 324.116907 262.431994 
L 324.779621 205.553271 
L 325.442336 235.07296 
L 326.105051 214.017838 
L 326.767766 250.266912 
L 327.43048 262.488064 
L 328.093195 261.795634 
L 328.75591 223.422309 
L 329.418625 221.613436 
L 330.081339 237.417107 
L 330.744054 225.656615 
L 331.406769 256.915447 
L 332.069484 260.509015 
L 332.732199 242.969582 
L 334.057628 261.41379 
L 334.720343 246.212512 
L 335.383058 258.850497 
L 336.045772 253.530927 
L 336.708487 265.117091 
L 337.371202 256.195886 
L 338.033917 220.361566 
L 338.696631 227.521633 
L 339.359346 249.49398 
L 340.022061 263.23719 
L 340.684776 263.399135 
L 341.34749 223.252822 
L 342.010205 242.364278 
L 342.67292 168.646873 
L 343.335635 262.585797 
L 343.998349 260.736392 
L 344.661064 194.494111 
L 345.323779 256.546717 
L 345.986494 220.823413 
L 346.649208 262.970892 
L 347.311923 222.826455 
L 347.974638 261.880174 
L 348.637353 253.26376 
L 349.300067 261.291745 
L 349.962782 145.475136 
L 350.625497 254.626683 
L 351.288212 265.176336 
L 351.950926 258.314931 
L 352.613641 255.122872 
L 353.276356 256.714373 
L 353.939071 251.269584 
L 354.601786 255.351895 
L 355.2645 190.030817 
L 355.927215 170.568027 
L 356.58993 259.352918 
L 357.252645 264.732118 
L 357.915359 214.679694 
L 358.578074 256.743544 
L 359.240789 263.197468 
L 359.903504 234.096772 
L 360.566218 249.865281 
L 361.228933 258.496506 
L 361.891648 229.01421 
L 362.554363 217.837362 
L 363.217077 263.174511 
L 363.879792 253.312864 
L 364.542507 255.378268 
L 365.205222 250.581035 
L 365.867936 259.428306 
L 366.530651 239.826989 
L 367.193366 256.831211 
L 367.856081 251.051211 
L 368.518795 263.89491 
L 369.18151 254.457562 
L 369.844225 239.264647 
L 370.50694 262.399602 
L 371.169654 253.808486 
L 371.832369 265.165558 
L 372.495084 249.514269 
L 373.157799 241.879071 
L 373.820513 229.954066 
L 374.483228 169.866824 
L 375.145943 252.468293 
L 375.808658 239.732698 
L 376.471372 243.061391 
L 377.134087 256.403948 
L 377.796802 230.259188 
L 378.459517 192.309766 
L 379.122232 259.943107 
L 379.784946 252.688697 
L 380.447661 263.88296 
L 381.110376 203.744979 
L 381.773091 259.391763 
L 382.435805 209.32576 
L 383.09852 240.843197 
L 383.761235 251.340695 
L 384.42395 212.035506 
L 385.086664 249.386632 
L 385.749379 265.99402 
L 386.412094 257.493649 
L 387.074809 247.054238 
L 387.737523 217.178965 
L 388.400238 251.059246 
L 389.062953 261.624467 
L 389.725668 243.525927 
L 390.388382 263.000953 
L 391.051097 232.501969 
L 391.713812 216.45304 
L 392.376527 173.604243 
L 393.039241 258.804472 
L 393.701956 241.934309 
L 394.364671 248.059796 
L 395.027386 258.456018 
L 395.6901 228.797284 
L 396.352815 252.936712 
L 397.01553 264.304574 
L 397.678245 234.680742 
L 398.340959 240.561713 
L 399.003674 262.640974 
L 399.666389 243.221485 
L 400.329104 189.284656 
L 400.991819 257.308389 
L 401.654533 262.457237 
L 402.317248 246.987494 
L 402.979963 257.602898 
L 403.642678 231.257407 
L 404.305392 241.987646 
L 404.968107 257.898217 
L 405.630822 265.494294 
L 406.293537 228.438594 
L 406.956251 181.068615 
L 407.618966 264.586014 
L 408.281681 232.983785 
L 408.944396 256.821231 
L 409.60711 236.937175 
L 410.269825 243.371095 
L 410.93254 246.304271 
L 411.595255 257.927444 
L 412.257969 197.451254 
L 412.920684 209.026696 
L 413.583399 256.137642 
L 414.246114 265.851398 
L 414.908828 257.326281 
L 415.571543 264.631333 
L 416.234258 239.824898 
L 416.896973 250.564404 
L 417.559687 264.994784 
L 418.222402 260.373072 
L 418.885117 261.262867 
L 419.547832 246.743151 
L 420.210546 245.654468 
L 420.873261 219.737621 
L 421.535976 253.391386 
L 422.198691 266.048101 
L 422.861405 250.923851 
L 423.52412 262.174251 
L 424.186835 257.610215 
L 424.84955 254.244643 
L 425.512265 266.251638 
L 426.174979 257.147333 
L 426.837694 262.275349 
L 427.500409 248.986228 
L 428.163124 248.869889 
L 428.825838 262.759598 
L 429.488553 237.517836 
L 430.151268 257.662852 
L 430.813983 238.035137 
L 431.476697 243.027809 
L 432.139412 249.404742 
L 432.802127 246.429892 
L 433.464842 192.220985 
L 434.127556 265.768004 
L 434.790271 264.429041 
L 435.452986 256.145186 
L 436.115701 236.415902 
L 436.778415 256.547612 
L 437.44113 229.531432 
L 438.103845 258.468749 
L 438.76656 263.288848 
L 439.429274 245.00066 
L 440.091989 262.970018 
L 440.754704 254.41757 
L 441.417419 266.206347 
L 442.080133 259.210304 
L 442.742848 185.002303 
L 443.405563 263.316507 
L 444.068278 250.392836 
L 444.730992 255.869562 
L 445.393707 252.028821 
L 446.056422 265.736226 
L 446.719137 233.823229 
L 447.381851 211.240278 
L 448.044566 258.964284 
L 448.707281 265.910811 
L 449.369996 262.000529 
L 450.032711 232.567589 
L 450.695425 138.086496 
L 451.35814 222.296282 
L 452.020855 43.234332 
L 452.68357 260.218829 
L 453.346284 265.483676 
L 454.008999 259.905129 
L 454.671714 234.27666 
L 455.334429 238.686849 
L 455.997143 262.849102 
L 456.659858 240.13977 
L 457.322573 259.407315 
L 457.985288 218.243741 
L 458.648002 263.904357 
L 459.310717 265.353573 
L 459.973432 225.15892 
L 460.636147 264.358414 
L 461.298861 255.350563 
L 461.961576 216.38687 
L 462.624291 263.887043 
L 463.287006 240.34109 
L 463.94972 258.43666 
L 464.612435 266.35794 
L 465.27515 221.504164 
L 465.937865 230.406112 
L 466.600579 261.702736 
L 467.263294 253.463502 
L 467.926009 237.008452 
L 468.588724 238.508101 
L 469.251438 257.33401 
L 469.914153 250.653507 
L 470.576868 236.901898 
L 471.239583 228.738922 
L 471.902298 260.664767 
L 472.565012 258.432101 
L 473.227727 250.161497 
L 473.890442 265.895741 
L 475.215871 254.89761 
L 475.878586 243.485788 
L 476.541301 262.618476 
L 477.204016 261.046593 
L 477.86673 264.990195 
L 478.529445 196.787338 
L 479.19216 263.058386 
L 479.854875 244.692305 
L 480.517589 203.833968 
L 481.180304 256.526815 
L 481.843019 262.360872 
L 482.505734 263.489749 
L 483.168448 221.308681 
L 483.831163 264.853504 
L 484.493878 242.509742 
L 485.156593 266.104179 
L 485.819307 243.681209 
L 486.482022 213.406808 
L 487.144737 265.222753 
L 487.807452 152.845843 
L 488.470166 264.647862 
L 489.132881 193.079099 
L 489.795596 252.48903 
L 490.458311 257.103947 
L 491.121025 257.226472 
L 491.78374 256.703183 
L 492.446455 251.44795 
L 493.10917 263.656379 
L 493.771884 259.874728 
L 494.434599 257.534168 
L 495.097314 262.311902 
L 495.760029 260.211326 
L 496.422744 262.303601 
L 497.085458 249.351187 
L 497.748173 245.805084 
L 498.410888 238.323934 
L 499.073603 210.511113 
L 499.736317 259.699792 
L 500.399032 266.16074 
L 501.061747 254.774194 
L 501.724462 263.545017 
L 502.387176 223.787476 
L 503.049891 230.442091 
L 503.712606 262.954941 
L 504.375321 264.263322 
L 505.038035 261.744059 
L 505.70075 263.90107 
L 506.363465 254.829344 
L 507.02618 210.530674 
L 507.688894 247.13379 
L 508.351609 216.586879 
L 509.014324 262.08113 
L 509.677039 263.441936 
L 510.339753 252.937894 
L 511.002468 265.277234 
L 511.665183 76.195004 
L 512.327898 232.175648 
L 512.990612 265.889686 
L 513.653327 235.078915 
L 514.316042 266.361605 
L 514.978757 244.40926 
L 515.641471 245.769121 
L 516.304186 231.30943 
L 516.966901 256.402647 
L 517.629616 214.441213 
L 518.292331 226.723619 
L 518.955045 262.074358 
L 519.61776 213.239016 
L 520.280475 265.897192 
L 520.94319 240.287514 
L 521.605904 264.590192 
L 522.268619 246.992999 
L 522.931334 244.365662 
L 523.594049 264.906531 
L 524.256763 266.025696 
L 524.919478 260.908 
L 525.582193 249.220517 
L 526.244908 218.11532 
L 526.907622 256.378552 
L 527.570337 252.001199 
L 528.233052 262.045948 
L 528.895767 264.602071 
L 529.558481 259.135953 
L 530.221196 261.101758 
L 530.883911 259.973456 
L 531.546626 240.220339 
L 532.20934 260.50892 
L 532.872055 248.467879 
L 533.53477 247.935307 
L 534.197485 248.282783 
L 534.860199 239.517653 
L 535.522914 260.786454 
L 536.185629 263.517185 
L 536.848344 232.031383 
L 537.511058 236.914531 
L 538.836488 194.053359 
L 539.499203 261.556427 
L 540.161917 257.746578 
L 540.824632 218.598312 
L 541.487347 238.563931 
L 542.150062 262.172206 
L 542.812777 231.550384 
L 543.475491 255.994842 
L 544.138206 263.080361 
L 544.800921 264.689046 
L 545.463636 247.061022 
L 546.12635 218.870925 
L 546.789065 245.103678 
L 547.45178 171.719197 
L 548.114495 255.958979 
L 548.777209 266.005764 
L 549.439924 239.542961 
L 550.102639 253.948376 
L 550.765354 264.819271 
L 551.428068 261.273713 
L 552.090783 264.942147 
L 552.753498 248.517219 
L 553.416213 251.369187 
L 554.078927 262.762004 
L 554.741642 264.871563 
L 555.404357 129.742292 
L 556.067072 264.055963 
L 556.729786 45.364569 
L 557.392501 236.582576 
L 558.055216 258.958322 
L 558.717931 229.780222 
L 559.380645 228.769042 
L 560.04336 263.344216 
L 560.706075 263.90477 
L 561.36879 263.112178 
L 562.031504 262.561485 
L 562.694219 264.381175 
L 563.356934 163.899411 
L 564.019649 220.277184 
L 564.682364 154.463049 
L 565.345078 246.336902 
L 566.007793 205.631019 
L 566.670508 207.500585 
L 567.333223 261.682596 
L 567.995937 228.9724 
L 568.658652 262.476087 
L 569.321367 175.597052 
L 569.984082 256.615961 
L 570.646796 216.856583 
L 571.309511 253.608828 
L 571.972226 265.13249 
L 572.634941 244.302293 
L 573.297655 257.792142 
L 573.96037 252.252507 
L 574.623085 253.124492 
L 575.2858 212.877606 
L 575.948514 259.3206 
L 576.611229 196.971429 
L 577.273944 259.707247 
L 577.936659 259.80557 
L 578.599373 261.859773 
L 579.262088 241.840475 
L 579.924803 238.156362 
L 580.587518 251.769746 
L 581.250232 237.276587 
L 581.912947 265.503899 
L 582.575662 252.890425 
L 583.238377 255.888163 
L 583.901091 260.931025 
L 584.563806 262.160868 
L 585.226521 252.735687 
L 585.889236 220.833059 
L 586.55195 246.427948 
L 587.214665 234.06422 
L 587.87738 234.244066 
L 588.540095 241.36383 
L 589.20281 228.803738 
L 589.865524 265.822117 
L 590.528239 241.02489 
L 591.190954 256.755397 
L 591.853669 252.294048 
L 592.516383 225.938756 
L 593.841813 229.185381 
L 594.504528 264.897742 
L 595.167242 201.82195 
L 595.829957 261.46024 
L 596.492672 260.526731 
L 597.155387 248.848664 
L 597.818101 265.699502 
L 598.480816 259.205152 
L 599.143531 250.039304 
L 599.806246 227.328502 
L 600.46896 258.721766 
L 601.131675 253.58021 
L 601.79439 257.360037 
L 602.457105 262.055012 
L 603.119819 153.378335 
L 603.782534 233.500269 
L 604.445249 222.001609 
L 605.107964 183.388664 
L 605.770678 224.075018 
L 606.433393 255.470808 
L 607.096108 74.207944 
L 607.096108 74.207944 
" clip-path="url(#pdc6de95474)" style="fill: none; stroke: #94a3b8; stroke-opacity: 0.5; stroke-width: 0.8; stroke-linecap: square"/>
   </g>
   <g id="line2d_36">
    <path d="M 110.06004 233.549936 
L 110.722755 233.773417 
L 111.38547 234.58847 
L 112.048184 234.228218 
L 112.710899 234.462751 
L 113.373614 234.362902 
L 114.036329 233.572671 
L 114.699043 233.870372 
L 115.361758 234.459049 
L 116.024473 233.364969 
L 116.687188 233.63213 
L 117.349902 232.901928 
L 118.012617 233.437944 
L 118.675332 233.685185 
L 119.338047 233.547416 
L 120.000761 233.73118 
L 120.663476 234.685556 
L 121.326191 234.620439 
L 121.988906 233.817768 
L 122.651621 234.249746 
L 123.314335 234.149307 
L 123.97705 233.208183 
L 124.639765 232.028766 
L 125.965194 232.738821 
L 126.627909 233.66913 
L 127.290624 233.596381 
L 127.953339 234.859389 
L 128.616053 234.794313 
L 129.278768 234.922257 
L 129.941483 234.599057 
L 130.604198 234.675805 
L 131.929627 236.327653 
L 132.592342 236.36322 
L 133.255057 235.61807 
L 133.917771 236.301875 
L 134.580486 237.331297 
L 135.243201 236.399361 
L 135.905916 237.688361 
L 136.56863 237.247267 
L 137.231345 238.771269 
L 137.89406 238.682665 
L 138.556775 239.602706 
L 139.219489 239.440085 
L 139.882204 241.793195 
L 140.544919 242.315283 
L 141.870348 242.422432 
L 142.533063 243.893926 
L 143.195778 244.528214 
L 143.858493 244.266161 
L 144.521208 243.120622 
L 145.183922 243.636914 
L 145.846637 243.570219 
L 146.509352 243.679273 
L 147.172067 244.279599 
L 147.834781 245.2855 
L 148.497496 245.046318 
L 149.160211 245.53307 
L 149.822926 245.479379 
L 150.48564 244.314863 
L 151.148355 244.516099 
L 151.81107 244.158481 
L 152.473785 242.261559 
L 153.136499 241.141187 
L 153.799214 241.027422 
L 154.461929 240.474186 
L 155.124644 240.791688 
L 155.787358 240.319657 
L 156.450073 240.375614 
L 157.112788 241.348229 
L 157.775503 242.590971 
L 158.438217 242.883451 
L 159.100932 243.430844 
L 160.426362 242.488958 
L 161.089076 242.51604 
L 162.414506 241.150461 
L 163.739935 240.823362 
L 165.72808 240.951321 
L 166.390794 241.99192 
L 167.053509 241.941262 
L 167.716224 239.755237 
L 168.378939 241.572402 
L 169.041654 241.30421 
L 169.704368 241.915638 
L 171.029798 242.000305 
L 172.355227 243.09689 
L 173.680657 242.78873 
L 174.343372 242.008071 
L 175.006086 241.994567 
L 175.668801 241.704771 
L 176.331516 241.773353 
L 176.994231 242.09418 
L 177.656945 243.182505 
L 178.982375 243.084377 
L 179.64509 243.085721 
L 180.307804 243.377151 
L 180.970519 242.983953 
L 181.633234 243.151624 
L 182.295949 243.811159 
L 182.958663 242.97884 
L 183.621378 244.505963 
L 184.946808 244.554433 
L 185.609522 246.477746 
L 186.272237 246.747194 
L 186.934952 245.704421 
L 187.597667 245.616914 
L 188.260381 246.348583 
L 188.923096 246.592466 
L 189.585811 246.394628 
L 190.911241 245.849933 
L 192.23667 243.842066 
L 193.5621 245.153485 
L 194.224814 245.220037 
L 194.887529 246.128507 
L 195.550244 244.940127 
L 196.212959 245.332281 
L 196.875673 245.280325 
L 197.538388 244.508615 
L 198.201103 244.578997 
L 198.863818 243.398524 
L 199.526532 243.438038 
L 200.189247 243.262579 
L 200.851962 245.406266 
L 202.177391 245.243317 
L 202.840106 244.895132 
L 204.165536 244.906917 
L 204.82825 244.871054 
L 205.490965 244.66998 
L 206.15368 243.714769 
L 206.816395 243.313318 
L 207.479109 242.602515 
L 208.141824 242.128536 
L 208.804539 239.910284 
L 209.467254 240.249869 
L 210.129968 239.097278 
L 210.792683 238.633322 
L 211.455398 238.851719 
L 212.118113 238.815865 
L 212.780827 237.992473 
L 213.443542 238.06481 
L 214.106257 238.310334 
L 214.768972 238.295572 
L 215.431687 238.011674 
L 216.094401 238.799435 
L 216.757116 238.346452 
L 217.419831 236.964069 
L 218.082546 236.039111 
L 218.74526 236.148108 
L 220.07069 238.073898 
L 220.733405 238.663058 
L 221.396119 237.44063 
L 222.058834 237.40778 
L 224.046978 238.401605 
L 224.709693 239.37535 
L 225.372408 239.32431 
L 226.697837 238.618274 
L 227.360552 238.401016 
L 228.023267 238.355348 
L 228.685982 240.03015 
L 230.011411 240.227618 
L 230.674126 240.846248 
L 231.336841 240.583552 
L 231.999555 241.807247 
L 232.66227 241.8627 
L 233.324985 242.066563 
L 233.9877 241.598089 
L 234.650414 240.24665 
L 235.313129 240.584773 
L 235.975844 240.735511 
L 237.963988 240.621167 
L 238.626703 240.829264 
L 239.289418 241.474214 
L 239.952133 241.336226 
L 240.614847 242.710082 
L 241.277562 243.673031 
L 241.940277 246.177978 
L 242.602992 246.239298 
L 243.265706 247.443924 
L 243.928421 248.282974 
L 244.591136 248.062531 
L 245.253851 248.082078 
L 245.916565 248.796726 
L 246.57928 248.470648 
L 247.241995 248.401594 
L 247.90471 248.210904 
L 248.567424 246.867049 
L 249.230139 246.738898 
L 249.892854 247.346602 
L 251.218283 249.846337 
L 251.880998 249.832914 
L 252.543713 249.938184 
L 253.206428 249.648675 
L 253.869142 249.685055 
L 254.531857 249.950547 
L 255.857287 248.981523 
L 256.520001 248.91604 
L 257.182716 248.162506 
L 257.845431 247.137574 
L 258.508146 247.50474 
L 259.17086 247.649351 
L 259.833575 246.659887 
L 260.49629 246.849705 
L 261.159005 246.744375 
L 261.82172 246.938956 
L 262.484434 244.543106 
L 263.147149 244.421906 
L 263.809864 244.464187 
L 264.472579 244.798374 
L 265.135293 244.708623 
L 265.798008 243.107071 
L 266.460723 243.233532 
L 267.123438 243.053511 
L 267.786152 244.233066 
L 268.448867 244.271089 
L 269.111582 244.128514 
L 270.437011 242.952377 
L 271.099726 242.846418 
L 271.762441 242.90027 
L 272.425156 243.319225 
L 273.08787 242.084239 
L 273.750585 242.151254 
L 274.4133 241.764481 
L 275.076015 241.783306 
L 275.738729 241.248649 
L 276.401444 240.387072 
L 277.064159 239.23113 
L 277.726874 239.499483 
L 278.389588 238.029737 
L 279.052303 237.092866 
L 279.715018 237.00876 
L 280.377733 235.718177 
L 281.040447 235.628448 
L 281.703162 236.915024 
L 282.365877 236.979736 
L 283.028592 236.575962 
L 283.691306 236.858289 
L 284.354021 235.829759 
L 285.016736 235.272281 
L 285.679451 235.08581 
L 286.342166 235.620705 
L 287.00488 235.164241 
L 287.667595 235.974172 
L 288.33031 236.014366 
L 288.993025 236.460169 
L 289.655739 235.99719 
L 290.318454 236.677116 
L 290.981169 237.59482 
L 291.643884 237.569443 
L 292.306598 236.94344 
L 292.969313 238.253219 
L 293.632028 237.878878 
L 294.294743 237.80586 
L 294.957457 236.259217 
L 295.620172 238.743332 
L 296.282887 238.651244 
L 296.945602 238.725447 
L 297.608316 238.146189 
L 298.271031 237.933121 
L 298.933746 239.387247 
L 299.596461 239.196491 
L 300.259175 239.914598 
L 300.92189 236.260096 
L 301.584605 236.418822 
L 302.24732 236.158535 
L 302.910034 235.654416 
L 303.572749 235.847028 
L 304.898179 235.731152 
L 305.560893 234.013083 
L 306.223608 235.567035 
L 306.886323 235.090838 
L 307.549038 235.55603 
L 308.211753 235.232051 
L 308.874467 235.531497 
L 309.537182 235.995181 
L 310.199897 233.064712 
L 310.862612 233.028816 
L 312.188041 234.963963 
L 312.850756 235.327505 
L 313.513471 236.373111 
L 314.176185 236.438991 
L 314.8389 235.853263 
L 315.501615 235.895762 
L 316.16433 236.145214 
L 317.489759 235.84825 
L 318.152474 236.316458 
L 318.815189 235.985797 
L 319.477903 235.379876 
L 320.140618 235.011089 
L 320.803333 234.304264 
L 321.466048 234.758807 
L 323.454192 234.88111 
L 324.116907 235.155304 
L 324.779621 234.77362 
L 325.442336 235.103914 
L 326.105051 234.062873 
L 327.43048 234.423396 
L 328.093195 236.032209 
L 328.75591 235.269182 
L 329.418625 234.736948 
L 330.744054 234.152098 
L 332.069484 234.375769 
L 332.732199 234.291872 
L 333.394913 234.054061 
L 334.057628 237.871086 
L 334.720343 237.486678 
L 335.383058 237.99037 
L 336.045772 238.969324 
L 336.708487 239.393943 
L 337.371202 239.423369 
L 338.033917 238.661159 
L 338.696631 239.716031 
L 339.359346 239.759658 
L 340.022061 240.267393 
L 340.684776 240.382617 
L 341.34749 239.960554 
L 342.010205 239.812147 
L 342.67292 238.293762 
L 343.335635 242.402981 
L 343.998349 242.374239 
L 344.661064 241.663691 
L 345.323779 241.557383 
L 345.986494 240.753769 
L 346.649208 241.296498 
L 347.311923 240.777964 
L 347.974638 241.685506 
L 348.637353 241.548266 
L 349.300067 241.882976 
L 349.962782 239.569517 
L 350.625497 240.630214 
L 351.288212 240.745156 
L 352.613641 241.644791 
L 353.939071 243.117328 
L 354.601786 243.462417 
L 355.927215 240.640109 
L 357.252645 240.68834 
L 357.915359 240.870868 
L 358.578074 241.30428 
L 359.240789 242.287873 
L 360.566218 241.712014 
L 361.228933 241.646032 
L 361.891648 241.75787 
L 362.554363 241.682348 
L 363.879792 242.750621 
L 364.542507 242.719878 
L 365.205222 242.521318 
L 365.867936 242.850492 
L 366.530651 242.587723 
L 367.193366 242.496071 
L 369.18151 242.712266 
L 369.844225 242.195217 
L 370.50694 242.319292 
L 371.832369 243.741108 
L 372.495084 243.741514 
L 373.157799 243.314352 
L 373.820513 242.64545 
L 374.483228 241.57773 
L 375.145943 241.779811 
L 375.808658 243.201527 
L 376.471372 242.811039 
L 377.134087 242.72439 
L 377.796802 243.439692 
L 378.459517 242.154953 
L 379.122232 242.937347 
L 379.784946 242.731703 
L 380.447661 243.552833 
L 381.110376 242.390129 
L 381.773091 242.512689 
L 382.435805 241.473369 
L 383.09852 243.380731 
L 383.761235 243.315011 
L 384.42395 242.252194 
L 385.086664 242.073628 
L 385.749379 242.291051 
L 387.074809 242.22233 
L 387.737523 241.458871 
L 388.400238 242.67944 
L 389.062953 244.500569 
L 389.725668 244.184029 
L 390.388382 244.149405 
L 391.051097 244.505851 
L 391.713812 243.700041 
L 392.376527 241.908176 
L 393.039241 242.40233 
L 394.364671 242.034977 
L 395.027386 242.623813 
L 395.6901 242.843011 
L 396.352815 242.638255 
L 397.01553 242.85809 
L 397.678245 242.444139 
L 398.340959 242.243753 
L 399.666389 242.375896 
L 400.329104 241.024965 
L 400.991819 241.150108 
L 401.654533 241.121355 
L 402.317248 240.971953 
L 402.979963 241.338719 
L 403.642678 240.715875 
L 404.968107 240.334111 
L 405.630822 240.653711 
L 406.293537 240.384902 
L 406.956251 239.407193 
L 407.618966 241.301577 
L 408.281681 240.911887 
L 408.944396 241.253657 
L 409.60711 241.131173 
L 410.269825 240.870516 
L 410.93254 241.191418 
L 411.595255 242.503771 
L 412.257969 241.253934 
L 412.920684 240.380694 
L 413.583399 240.225788 
L 414.246114 241.467916 
L 414.908828 241.426606 
L 415.571543 242.532718 
L 416.896973 242.496826 
L 417.559687 243.556012 
L 418.222402 243.77574 
L 418.885117 243.681117 
L 419.547832 243.466107 
L 420.873261 243.489285 
L 422.198691 243.624401 
L 422.861405 243.772359 
L 423.52412 243.755825 
L 424.186835 244.25799 
L 424.84955 245.013822 
L 425.512265 246.86677 
L 426.174979 246.833627 
L 426.837694 247.240448 
L 427.500409 247.258977 
L 428.163124 247.067254 
L 428.825838 247.7465 
L 429.488553 247.438123 
L 430.151268 247.305288 
L 431.476697 247.421698 
L 432.139412 247.156974 
L 434.790271 247.488497 
L 435.452986 247.671651 
L 436.115701 247.247911 
L 436.778415 247.753715 
L 437.44113 247.50459 
L 438.76656 247.471892 
L 439.429274 247.803133 
L 440.091989 249.441162 
L 440.754704 249.237793 
L 441.417419 249.902244 
L 442.080133 249.950025 
L 442.742848 248.911328 
L 443.405563 249.310236 
L 444.068278 249.392007 
L 444.730992 249.35085 
L 446.056422 251.576592 
L 446.719137 251.130303 
L 447.381851 250.038081 
L 448.707281 250.096431 
L 449.369996 250.539943 
L 450.032711 250.180007 
L 450.695425 247.641841 
L 451.35814 246.880305 
L 452.020855 242.519735 
L 452.68357 242.789248 
L 453.346284 243.185832 
L 454.008999 243.989183 
L 454.671714 243.606888 
L 455.334429 243.059663 
L 455.997143 243.298168 
L 456.659858 242.857478 
L 457.322573 242.89342 
L 457.985288 242.173402 
L 458.648002 242.126457 
L 459.310717 242.290582 
L 459.973432 241.548253 
L 460.636147 241.855697 
L 461.298861 241.98531 
L 461.961576 241.057856 
L 462.624291 241.58524 
L 463.287006 241.238804 
L 464.612435 242.113438 
L 465.27515 241.555426 
L 465.937865 241.23495 
L 466.600579 242.624585 
L 467.263294 242.378495 
L 467.926009 241.830084 
L 468.588724 241.477342 
L 469.251438 241.895704 
L 469.914153 241.777822 
L 470.576868 241.925231 
L 471.239583 241.330635 
L 471.902298 241.278153 
L 472.565012 241.546782 
L 473.227727 241.290611 
L 473.890442 241.520175 
L 475.215871 241.32472 
L 475.878586 242.49439 
L 476.541301 242.480429 
L 477.86673 242.875917 
L 478.529445 241.771087 
L 479.19216 241.71753 
L 479.854875 241.934912 
L 481.180304 241.738036 
L 483.168448 241.471644 
L 483.831163 244.006984 
L 484.493878 244.411253 
L 485.156593 248.86865 
L 485.819307 248.537898 
L 486.482022 247.49636 
L 487.144737 247.602713 
L 487.807452 245.974097 
L 488.470166 246.493317 
L 489.132881 245.097917 
L 489.795596 245.344902 
L 490.458311 245.298835 
L 491.121025 246.078489 
L 491.78374 245.934466 
L 492.446455 245.656353 
L 493.10917 246.426302 
L 493.771884 246.336629 
L 494.434599 246.380301 
L 495.097314 247.298801 
L 495.760029 247.225287 
L 496.422744 247.664537 
L 497.085458 247.482828 
L 497.748173 247.071771 
L 498.410888 247.408166 
L 499.073603 247.010266 
L 499.736317 246.970207 
L 501.061747 247.579467 
L 501.724462 248.080205 
L 502.387176 247.409275 
L 503.049891 247.005046 
L 503.712606 247.526107 
L 504.375321 248.236595 
L 505.70075 248.36756 
L 506.363465 248.460917 
L 507.02618 247.353616 
L 507.688894 247.081366 
L 508.351609 246.315151 
L 509.014324 246.687058 
L 509.677039 246.703527 
L 510.339753 246.541353 
L 511.002468 246.547094 
L 511.665183 244.135247 
L 512.327898 243.517593 
L 512.990612 243.94154 
L 513.653327 244.566439 
L 514.316042 244.763135 
L 515.641471 244.04969 
L 516.304186 244.249705 
L 516.966901 244.080688 
L 517.629616 243.519317 
L 518.292331 242.731706 
L 518.955045 243.099569 
L 520.280475 243.109702 
L 520.94319 244.858536 
L 521.605904 244.857382 
L 522.268619 245.93566 
L 522.931334 245.773193 
L 524.919478 246.189325 
L 525.582193 246.144777 
L 526.244908 245.233955 
L 528.233052 245.048053 
L 528.895767 245.135868 
L 529.558481 245.072515 
L 530.883911 245.590894 
L 531.546626 245.628822 
L 532.20934 246.628779 
L 532.872055 246.40414 
L 533.53477 246.039632 
L 534.197485 245.909803 
L 534.860199 245.429256 
L 536.185629 246.830738 
L 537.511058 245.665291 
L 538.173773 244.732642 
L 538.836488 243.335688 
L 539.499203 243.47023 
L 540.161917 244.414548 
L 540.824632 243.843838 
L 541.487347 244.283379 
L 542.150062 244.285201 
L 542.812777 243.64737 
L 544.138206 243.664571 
L 544.800921 247.434452 
L 545.463636 247.73216 
L 546.12635 246.791784 
L 546.789065 246.99228 
L 547.45178 245.099432 
L 548.114495 245.330426 
L 548.777209 245.735159 
L 549.439924 245.899829 
L 550.102639 245.850744 
L 550.765354 246.858305 
L 551.428068 247.549307 
L 552.090783 247.606663 
L 552.753498 248.312227 
L 553.416213 248.021667 
L 554.078927 248.471157 
L 554.741642 248.476784 
L 555.404357 246.13177 
L 556.067072 246.525576 
L 556.729786 242.134737 
L 557.392501 241.545874 
L 558.055216 241.506881 
L 558.717931 241.118075 
L 560.706075 241.708534 
L 562.694219 241.793951 
L 563.356934 239.849904 
L 564.019649 239.055979 
L 564.682364 237.340833 
L 565.345078 237.057393 
L 566.670508 235.391961 
L 567.333223 235.659957 
L 567.995937 235.449052 
L 568.658652 235.482845 
L 569.321367 233.724442 
L 569.984082 234.216134 
L 570.646796 233.814975 
L 571.309511 234.584918 
L 571.972226 236.006501 
L 572.634941 235.661418 
L 573.297655 235.66233 
L 573.96037 236.335413 
L 574.623085 236.626625 
L 575.2858 235.640733 
L 575.948514 236.196137 
L 576.611229 235.015669 
L 577.936659 234.850537 
L 578.599373 235.146512 
L 579.262088 235.605903 
L 579.924803 235.466957 
L 580.587518 237.067968 
L 581.250232 236.69432 
L 581.912947 236.684282 
L 582.575662 236.951232 
L 583.238377 236.990027 
L 585.226521 236.685876 
L 585.889236 236.132193 
L 586.55195 236.033368 
L 587.87738 234.846863 
L 588.540095 237.079294 
L 589.20281 236.374249 
L 589.865524 240.7834 
L 590.528239 240.872246 
L 591.190954 240.828188 
L 591.853669 241.278464 
L 592.516383 241.221859 
L 593.841813 239.809954 
L 594.504528 239.845666 
L 595.167242 238.630875 
L 595.829957 238.572456 
L 596.492672 240.505003 
L 597.155387 241.076432 
L 597.818101 243.301161 
L 598.480816 243.558526 
L 599.143531 244.446692 
L 599.806246 244.84325 
L 600.46896 244.784034 
L 601.131675 245.27619 
L 601.79439 245.173869 
L 602.457105 246.903028 
L 603.119819 244.838276 
L 603.782534 245.171149 
L 604.445249 244.539005 
L 605.107964 242.904128 
L 605.770678 242.499583 
L 606.433393 242.453156 
L 607.096108 238.892265 
L 607.096108 238.892265 
" clip-path="url(#pdc6de95474)" style="fill: none; stroke: #10b981; stroke-width: 2.2; stroke-linecap: square"/>
   </g>
   <g id="patch_3">
    <path d="M 51.111563 277.517969 
L 51.111563 32.077969 
" style="fill: none; stroke: #000000; stroke-width: 0.8; stroke-linejoin: miter; stroke-linecap: square"/>
   </g>
   <g id="patch_4">
    <path d="M 51.111563 277.517969 
L 633.571562 277.517969 
" style="fill: none; stroke: #000000; stroke-width: 0.8; stroke-linejoin: miter; stroke-linecap: square"/>
   </g>
   <g id="text_20">
    <!-- Training loss — 800 steps, batch=1, grad_accum=4 -->
    <g transform="translate(155.542734 17.077969) scale(0.13 -0.13)">
     <defs>
      <path id="DejaVuSans-Bold-54" d="M 31 4666 
L 4331 4666 
L 4331 3756 
L 2784 3756 
L 2784 0 
L 1581 0 
L 1581 3756 
L 31 3756 
L 31 4666 
z
" transform="scale(0.015625)"/>
      <path id="DejaVuSans-Bold-72" d="M 3138 2547 
Q 2991 2616 2845 2648 
Q 2700 2681 2553 2681 
Q 2122 2681 1889 2404 
Q 1656 2128 1656 1613 
L 1656 0 
L 538 0 
L 538 3500 
L 1656 3500 
L 1656 2925 
Q 1872 3269 2151 3426 
Q 2431 3584 2822 3584 
Q 2878 3584 2943 3579 
Q 3009 3575 3134 3559 
L 3138 2547 
z
" transform="scale(0.015625)"/>
      <path id="DejaVuSans-Bold-61" d="M 2106 1575 
Q 1756 1575 1579 1456 
Q 1403 1338 1403 1106 
Q 1403 894 1545 773 
Q 1688 653 1941 653 
Q 2256 653 2472 879 
Q 2688 1106 2688 1447 
L 2688 1575 
L 2106 1575 
z
M 3816 1997 
L 3816 0 
L 2688 0 
L 2688 519 
Q 2463 200 2181 54 
Q 1900 -91 1497 -91 
Q 953 -91 614 226 
Q 275 544 275 1050 
Q 275 1666 698 1953 
Q 1122 2241 2028 2241 
L 2688 2241 
L 2688 2328 
Q 2688 2594 2478 2717 
Q 2269 2841 1825 2841 
Q 1466 2841 1156 2769 
Q 847 2697 581 2553 
L 581 3406 
Q 941 3494 1303 3539 
Q 1666 3584 2028 3584 
Q 2975 3584 3395 3211 
Q 3816 2838 3816 1997 
z
" transform="scale(0.015625)"/>
      <path id="DejaVuSans-Bold-69" d="M 538 3500 
L 1656 3500 
L 1656 0 
L 538 0 
L 538 3500 
z
M 538 4863 
L 1656 4863 
L 1656 3950 
L 538 3950 
L 538 4863 
z
" transform="scale(0.015625)"/>
      <path id="DejaVuSans-Bold-6e" d="M 4056 2131 
L 4056 0 
L 2931 0 
L 2931 347 
L 2931 1631 
Q 2931 2084 2911 2256 
Q 2891 2428 2841 2509 
Q 2775 2619 2662 2680 
Q 2550 2741 2406 2741 
Q 2056 2741 1856 2470 
Q 1656 2200 1656 1722 
L 1656 0 
L 538 0 
L 538 3500 
L 1656 3500 
L 1656 2988 
Q 1909 3294 2193 3439 
Q 2478 3584 2822 3584 
Q 3428 3584 3742 3212 
Q 4056 2841 4056 2131 
z
" transform="scale(0.015625)"/>
      <path id="DejaVuSans-Bold-67" d="M 2919 594 
Q 2688 288 2409 144 
Q 2131 0 1766 0 
Q 1125 0 706 504 
Q 288 1009 288 1791 
Q 288 2575 706 3076 
Q 1125 3578 1766 3578 
Q 2131 3578 2409 3434 
Q 2688 3291 2919 2981 
L 2919 3500 
L 4044 3500 
L 4044 353 
Q 4044 -491 3511 -936 
Q 2978 -1381 1966 -1381 
Q 1638 -1381 1331 -1331 
Q 1025 -1281 716 -1178 
L 716 -306 
Q 1009 -475 1290 -558 
Q 1572 -641 1856 -641 
Q 2406 -641 2662 -400 
Q 2919 -159 2919 353 
L 2919 594 
z
M 2181 2772 
Q 1834 2772 1640 2515 
Q 1447 2259 1447 1791 
Q 1447 1309 1634 1061 
Q 1822 813 2181 813 
Q 2531 813 2725 1069 
Q 2919 1325 2919 1791 
Q 2919 2259 2725 2515 
Q 2531 2772 2181 2772 
z
" transform="scale(0.015625)"/>
      <path id="DejaVuSans-Bold-20" transform="scale(0.015625)"/>
      <path id="DejaVuSans-Bold-6c" d="M 538 4863 
L 1656 4863 
L 1656 0 
L 538 0 
L 538 4863 
z
" transform="scale(0.015625)"/>
      <path id="DejaVuSans-Bold-6f" d="M 2203 2784 
Q 1831 2784 1636 2517 
Q 1441 2250 1441 1747 
Q 1441 1244 1636 976 
Q 1831 709 2203 709 
Q 2569 709 2762 976 
Q 2956 1244 2956 1747 
Q 2956 2250 2762 2517 
Q 2569 2784 2203 2784 
z
M 2203 3584 
Q 3106 3584 3614 3096 
Q 4122 2609 4122 1747 
Q 4122 884 3614 396 
Q 3106 -91 2203 -91 
Q 1297 -91 786 396 
Q 275 884 275 1747 
Q 275 2609 786 3096 
Q 1297 3584 2203 3584 
z
" transform="scale(0.015625)"/>
      <path id="DejaVuSans-Bold-73" d="M 3272 3391 
L 3272 2541 
Q 2913 2691 2578 2766 
Q 2244 2841 1947 2841 
Q 1628 2841 1473 2761 
Q 1319 2681 1319 2516 
Q 1319 2381 1436 2309 
Q 1553 2238 1856 2203 
L 2053 2175 
Q 2913 2066 3209 1816 
Q 3506 1566 3506 1031 
Q 3506 472 3093 190 
Q 2681 -91 1863 -91 
Q 1516 -91 1145 -36 
Q 775 19 384 128 
L 384 978 
Q 719 816 1070 734 
Q 1422 653 1784 653 
Q 2113 653 2278 743 
Q 2444 834 2444 1013 
Q 2444 1163 2330 1236 
Q 2216 1309 1875 1350 
L 1678 1375 
Q 931 1469 631 1722 
Q 331 1975 331 2491 
Q 331 3047 712 3315 
Q 1094 3584 1881 3584 
Q 2191 3584 2531 3537 
Q 2872 3491 3272 3391 
z
" transform="scale(0.015625)"/>
      <path id="DejaVuSans-Bold-2014" d="M 344 2156 
L 6056 2156 
L 6056 1350 
L 344 1350 
L 344 2156 
z
" transform="scale(0.015625)"/>
      <path id="DejaVuSans-Bold-38" d="M 2228 2088 
Q 1891 2088 1709 1903 
Q 1528 1719 1528 1375 
Q 1528 1031 1709 848 
Q 1891 666 2228 666 
Q 2563 666 2741 848 
Q 2919 1031 2919 1375 
Q 2919 1722 2741 1905 
Q 2563 2088 2228 2088 
z
M 1350 2484 
Q 925 2613 709 2878 
Q 494 3144 494 3541 
Q 494 4131 934 4440 
Q 1375 4750 2228 4750 
Q 3075 4750 3515 4442 
Q 3956 4134 3956 3541 
Q 3956 3144 3739 2878 
Q 3522 2613 3097 2484 
Q 3572 2353 3814 2058 
Q 4056 1763 4056 1313 
Q 4056 619 3595 264 
Q 3134 -91 2228 -91 
Q 1319 -91 855 264 
Q 391 619 391 1313 
Q 391 1763 633 2058 
Q 875 2353 1350 2484 
z
M 1631 3419 
Q 1631 3141 1786 2991 
Q 1941 2841 2228 2841 
Q 2509 2841 2662 2991 
Q 2816 3141 2816 3419 
Q 2816 3697 2662 3845 
Q 2509 3994 2228 3994 
Q 1941 3994 1786 3844 
Q 1631 3694 1631 3419 
z
" transform="scale(0.015625)"/>
      <path id="DejaVuSans-Bold-30" d="M 2944 2338 
Q 2944 3213 2780 3570 
Q 2616 3928 2228 3928 
Q 1841 3928 1675 3570 
Q 1509 3213 1509 2338 
Q 1509 1453 1675 1090 
Q 1841 728 2228 728 
Q 2613 728 2778 1090 
Q 2944 1453 2944 2338 
z
M 4147 2328 
Q 4147 1169 3647 539 
Q 3147 -91 2228 -91 
Q 1306 -91 806 539 
Q 306 1169 306 2328 
Q 306 3491 806 4120 
Q 1306 4750 2228 4750 
Q 3147 4750 3647 4120 
Q 4147 3491 4147 2328 
z
" transform="scale(0.015625)"/>
      <path id="DejaVuSans-Bold-74" d="M 1759 4494 
L 1759 3500 
L 2913 3500 
L 2913 2700 
L 1759 2700 
L 1759 1216 
Q 1759 972 1856 886 
Q 1953 800 2241 800 
L 2816 800 
L 2816 0 
L 1856 0 
Q 1194 0 917 276 
Q 641 553 641 1216 
L 641 2700 
L 84 2700 
L 84 3500 
L 641 3500 
L 641 4494 
L 1759 4494 
z
" transform="scale(0.015625)"/>
      <path id="DejaVuSans-Bold-65" d="M 4031 1759 
L 4031 1441 
L 1416 1441 
Q 1456 1047 1700 850 
Q 1944 653 2381 653 
Q 2734 653 3104 758 
Q 3475 863 3866 1075 
L 3866 213 
Q 3469 63 3072 -14 
Q 2675 -91 2278 -91 
Q 1328 -91 801 392 
Q 275 875 275 1747 
Q 275 2603 792 3093 
Q 1309 3584 2216 3584 
Q 3041 3584 3536 3087 
Q 4031 2591 4031 1759 
z
M 2881 2131 
Q 2881 2450 2695 2645 
Q 2509 2841 2209 2841 
Q 1884 2841 1681 2658 
Q 1478 2475 1428 2131 
L 2881 2131 
z
" transform="scale(0.015625)"/>
      <path id="DejaVuSans-Bold-70" d="M 1656 506 
L 1656 -1331 
L 538 -1331 
L 538 3500 
L 1656 3500 
L 1656 2988 
Q 1888 3294 2169 3439 
Q 2450 3584 2816 3584 
Q 3463 3584 3878 3070 
Q 4294 2556 4294 1747 
Q 4294 938 3878 423 
Q 3463 -91 2816 -91 
Q 2450 -91 2169 54 
Q 1888 200 1656 506 
z
M 2400 2772 
Q 2041 2772 1848 2508 
Q 1656 2244 1656 1747 
Q 1656 1250 1848 986 
Q 2041 722 2400 722 
Q 2759 722 2948 984 
Q 3138 1247 3138 1747 
Q 3138 2247 2948 2509 
Q 2759 2772 2400 2772 
z
" transform="scale(0.015625)"/>
      <path id="DejaVuSans-Bold-2c" d="M 653 1209 
L 1778 1209 
L 1778 256 
L 1006 -909 
L 341 -909 
L 653 256 
L 653 1209 
z
" transform="scale(0.015625)"/>
      <path id="DejaVuSans-Bold-62" d="M 2400 722 
Q 2759 722 2948 984 
Q 3138 1247 3138 1747 
Q 3138 2247 2948 2509 
Q 2759 2772 2400 2772 
Q 2041 2772 1848 2508 
Q 1656 2244 1656 1747 
Q 1656 1250 1848 986 
Q 2041 722 2400 722 
z
M 1656 2988 
Q 1888 3294 2169 3439 
Q 2450 3584 2816 3584 
Q 3463 3584 3878 3070 
Q 4294 2556 4294 1747 
Q 4294 938 3878 423 
Q 3463 -91 2816 -91 
Q 2450 -91 2169 54 
Q 1888 200 1656 506 
L 1656 0 
L 538 0 
L 538 4863 
L 1656 4863 
L 1656 2988 
z
" transform="scale(0.015625)"/>
      <path id="DejaVuSans-Bold-63" d="M 3366 3391 
L 3366 2478 
Q 3138 2634 2908 2709 
Q 2678 2784 2431 2784 
Q 1963 2784 1702 2511 
Q 1441 2238 1441 1747 
Q 1441 1256 1702 982 
Q 1963 709 2431 709 
Q 2694 709 2930 787 
Q 3166 866 3366 1019 
L 3366 103 
Q 3103 6 2833 -42 
Q 2563 -91 2291 -91 
Q 1344 -91 809 395 
Q 275 881 275 1747 
Q 275 2613 809 3098 
Q 1344 3584 2291 3584 
Q 2566 3584 2833 3536 
Q 3100 3488 3366 3391 
z
" transform="scale(0.015625)"/>
      <path id="DejaVuSans-Bold-68" d="M 4056 2131 
L 4056 0 
L 2931 0 
L 2931 347 
L 2931 1625 
Q 2931 2084 2911 2256 
Q 2891 2428 2841 2509 
Q 2775 2619 2662 2680 
Q 2550 2741 2406 2741 
Q 2056 2741 1856 2470 
Q 1656 2200 1656 1722 
L 1656 0 
L 538 0 
L 538 4863 
L 1656 4863 
L 1656 2988 
Q 1909 3294 2193 3439 
Q 2478 3584 2822 3584 
Q 3428 3584 3742 3212 
Q 4056 2841 4056 2131 
z
" transform="scale(0.015625)"/>
      <path id="DejaVuSans-Bold-3d" d="M 678 3084 
L 4684 3084 
L 4684 2350 
L 678 2350 
L 678 3084 
z
M 678 1663 
L 4684 1663 
L 4684 922 
L 678 922 
L 678 1663 
z
" transform="scale(0.015625)"/>
      <path id="DejaVuSans-Bold-31" d="M 750 831 
L 1813 831 
L 1813 3847 
L 722 3622 
L 722 4441 
L 1806 4666 
L 2950 4666 
L 2950 831 
L 4013 831 
L 4013 0 
L 750 0 
L 750 831 
z
" transform="scale(0.015625)"/>
      <path id="DejaVuSans-Bold-64" d="M 2919 2988 
L 2919 4863 
L 4044 4863 
L 4044 0 
L 2919 0 
L 2919 506 
Q 2688 197 2409 53 
Q 2131 -91 1766 -91 
Q 1119 -91 703 423 
Q 288 938 288 1747 
Q 288 2556 703 3070 
Q 1119 3584 1766 3584 
Q 2128 3584 2408 3439 
Q 2688 3294 2919 2988 
z
M 2181 722 
Q 2541 722 2730 984 
Q 2919 1247 2919 1747 
Q 2919 2247 2730 2509 
Q 2541 2772 2181 2772 
Q 1825 2772 1636 2509 
Q 1447 2247 1447 1747 
Q 1447 1247 1636 984 
Q 1825 722 2181 722 
z
" transform="scale(0.015625)"/>
      <path id="DejaVuSans-Bold-5f" d="M 3200 -916 
L 3200 -1509 
L 0 -1509 
L 0 -916 
L 3200 -916 
z
" transform="scale(0.015625)"/>
      <path id="DejaVuSans-Bold-75" d="M 500 1363 
L 500 3500 
L 1625 3500 
L 1625 3150 
Q 1625 2866 1622 2436 
Q 1619 2006 1619 1863 
Q 1619 1441 1641 1255 
Q 1663 1069 1716 984 
Q 1784 875 1895 815 
Q 2006 756 2150 756 
Q 2500 756 2700 1025 
Q 2900 1294 2900 1772 
L 2900 3500 
L 4019 3500 
L 4019 0 
L 2900 0 
L 2900 506 
Q 2647 200 2364 54 
Q 2081 -91 1741 -91 
Q 1134 -91 817 281 
Q 500 653 500 1363 
z
" transform="scale(0.015625)"/>
      <path id="DejaVuSans-Bold-6d" d="M 3781 2919 
Q 3994 3244 4286 3414 
Q 4578 3584 4928 3584 
Q 5531 3584 5847 3212 
Q 6163 2841 6163 2131 
L 6163 0 
L 5038 0 
L 5038 1825 
Q 5041 1866 5042 1909 
Q 5044 1953 5044 2034 
Q 5044 2406 4934 2573 
Q 4825 2741 4581 2741 
Q 4263 2741 4089 2478 
Q 3916 2216 3909 1719 
L 3909 0 
L 2784 0 
L 2784 1825 
Q 2784 2406 2684 2573 
Q 2584 2741 2328 2741 
Q 2006 2741 1831 2477 
Q 1656 2213 1656 1722 
L 1656 0 
L 531 0 
L 531 3500 
L 1656 3500 
L 1656 2988 
Q 1863 3284 2130 3434 
Q 2397 3584 2719 3584 
Q 3081 3584 3359 3409 
Q 3638 3234 3781 2919 
z
" transform="scale(0.015625)"/>
      <path id="DejaVuSans-Bold-34" d="M 2356 3675 
L 1038 1722 
L 2356 1722 
L 2356 3675 
z
M 2156 4666 
L 3494 4666 
L 3494 1722 
L 4159 1722 
L 4159 850 
L 3494 850 
L 3494 0 
L 2356 0 
L 2356 850 
L 288 850 
L 288 1881 
L 2156 4666 
z
" transform="scale(0.015625)"/>
     </defs>
     <use xlink:href="#DejaVuSans-Bold-54"/>
     <use xlink:href="#DejaVuSans-Bold-72" transform="translate(57.212891 0)"/>
     <use xlink:href="#DejaVuSans-Bold-61" transform="translate(106.529297 0)"/>
     <use xlink:href="#DejaVuSans-Bold-69" transform="translate(174.009766 0)"/>
     <use xlink:href="#DejaVuSans-Bold-6e" transform="translate(208.287109 0)"/>
     <use xlink:href="#DejaVuSans-Bold-69" transform="translate(279.478516 0)"/>
     <use xlink:href="#DejaVuSans-Bold-6e" transform="translate(313.755859 0)"/>
     <use xlink:href="#DejaVuSans-Bold-67" transform="translate(384.947266 0)"/>
     <use xlink:href="#DejaVuSans-Bold-20" transform="translate(456.529297 0)"/>
     <use xlink:href="#DejaVuSans-Bold-6c" transform="translate(491.34375 0)"/>
     <use xlink:href="#DejaVuSans-Bold-6f" transform="translate(525.621094 0)"/>
     <use xlink:href="#DejaVuSans-Bold-73" transform="translate(594.322266 0)"/>
     <use xlink:href="#DejaVuSans-Bold-73" transform="translate(653.84375 0)"/>
     <use xlink:href="#DejaVuSans-Bold-20" transform="translate(713.365234 0)"/>
     <use xlink:href="#DejaVuSans-Bold-2014" transform="translate(748.179688 0)"/>
     <use xlink:href="#DejaVuSans-Bold-20" transform="translate(848.179688 0)"/>
     <use xlink:href="#DejaVuSans-Bold-38" transform="translate(882.994141 0)"/>
     <use xlink:href="#DejaVuSans-Bold-30" transform="translate(952.574219 0)"/>
     <use xlink:href="#DejaVuSans-Bold-30" transform="translate(1022.154297 0)"/>
     <use xlink:href="#DejaVuSans-Bold-20" transform="translate(1091.734375 0)"/>
     <use xlink:href="#DejaVuSans-Bold-73" transform="translate(1126.548828 0)"/>
     <use xlink:href="#DejaVuSans-Bold-74" transform="translate(1186.070312 0)"/>
     <use xlink:href="#DejaVuSans-Bold-65" transform="translate(1233.873047 0)"/>
     <use xlink:href="#DejaVuSans-Bold-70" transform="translate(1301.695312 0)"/>
     <use xlink:href="#DejaVuSans-Bold-73" transform="translate(1373.277344 0)"/>
     <use xlink:href="#DejaVuSans-Bold-2c" transform="translate(1432.798828 0)"/>
     <use xlink:href="#DejaVuSans-Bold-20" transform="translate(1470.787109 0)"/>
     <use xlink:href="#DejaVuSans-Bold-62" transform="translate(1505.601562 0)"/>
     <use xlink:href="#DejaVuSans-Bold-61" transform="translate(1577.183594 0)"/>
     <use xlink:href="#DejaVuSans-Bold-74" transform="translate(1644.664062 0)"/>
     <use xlink:href="#DejaVuSans-Bold-63" transform="translate(1692.466797 0)"/>
     <use xlink:href="#DejaVuSans-Bold-68" transform="translate(1751.744141 0)"/>
     <use xlink:href="#DejaVuSans-Bold-3d" transform="translate(1822.935547 0)"/>
     <use xlink:href="#DejaVuSans-Bold-31" transform="translate(1906.724609 0)"/>
     <use xlink:href="#DejaVuSans-Bold-2c" transform="translate(1976.304688 0)"/>
     <use xlink:href="#DejaVuSans-Bold-20" transform="translate(2014.292969 0)"/>
     <use xlink:href="#DejaVuSans-Bold-67" transform="translate(2049.107422 0)"/>
     <use xlink:href="#DejaVuSans-Bold-72" transform="translate(2120.689453 0)"/>
     <use xlink:href="#DejaVuSans-Bold-61" transform="translate(2170.005859 0)"/>
     <use xlink:href="#DejaVuSans-Bold-64" transform="translate(2237.486328 0)"/>
     <use xlink:href="#DejaVuSans-Bold-5f" transform="translate(2309.068359 0)"/>
     <use xlink:href="#DejaVuSans-Bold-61" transform="translate(2359.068359 0)"/>
     <use xlink:href="#DejaVuSans-Bold-63" transform="translate(2426.548828 0)"/>
     <use xlink:href="#DejaVuSans-Bold-63" transform="translate(2485.826172 0)"/>
     <use xlink:href="#DejaVuSans-Bold-75" transform="translate(2545.103516 0)"/>
     <use xlink:href="#DejaVuSans-Bold-6d" transform="translate(2616.294922 0)"/>
     <use xlink:href="#DejaVuSans-Bold-3d" transform="translate(2720.494141 0)"/>
     <use xlink:href="#DejaVuSans-Bold-34" transform="translate(2804.283203 0)"/>
    </g>
   </g>
   <g id="legend_1">
    <g id="patch_5">
     <path d="M 482.030938 69.434219 
L 626.571563 69.434219 
Q 628.571563 69.434219 628.571563 67.434219 
L 628.571563 39.077969 
Q 628.571563 37.077969 626.571563 37.077969 
L 482.030938 37.077969 
Q 480.030938 37.077969 480.030938 39.077969 
L 480.030938 67.434219 
Q 480.030938 69.434219 482.030938 69.434219 
z
" style="fill: #ffffff; opacity: 0.95; stroke: #cccccc; stroke-linejoin: miter"/>
    </g>
    <g id="line2d_37">
     <path d="M 484.030938 45.176406 
L 494.030938 45.176406 
L 504.030938 45.176406 
" style="fill: none; stroke: #94a3b8; stroke-opacity: 0.5; stroke-width: 0.8; stroke-linecap: square"/>
    </g>
    <g id="text_21">
     <!-- raw -->
     <g transform="translate(512.030938 48.676406) scale(0.1 -0.1)">
      <defs>
       <path id="DejaVuSans-77" d="M 269 3500 
L 844 3500 
L 1563 769 
L 2278 3500 
L 2956 3500 
L 3675 769 
L 4391 3500 
L 4966 3500 
L 4050 0 
L 3372 0 
L 2619 2869 
L 1863 0 
L 1184 0 
L 269 3500 
z
" transform="scale(0.015625)"/>
      </defs>
      <use xlink:href="#DejaVuSans-72"/>
      <use xlink:href="#DejaVuSans-61" transform="translate(41.113281 0)"/>
      <use xlink:href="#DejaVuSans-77" transform="translate(102.392578 0)"/>
     </g>
    </g>
    <g id="line2d_38">
     <path d="M 484.030938 59.854531 
L 494.030938 59.854531 
L 504.030938 59.854531 
" style="fill: none; stroke: #10b981; stroke-width: 2.2; stroke-linecap: square"/>
    </g>
    <g id="text_22">
     <!-- moving avg (50 steps) -->
     <g transform="translate(512.030938 63.354531) scale(0.1 -0.1)">
      <defs>
       <path id="DejaVuSans-6d" d="M 3328 2828 
Q 3544 3216 3844 3400 
Q 4144 3584 4550 3584 
Q 5097 3584 5394 3201 
Q 5691 2819 5691 2113 
L 5691 0 
L 5113 0 
L 5113 2094 
Q 5113 2597 4934 2840 
Q 4756 3084 4391 3084 
Q 3944 3084 3684 2787 
Q 3425 2491 3425 1978 
L 3425 0 
L 2847 0 
L 2847 2094 
Q 2847 2600 2669 2842 
Q 2491 3084 2119 3084 
Q 1678 3084 1418 2786 
Q 1159 2488 1159 1978 
L 1159 0 
L 581 0 
L 581 3500 
L 1159 3500 
L 1159 2956 
Q 1356 3278 1631 3431 
Q 1906 3584 2284 3584 
Q 2666 3584 2933 3390 
Q 3200 3197 3328 2828 
z
" transform="scale(0.015625)"/>
       <path id="DejaVuSans-76" d="M 191 3500 
L 800 3500 
L 1894 563 
L 2988 3500 
L 3597 3500 
L 2284 0 
L 1503 0 
L 191 3500 
z
" transform="scale(0.015625)"/>
      </defs>
      <use xlink:href="#DejaVuSans-6d"/>
      <use xlink:href="#DejaVuSans-6f" transform="translate(97.412109 0)"/>
      <use xlink:href="#DejaVuSans-76" transform="translate(158.59375 0)"/>
      <use xlink:href="#DejaVuSans-69" transform="translate(217.773438 0)"/>
      <use xlink:href="#DejaVuSans-6e" transform="translate(245.556641 0)"/>
      <use xlink:href="#DejaVuSans-67" transform="translate(308.935547 0)"/>
      <use xlink:href="#DejaVuSans-20" transform="translate(372.412109 0)"/>
      <use xlink:href="#DejaVuSans-61" transform="translate(404.199219 0)"/>
      <use xlink:href="#DejaVuSans-76" transform="translate(465.478516 0)"/>
      <use xlink:href="#DejaVuSans-67" transform="translate(524.658203 0)"/>
      <use xlink:href="#DejaVuSans-20" transform="translate(588.134766 0)"/>
      <use xlink:href="#DejaVuSans-28" transform="translate(619.921875 0)"/>
      <use xlink:href="#DejaVuSans-35" transform="translate(658.935547 0)"/>
      <use xlink:href="#DejaVuSans-30" transform="translate(722.558594 0)"/>
      <use xlink:href="#DejaVuSans-20" transform="translate(786.181641 0)"/>
      <use xlink:href="#DejaVuSans-73" transform="translate(817.96875 0)"/>
      <use xlink:href="#DejaVuSans-74" transform="translate(870.068359 0)"/>
      <use xlink:href="#DejaVuSans-65" transform="translate(909.277344 0)"/>
      <use xlink:href="#DejaVuSans-70" transform="translate(970.800781 0)"/>
      <use xlink:href="#DejaVuSans-73" transform="translate(1034.277344 0)"/>
      <use xlink:href="#DejaVuSans-29" transform="translate(1086.376953 0)"/>
     </g>
    </g>
   </g>
  </g>
 </g>
 <defs>
  <clipPath id="pdc6de95474">
   <rect x="51.111563" y="32.077969" width="582.46" height="245.44"/>
  </clipPath>
 </defs>
</svg>
