<svg class="main-svg" xmlns="http://www.w3.org/2000/svg" xmlns:xlink="http://www.w3.org/1999/xlink" width="1200" height="600" style="" viewBox="0 0 1200 600"><rect x="0" y="0" width="1200" height="600" style="fill: rgb(255, 255, 255); fill-opacity: 1;"/><defs id="defs-ce135e"><g class="clips"><clipPath id="clipce135exyplot" class="plotclip"><rect width="1141" height="519"/></clipPath><clipPath class="axesclip" id="clipce135ex"><rect x="48" y="0" width="1141" height="600"/></clipPath><clipPath class="axesclip" id="clipce135ey"><rect x="0" y="0" width="1200" height="519"/></clipPath><clipPath class="axesclip" id="clipce135exy"><rect x="48" y="0" width="1141" height="519"/></clipPath></g><g class="gradients"/><g class="patterns"/></defs><g class="bglayer"/><g class="layer-below"><g class="imagelayer"/><g class="shapelayer"/></g><g class="cartesianlayer"><g class="subplot xy"><g class="layer-subplot"><g class="shapelayer"/><g class="imagelayer"/></g><g class="gridlayer"><g class="x"><path class="xgrid crisp" transform="translate(189.38,0)" d="M0,0v519" style="stroke: rgb(232, 236, 240); stroke-opacity: 1; stroke-width: 1px;"/><path class="xgrid crisp" transform="translate(332.18,0)" d="M0,0v519" style="stroke: rgb(232, 236, 240); stroke-opacity: 1; stroke-width: 1px;"/><path class="xgrid crisp" transform="translate(474.98,0)" d="M0,0v519" style="stroke: rgb(232, 236, 240); stroke-opacity: 1; stroke-width: 1px;"/><path class="xgrid crisp" transform="translate(617.79,0)" d="M0,0v519" style="stroke: rgb(232, 236, 240); stroke-opacity: 1; stroke-width: 1px;"/><path class="xgrid crisp" transform="translate(760.59,0)" d="M0,0v519" style="stroke: rgb(232, 236, 240); stroke-opacity: 1; stroke-width: 1px;"/><path class="xgrid crisp" transform="translate(903.39,0)" d="M0,0v519" style="stroke: rgb(232, 236, 240); stroke-opacity: 1; stroke-width: 1px;"/><path class="xgrid crisp" transform="translate(1046.2,0)" d="M0,0v519" style="stroke: rgb(232, 236, 240); stroke-opacity: 1; stroke-width: 1px;"/></g><g class="y"><path class="ygrid crisp" transform="translate(0,399.63)" d="M48,0h1141" style="stroke: rgb(232, 236, 240); stroke-opacity: 1; stroke-width: 1px;"/><path class="ygrid crisp" transform="translate(0,306.21)" d="M48,0h1141" style="stroke: rgb(232, 236, 240); stroke-opacity: 1; stroke-width: 1px;"/><path class="ygrid crisp" transform="translate(0,212.79)" d="M48,0h1141" style="stroke: rgb(232, 236, 240); stroke-opacity: 1; stroke-width: 1px;"/><path class="ygrid crisp" transform="translate(0,119.37)" d="M48,0h1141" style="stroke: rgb(232, 236, 240); stroke-opacity: 1; stroke-width: 1px;"/><path class="ygrid crisp" transform="translate(0,25.95)" d="M48,0h1141" style="stroke: rgb(232, 236, 240); stroke-opacity: 1; stroke-width: 1px;"/></g></g><g class="zerolinelayer"><path class="yzl zl crisp" transform="translate(0,493.05)" d="M48,0h1141" style="stroke: rgb(68, 68, 68); stroke-opacity: 1; stroke-width: 1px;"/></g><path class="xlines-below"/><path class="ylines-below"/><g class="overlines-below"/><g class="xaxislayer-below"/><g class="yaxislayer-below"/><g class="overaxes-below"/><g class="plot" transform="translate(48,0)" clip-path="url(#clipce135exyplot)"><g class="scatterlayer mlayer"><g class="trace scatter traced53fb0" style="stroke-miterlimit: 2; opacity: 1;"><g class="fills"/><g class="errorbars"/><g class="lines"><path class="js-line" d="M0,483.71L67.12,44.63L71.4,25.95L99.96,26.85L102.82,27.03L131.38,29.73L135.66,30.27L164.22,34.82L167.08,35.36L195.64,41.64L199.92,42.71L228.49,50.74L231.34,51.63L259.9,61.26L264.19,62.83L295.6,75.26L299.89,77.08L331.3,91.27L335.59,93.32L371.29,111.38L374.15,112.9L414.13,135.18L416.99,136.84L459.83,162.72L464.11,165.4L509.81,194.81L514.09,197.64L571.21,236.06L574.07,238.01L709.73,329.81L714.02,332.6L759.71,361.59L764,364.22L806.84,389.56L809.7,391.18L849.68,412.85L852.54,414.32L888.24,431.75L892.52,433.71L923.94,447.29L928.22,449.02L959.64,460.77L963.92,462.25L995.34,472.06L999.62,473.25L1028.19,480.38L1031.04,481.01L1059.6,486.42L1063.89,487.1L1092.45,490.69L1095.3,490.96L1123.86,492.76L1128.15,492.88L1141,493.05" style="vector-effect: non-scaling-stroke; fill: none; stroke: rgb(68, 84, 97); stroke-opacity: 1; stroke-width: 2px; opacity: 1;"/></g><g class="points"/><g class="text"/></g><g class="trace scatter trace953c19" style="stroke-miterlimit: 2; opacity: 1;"><g class="fills"/><g class="errorbars"/><g class="lines"><path class="js-line" d="M0,483.71L67.12,44.63L71.4,25.95L99.96,26.85L102.82,27.03L131.38,29.73L135.66,30.27L164.22,34.82L167.08,35.36L195.64,41.64L199.92,42.71L228.49,50.74L231.34,51.63L259.9,61.26L264.19,62.83L295.6,75.26L299.89,77.08L331.3,91.27L335.59,93.32L371.29,111.38L374.15,112.9L414.13,135.18L416.99,136.84L459.83,162.72L464.11,165.4L509.81,194.81L514.09,197.64L571.21,236.06L574.07,238.01L709.73,329.81L714.02,332.6L759.71,361.59L764,364.22L806.84,389.56L809.7,391.18L849.68,412.85L852.54,414.32L888.24,431.75L892.52,433.71L923.94,447.29L928.22,449.02L959.64,460.77L963.92,462.25L995.34,472.06L999.62,473.25L1028.19,480.38L1031.04,481.01L1059.6,486.42L1063.89,487.1L1092.45,490.69L1095.3,490.96L1123.86,492.76L1128.15,492.88L1141,493.05" style="vector-effect: non-scaling-stroke; fill: none; stroke: rgb(68, 84, 97); stroke-opacity: 0.14902; stroke-width: 2px; opacity: 1;"/></g><g class="points"/><g class="text"/></g></g></g><g class="overplot"/><path class="xlines-above crisp" d="M0,0" style="fill: none;"/><path class="ylines-above crisp" d="M0,0" style="fill: none;"/><g class="overlines-above"/><g class="xaxislayer-above"><g class="xtick"><text text-anchor="middle" x="0" y="531" transform="translate(189.38,0)" style="font-family: 'Open Sans', verdana, arial, sans-serif; font-size: 11px; fill: rgb(95, 114, 129); fill-opacity: 1; white-space: pre; opacity: 1;">100</text></g><g class="xtick"><text text-anchor="middle" x="0" y="531" style="font-family: 'Open Sans', verdana, arial, sans-serif; font-size: 11px; fill: rgb(95, 114, 129); fill-opacity: 1; white-space: pre; opacity: 1;" transform="translate(332.18,0)">200</text></g><g class="xtick"><text text-anchor="middle" x="0" y="531" style="font-family: 'Open Sans', verdana, arial, sans-serif; font-size: 11px; fill: rgb(95, 114, 129); fill-opacity: 1; white-space: pre; opacity: 1;" transform="translate(474.98,0)">300</text></g><g class="xtick"><text text-anchor="middle" x="0" y="531" style="font-family: 'Open Sans', verdana, arial, sans-serif; font-size: 11px; fill: rgb(95, 114, 129); fill-opacity: 1; white-space: pre; opacity: 1;" transform="translate(617.79,0)">400</text></g><g class="xtick"><text text-anchor="middle" x="0" y="531" style="font-family: 'Open Sans', verdana, arial, sans-serif; font-size: 11px; fill: rgb(95, 114, 129); fill-opacity: 1; white-space: pre; opacity: 1;" transform="translate(760.59,0)">500</text></g><g class="xtick"><text text-anchor="middle" x="0" y="531" style="font-family: 'Open Sans', verdana, arial, sans-serif; font-size: 11px; fill: rgb(95, 114, 129); fill-opacity: 1; white-space: pre; opacity: 1;" transform="translate(903.39,0)">600</text></g><g class="xtick"><text text-anchor="middle" x="0" y="531" style="font-family: 'Open Sans', verdana, arial, sans-serif; font-size: 11px; fill: rgb(95, 114, 129); fill-opacity: 1; white-space: pre; opacity: 1;" transform="translate(1046.2,0)">700</text></g><g class="xtick"><text text-anchor="middle" x="0" y="531" style="font-family: 'Open Sans', verdana, arial, sans-serif; font-size: 11px; fill: rgb(95, 114, 129); fill-opacity: 1; white-space: pre; opacity: 1;" transform="translate(1189,0)">800</text></g></g><g class="yaxislayer-above"><g class="ytick"><text text-anchor="end" x="47" y="3.8499999999999996" transform="translate(0,493.05)" style="font-family: 'Open Sans', verdana, arial, sans-serif; font-size: 11px; fill: rgb(95, 114, 129); fill-opacity: 1; white-space: pre; opacity: 1;">0</text></g><g class="ytick"><text text-anchor="end" x="47" y="3.8499999999999996" style="font-family: 'Open Sans', verdana, arial, sans-serif; font-size: 11px; fill: rgb(95, 114, 129); fill-opacity: 1; white-space: pre; opacity: 1;" transform="translate(0,399.63)">0.00002</text></g><g class="ytick"><text text-anchor="end" x="47" y="3.8499999999999996" style="font-family: 'Open Sans', verdana, arial, sans-serif; font-size: 11px; fill: rgb(95, 114, 129); fill-opacity: 1; white-space: pre; opacity: 1;" transform="translate(0,306.21)">0.00004</text></g><g class="ytick"><text text-anchor="end" x="47" y="3.8499999999999996" style="font-family: 'Open Sans', verdana, arial, sans-serif; font-size: 11px; fill: rgb(95, 114, 129); fill-opacity: 1; white-space: pre; opacity: 1;" transform="translate(0,212.79)">0.00006</text></g><g class="ytick"><text text-anchor="end" x="47" y="3.8499999999999996" style="font-family: 'Open Sans', verdana, arial, sans-serif; font-size: 11px; fill: rgb(95, 114, 129); fill-opacity: 1; white-space: pre; opacity: 1;" transform="translate(0,119.37)">0.00008</text></g><g class="ytick"><text text-anchor="end" x="47" y="3.8499999999999996" style="font-family: 'Open Sans', verdana, arial, sans-serif; font-size: 11px; fill: rgb(95, 114, 129); fill-opacity: 1; white-space: pre; opacity: 1;" transform="translate(0,25.95)">0.0001</text></g></g><g class="overaxes-above"/></g></g><g class="polarlayer"/><g class="ternarylayer"/><g class="geolayer"/><g class="funnelarealayer"/><g class="pielayer"/><g class="iciclelayer"/><g class="treemaplayer"/><g class="sunburstlayer"/><g class="glimages"/><defs id="topdefs-ce135e"><g class="clips"/><clipPath id="legendce135e"><rect width="337" height="29" x="0" y="0"/></clipPath></defs><g class="layer-above"><g class="imagelayer"/><g class="shapelayer"/></g><g class="infolayer"><g class="legend" pointer-events="all" transform="translate(48,570.9000000000001)"><rect class="bg" shape-rendering="crispEdges" width="337" height="29" x="0" y="0" style="stroke: rgb(68, 68, 68); stroke-opacity: 1; fill: rgb(255, 255, 255); fill-opacity: 1; stroke-width: 0px;"/><g class="scrollbox" transform="" clip-path="url(#legendce135e)"><g class="groups"><g class="traces" transform="translate(0,14.5)" style="opacity: 1;"><text class="legendtext" text-anchor="start" x="40" y="4.680000000000001" style="font-family: 'Open Sans', verdana, arial, sans-serif; font-size: 12px; fill: rgb(17, 23, 28); fill-opacity: 1; white-space: pre;">enthused-worm-654</text><g class="layers" style="opacity: 1;"><g class="legendfill"/><g class="legendlines"><path class="js-line" d="M5,0h30" style="fill: none; stroke: rgb(68, 84, 97); stroke-opacity: 1; stroke-width: 2px;"/></g><g class="legendsymbols"><g class="legendpoints"/></g></g><rect class="legendtoggle" x="0" y="-9.5" width="165.9703140258789" height="19" style="fill: rgb(0, 0, 0); fill-opacity: 0;"/></g><g class="traces" transform="translate(168.4703140258789,14.5)" style="opacity: 1;"><text class="legendtext" text-anchor="start" x="40" y="4.680000000000001" style="font-family: 'Open Sans', verdana, arial, sans-serif; font-size: 12px; fill: rgb(17, 23, 28); fill-opacity: 1; white-space: pre;">enthused-worm-654</text><g class="layers" style="opacity: 1;"><g class="legendfill"/><g class="legendlines"><path class="js-line" d="M5,0h30" style="fill: none; stroke: rgb(68, 84, 97); stroke-opacity: 0.14902; stroke-width: 2px;"/></g><g class="legendsymbols"><g class="legendpoints"/></g></g><rect class="legendtoggle" x="0" y="-9.5" width="165.9703140258789" height="19" style="fill: rgb(0, 0, 0); fill-opacity: 0;"/></g></g></g><rect class="scrollbar" rx="20" ry="3" width="0" height="0" x="0" y="0" style="fill: rgb(128, 139, 164); fill-opacity: 1;"/></g><g class="g-gtitle"/><g class="g-xtitle"><text class="xtitle" x="618.5" y="571" text-anchor="middle" style="font-family: 'Open Sans', verdana, arial, sans-serif; font-size: 14px; fill: rgb(17, 23, 28); opacity: 1; font-weight: normal; white-space: pre;">Step</text></g><g class="g-ytitle"/></g></svg>