<?xml version="1.0" encoding="utf-8" standalone="no"?>
<!DOCTYPE svg PUBLIC "-//W3C//DTD SVG 1.1//EN"
  "http://www.w3.org/Graphics/SVG/1.1/DTD/svg11.dtd">
<svg xmlns:xlink="http://www.w3.org/1999/xlink" width="640.959062pt" height="316.042031pt" viewBox="0 0 640.959062 316.042031" xmlns="http://www.w3.org/2000/svg" version="1.1">
 <metadata>
  <rdf:RDF xmlns:dc="http://purl.org/dc/elements/1.1/" xmlns:cc="http://creativecommons.org/ns#" xmlns:rdf="http://www.w3.org/1999/02/22-rdf-syntax-ns#">
   <cc:Work>
    <dc:type rdf:resource="http://purl.org/dc/dcmitype/StillImage"/>
    <dc:date>2026-05-12T17:49:22.316737</dc:date>
    <dc:format>image/svg+xml</dc:format>
    <dc:creator>
     <cc:Agent>
      <dc:title>Matplotlib v3.10.8, https://matplotlib.org/</dc:title>
     </cc:Agent>
    </dc:creator>
   </cc:Work>
  </rdf:RDF>
 </metadata>
 <defs>
  <style type="text/css">*{stroke-linejoin: round; stroke-linecap: butt}</style>
 </defs>
 <g id="figure_1">
  <g id="patch_1">
   <path d="M 0 316.042031 
L 640.959062 316.042031 
L 640.959062 0 
L 0 0 
z
" style="fill: #ffffff"/>
  </g>
  <g id="axes_1">
   <g id="patch_2">
    <path d="M 70.199063 277.517969 
L 633.759062 277.517969 
L 633.759062 32.077969 
L 70.199063 32.077969 
z
" style="fill: #ffffff"/>
   </g>
   <g id="FillBetweenPolyCollection_1">
    <defs>
     <path id="mdbe87728f3" d="M 95.815426 -54.142972 
L 95.815426 -49.680426 
L 96.456637 -49.680426 
L 97.097847 -49.680426 
L 97.739058 -49.680426 
L 98.380269 -49.680426 
L 99.021479 -49.680426 
L 99.66269 -49.680426 
L 100.3039 -49.680426 
L 100.945111 -49.680426 
L 101.586322 -49.680426 
L 102.227532 -49.680426 
L 102.868743 -49.680426 
L 103.509953 -49.680426 
L 104.151164 -49.680426 
L 104.792375 -49.680426 
L 105.433585 -49.680426 
L 106.074796 -49.680426 
L 106.716006 -49.680426 
L 107.357217 -49.680426 
L 107.998428 -49.680426 
L 108.639638 -49.680426 
L 109.280849 -49.680426 
L 109.922059 -49.680426 
L 110.56327 -49.680426 
L 111.204481 -49.680426 
L 111.845691 -49.680426 
L 112.486902 -49.680426 
L 113.128112 -49.680426 
L 113.769323 -49.680426 
L 114.410534 -49.680426 
L 115.051744 -49.680426 
L 115.692955 -49.680426 
L 116.334165 -49.680426 
L 116.975376 -49.680426 
L 117.616587 -49.680426 
L 118.257797 -49.680426 
L 118.899008 -49.680426 
L 119.540218 -49.680426 
L 120.181429 -49.680426 
L 120.82264 -49.680426 
L 121.46385 -49.680426 
L 122.105061 -49.680426 
L 122.746272 -49.680426 
L 123.387482 -49.680426 
L 124.028693 -49.680426 
L 124.669903 -49.680426 
L 125.311114 -49.680426 
L 125.952325 -49.680426 
L 126.593535 -49.680426 
L 127.234746 -49.680426 
L 127.875956 -49.680426 
L 128.517167 -49.680426 
L 129.158378 -49.680426 
L 129.799588 -49.680426 
L 130.440799 -49.680426 
L 131.082009 -49.680426 
L 131.72322 -49.680426 
L 132.364431 -49.680426 
L 133.005641 -49.680426 
L 133.646852 -49.680426 
L 134.288062 -49.680426 
L 134.929273 -49.680426 
L 135.570484 -49.680426 
L 136.211694 -49.680426 
L 136.852905 -49.680426 
L 137.494115 -49.680426 
L 138.135326 -49.680426 
L 138.776537 -49.680426 
L 139.417747 -49.680426 
L 140.058958 -49.680426 
L 140.700168 -49.680426 
L 141.341379 -49.680426 
L 141.98259 -49.680426 
L 142.6238 -49.680426 
L 143.265011 -49.680426 
L 143.906221 -49.680426 
L 144.547432 -49.680426 
L 145.188643 -49.680426 
L 145.829853 -49.680426 
L 146.471064 -49.680426 
L 147.112274 -49.680426 
L 147.753485 -49.680426 
L 148.394696 -49.680426 
L 149.035906 -49.680426 
L 149.677117 -49.680426 
L 150.318327 -49.680426 
L 150.959538 -49.680426 
L 151.600749 -49.680426 
L 152.241959 -49.680426 
L 152.88317 -49.680426 
L 153.524381 -49.680426 
L 154.165591 -49.680426 
L 154.806802 -49.680426 
L 155.448012 -49.680426 
L 156.089223 -49.680426 
L 156.730434 -49.680426 
L 157.371644 -49.680426 
L 158.012855 -49.680426 
L 158.654065 -49.680426 
L 159.295276 -49.680426 
L 159.936487 -49.680426 
L 160.577697 -49.680426 
L 161.218908 -49.680426 
L 161.860118 -49.680426 
L 162.501329 -49.680426 
L 163.14254 -49.680426 
L 163.78375 -49.680426 
L 164.424961 -49.680426 
L 165.066171 -49.680426 
L 165.707382 -49.680426 
L 166.348593 -49.680426 
L 166.989803 -49.680426 
L 167.631014 -49.680426 
L 168.272224 -49.680426 
L 168.913435 -49.680426 
L 169.554646 -49.680426 
L 170.195856 -49.680426 
L 170.837067 -49.680426 
L 171.478277 -49.680426 
L 172.119488 -49.680426 
L 172.760699 -49.680426 
L 173.401909 -49.680426 
L 174.04312 -49.680426 
L 174.68433 -49.680426 
L 175.325541 -49.680426 
L 175.966752 -49.680426 
L 176.607962 -49.680426 
L 177.249173 -49.680426 
L 177.890383 -49.680426 
L 178.531594 -49.680426 
L 179.172805 -49.680426 
L 179.814015 -49.680426 
L 180.455226 -49.680426 
L 181.096436 -49.680426 
L 181.737647 -49.680426 
L 182.378858 -49.680426 
L 183.020068 -49.680426 
L 183.661279 -49.680426 
L 184.30249 -49.680426 
L 184.9437 -49.680426 
L 185.584911 -49.680426 
L 186.226121 -49.680426 
L 186.867332 -49.680426 
L 187.508543 -49.680426 
L 188.149753 -49.680426 
L 188.790964 -49.680426 
L 189.432174 -49.680426 
L 190.073385 -49.680426 
L 190.714596 -49.680426 
L 191.355806 -49.680426 
L 191.997017 -49.680426 
L 192.638227 -49.680426 
L 193.279438 -49.680426 
L 193.920649 -49.680426 
L 194.561859 -49.680426 
L 195.20307 -49.680426 
L 195.84428 -49.680426 
L 196.485491 -49.680426 
L 197.126702 -49.680426 
L 197.767912 -49.680426 
L 198.409123 -49.680426 
L 199.050333 -49.680426 
L 199.691544 -49.680426 
L 200.332755 -49.680426 
L 200.973965 -49.680426 
L 201.615176 -49.680426 
L 202.256386 -49.680426 
L 202.897597 -49.680426 
L 203.538808 -49.680426 
L 204.180018 -49.680426 
L 204.821229 -49.680426 
L 205.462439 -49.680426 
L 206.10365 -49.680426 
L 206.744861 -49.680426 
L 207.386071 -49.680426 
L 208.027282 -49.680426 
L 208.668492 -49.680426 
L 209.309703 -49.680426 
L 209.950914 -49.680426 
L 210.592124 -49.680426 
L 211.233335 -49.680426 
L 211.874545 -49.680426 
L 212.515756 -49.680426 
L 213.156967 -49.680426 
L 213.798177 -49.680426 
L 214.439388 -49.680426 
L 215.080599 -49.680426 
L 215.721809 -49.680426 
L 216.36302 -49.680426 
L 217.00423 -49.680426 
L 217.645441 -49.680426 
L 218.286652 -49.680426 
L 218.927862 -49.680426 
L 219.569073 -49.680426 
L 220.210283 -49.680426 
L 220.851494 -49.680426 
L 221.492705 -49.680426 
L 222.133915 -49.680426 
L 222.775126 -49.680426 
L 223.416336 -49.680426 
L 224.057547 -49.680426 
L 224.698758 -49.680426 
L 225.339968 -49.680426 
L 225.981179 -49.680426 
L 226.622389 -49.680426 
L 227.2636 -49.680426 
L 227.904811 -49.680426 
L 228.546021 -49.680426 
L 229.187232 -49.680426 
L 229.828442 -49.680426 
L 230.469653 -49.680426 
L 231.110864 -49.680426 
L 231.752074 -49.680426 
L 232.393285 -49.680426 
L 233.034495 -49.680426 
L 233.675706 -49.680426 
L 234.316917 -49.680426 
L 234.958127 -49.680426 
L 235.599338 -49.680426 
L 236.240548 -49.680426 
L 236.881759 -49.680426 
L 237.52297 -49.680426 
L 238.16418 -49.680426 
L 238.805391 -49.680426 
L 239.446601 -49.680426 
L 240.087812 -49.680426 
L 240.729023 -49.680426 
L 241.370233 -49.680426 
L 242.011444 -49.680426 
L 242.652654 -49.680426 
L 243.293865 -49.680426 
L 243.935076 -49.680426 
L 244.576286 -49.680426 
L 245.217497 -49.680426 
L 245.858708 -49.680426 
L 246.499918 -49.680426 
L 247.141129 -49.680426 
L 247.782339 -49.680426 
L 248.42355 -49.680426 
L 249.064761 -49.680426 
L 249.705971 -49.680426 
L 250.347182 -49.680426 
L 250.988392 -49.680426 
L 251.629603 -49.680426 
L 252.270814 -49.680426 
L 252.912024 -49.680426 
L 253.553235 -49.680426 
L 254.194445 -49.680426 
L 254.835656 -49.680426 
L 255.476867 -49.680426 
L 256.118077 -49.680426 
L 256.759288 -49.680426 
L 257.400498 -49.680426 
L 258.041709 -49.680426 
L 258.68292 -49.680426 
L 259.32413 -49.680426 
L 259.965341 -49.680426 
L 260.606551 -49.680426 
L 261.247762 -49.680426 
L 261.888973 -49.680426 
L 262.530183 -49.680426 
L 263.171394 -49.680426 
L 263.812604 -49.680426 
L 264.453815 -49.680426 
L 265.095026 -49.680426 
L 265.736236 -49.680426 
L 266.377447 -49.680426 
L 267.018657 -49.680426 
L 267.659868 -49.680426 
L 268.301079 -49.680426 
L 268.942289 -49.680426 
L 269.5835 -49.680426 
L 270.22471 -49.680426 
L 270.865921 -49.680426 
L 271.507132 -49.680426 
L 272.148342 -49.680426 
L 272.789553 -49.680426 
L 273.430763 -49.680426 
L 274.071974 -49.680426 
L 274.713185 -49.680426 
L 275.354395 -49.680426 
L 275.995606 -49.680426 
L 276.636817 -49.680426 
L 277.278027 -49.680426 
L 277.919238 -49.680426 
L 278.560448 -49.680426 
L 279.201659 -49.680426 
L 279.84287 -49.680426 
L 280.48408 -49.680426 
L 281.125291 -49.680426 
L 281.766501 -49.680426 
L 282.407712 -49.680426 
L 283.048923 -49.680426 
L 283.690133 -49.680426 
L 284.331344 -49.680426 
L 284.972554 -49.680426 
L 285.613765 -49.680426 
L 286.254976 -49.680426 
L 286.896186 -49.680426 
L 287.537397 -49.680426 
L 288.178607 -49.680426 
L 288.819818 -49.680426 
L 289.461029 -49.680426 
L 290.102239 -49.680426 
L 290.74345 -49.680426 
L 291.38466 -49.680426 
L 292.025871 -49.680426 
L 292.667082 -49.680426 
L 293.308292 -49.680426 
L 293.949503 -49.680426 
L 294.590713 -49.680426 
L 295.231924 -49.680426 
L 295.873135 -49.680426 
L 296.514345 -49.680426 
L 297.155556 -49.680426 
L 297.796766 -49.680426 
L 298.437977 -49.680426 
L 299.079188 -49.680426 
L 299.720398 -49.680426 
L 300.361609 -49.680426 
L 301.002819 -49.680426 
L 301.64403 -49.680426 
L 302.285241 -49.680426 
L 302.926451 -49.680426 
L 303.567662 -49.680426 
L 304.208872 -49.680426 
L 304.850083 -49.680426 
L 305.491294 -49.680426 
L 306.132504 -49.680426 
L 306.773715 -49.680426 
L 307.414926 -49.680426 
L 308.056136 -49.680426 
L 308.697347 -49.680426 
L 309.338557 -49.680426 
L 309.979768 -49.680426 
L 310.620979 -49.680426 
L 311.262189 -49.680426 
L 311.9034 -49.680426 
L 312.54461 -49.680426 
L 313.185821 -49.680426 
L 313.827032 -49.680426 
L 314.468242 -49.680426 
L 315.109453 -49.680426 
L 315.750663 -49.680426 
L 316.391874 -49.680426 
L 317.033085 -49.680426 
L 317.674295 -49.680426 
L 318.315506 -49.680426 
L 318.956716 -49.680426 
L 319.597927 -49.680426 
L 320.239138 -49.680426 
L 320.880348 -49.680426 
L 321.521559 -49.680426 
L 322.162769 -49.680426 
L 322.80398 -49.680426 
L 323.445191 -49.680426 
L 324.086401 -49.680426 
L 324.727612 -49.680426 
L 325.368822 -49.680426 
L 326.010033 -49.680426 
L 326.651244 -49.680426 
L 327.292454 -49.680426 
L 327.933665 -49.680426 
L 328.574875 -49.680426 
L 329.216086 -49.680426 
L 329.857297 -49.680426 
L 330.498507 -49.680426 
L 331.139718 -49.680426 
L 331.780928 -49.680426 
L 332.422139 -49.680426 
L 333.06335 -49.680426 
L 333.70456 -49.680426 
L 334.345771 -49.680426 
L 334.986981 -49.680426 
L 335.628192 -49.680426 
L 336.269403 -49.680426 
L 336.910613 -49.680426 
L 337.551824 -49.680426 
L 338.193035 -49.680426 
L 338.834245 -49.680426 
L 339.475456 -49.680426 
L 340.116666 -49.680426 
L 340.757877 -49.680426 
L 341.399088 -49.680426 
L 342.040298 -49.680426 
L 342.681509 -49.680426 
L 343.322719 -49.680426 
L 343.96393 -49.680426 
L 344.605141 -49.680426 
L 345.246351 -49.680426 
L 345.887562 -49.680426 
L 346.528772 -49.680426 
L 347.169983 -49.680426 
L 347.811194 -49.680426 
L 348.452404 -49.680426 
L 349.093615 -49.680426 
L 349.734825 -49.680426 
L 350.376036 -49.680426 
L 351.017247 -49.680426 
L 351.658457 -49.680426 
L 352.299668 -49.680426 
L 352.940878 -49.680426 
L 353.582089 -49.680426 
L 354.2233 -49.680426 
L 354.86451 -49.680426 
L 355.505721 -49.680426 
L 356.146931 -49.680426 
L 356.788142 -49.680426 
L 357.429353 -49.680426 
L 358.070563 -49.680426 
L 358.711774 -49.680426 
L 359.352984 -49.680426 
L 359.994195 -49.680426 
L 360.635406 -49.680426 
L 361.276616 -49.680426 
L 361.917827 -49.680426 
L 362.559037 -49.680426 
L 363.200248 -49.680426 
L 363.841459 -49.680426 
L 364.482669 -49.680426 
L 365.12388 -49.680426 
L 365.76509 -49.680426 
L 366.406301 -49.680426 
L 367.047512 -49.680426 
L 367.688722 -49.680426 
L 368.329933 -49.680426 
L 368.971144 -49.680426 
L 369.612354 -49.680426 
L 370.253565 -49.680426 
L 370.894775 -49.680426 
L 371.535986 -49.680426 
L 372.177197 -49.680426 
L 372.818407 -49.680426 
L 373.459618 -49.680426 
L 374.100828 -49.680426 
L 374.742039 -49.680426 
L 375.38325 -49.680426 
L 376.02446 -49.680426 
L 376.665671 -49.680426 
L 377.306881 -49.680426 
L 377.948092 -49.680426 
L 378.589303 -49.680426 
L 379.230513 -49.680426 
L 379.871724 -49.680426 
L 380.512934 -49.680426 
L 381.154145 -49.680426 
L 381.795356 -49.680426 
L 382.436566 -49.680426 
L 383.077777 -49.680426 
L 383.718987 -49.680426 
L 384.360198 -49.680426 
L 385.001409 -49.680426 
L 385.642619 -49.680426 
L 386.28383 -49.680426 
L 386.92504 -49.680426 
L 387.566251 -49.680426 
L 388.207462 -49.680426 
L 388.848672 -49.680426 
L 389.489883 -49.680426 
L 390.131093 -49.680426 
L 390.772304 -49.680426 
L 391.413515 -49.680426 
L 392.054725 -49.680426 
L 392.695936 -49.680426 
L 393.337146 -49.680426 
L 393.978357 -49.680426 
L 394.619568 -49.680426 
L 395.260778 -49.680426 
L 395.901989 -49.680426 
L 396.543199 -49.680426 
L 397.18441 -49.680426 
L 397.825621 -49.680426 
L 398.466831 -49.680426 
L 399.108042 -49.680426 
L 399.749253 -49.680426 
L 400.390463 -49.680426 
L 401.031674 -49.680426 
L 401.672884 -49.680426 
L 402.314095 -49.680426 
L 402.955306 -49.680426 
L 403.596516 -49.680426 
L 404.237727 -49.680426 
L 404.878937 -49.680426 
L 405.520148 -49.680426 
L 406.161359 -49.680426 
L 406.802569 -49.680426 
L 407.44378 -49.680426 
L 408.08499 -49.680426 
L 408.726201 -49.680426 
L 409.367412 -49.680426 
L 410.008622 -49.680426 
L 410.649833 -49.680426 
L 411.291043 -49.680426 
L 411.932254 -49.680426 
L 412.573465 -49.680426 
L 413.214675 -49.680426 
L 413.855886 -49.680426 
L 414.497096 -49.680426 
L 415.138307 -49.680426 
L 415.779518 -49.680426 
L 416.420728 -49.680426 
L 417.061939 -49.680426 
L 417.703149 -49.680426 
L 418.34436 -49.680426 
L 418.985571 -49.680426 
L 419.626781 -49.680426 
L 420.267992 -49.680426 
L 420.909202 -49.680426 
L 421.550413 -49.680426 
L 422.191624 -49.680426 
L 422.832834 -49.680426 
L 423.474045 -49.680426 
L 424.115255 -49.680426 
L 424.756466 -49.680426 
L 425.397677 -49.680426 
L 426.038887 -49.680426 
L 426.680098 -49.680426 
L 427.321308 -49.680426 
L 427.962519 -49.680426 
L 428.60373 -49.680426 
L 429.24494 -49.680426 
L 429.886151 -49.680426 
L 430.527362 -49.680426 
L 431.168572 -49.680426 
L 431.809783 -49.680426 
L 432.450993 -49.680426 
L 433.092204 -49.680426 
L 433.733415 -49.680426 
L 434.374625 -49.680426 
L 435.015836 -49.680426 
L 435.657046 -49.680426 
L 436.298257 -49.680426 
L 436.939468 -49.680426 
L 437.580678 -49.680426 
L 438.221889 -49.680426 
L 438.863099 -49.680426 
L 439.50431 -49.680426 
L 440.145521 -49.680426 
L 440.786731 -49.680426 
L 441.427942 -49.680426 
L 442.069152 -49.680426 
L 442.710363 -49.680426 
L 443.351574 -49.680426 
L 443.992784 -49.680426 
L 444.633995 -49.680426 
L 445.275205 -49.680426 
L 445.916416 -49.680426 
L 446.557627 -49.680426 
L 447.198837 -49.680426 
L 447.840048 -49.680426 
L 448.481258 -49.680426 
L 449.122469 -49.680426 
L 449.76368 -49.680426 
L 450.40489 -49.680426 
L 451.046101 -49.680426 
L 451.687311 -49.680426 
L 452.328522 -49.680426 
L 452.969733 -49.680426 
L 453.610943 -49.680426 
L 454.252154 -49.680426 
L 454.893364 -49.680426 
L 455.534575 -49.680426 
L 456.175786 -49.680426 
L 456.816996 -49.680426 
L 457.458207 -49.680426 
L 458.099417 -49.680426 
L 458.740628 -49.680426 
L 459.381839 -49.680426 
L 460.023049 -49.680426 
L 460.66426 -49.680426 
L 461.305471 -49.680426 
L 461.946681 -49.680426 
L 462.587892 -49.680426 
L 463.229102 -49.680426 
L 463.870313 -49.680426 
L 464.511524 -49.680426 
L 465.152734 -49.680426 
L 465.793945 -49.680426 
L 466.435155 -49.680426 
L 467.076366 -49.680426 
L 467.717577 -49.680426 
L 468.358787 -49.680426 
L 468.999998 -49.680426 
L 469.641208 -49.680426 
L 470.282419 -49.680426 
L 470.92363 -49.680426 
L 471.56484 -49.680426 
L 472.206051 -49.680426 
L 472.847261 -49.680426 
L 473.488472 -49.680426 
L 474.129683 -49.680426 
L 474.770893 -49.680426 
L 475.412104 -49.680426 
L 476.053314 -49.680426 
L 476.694525 -49.680426 
L 477.335736 -49.680426 
L 477.976946 -49.680426 
L 478.618157 -49.680426 
L 479.259367 -49.680426 
L 479.900578 -49.680426 
L 480.541789 -49.680426 
L 481.182999 -49.680426 
L 481.82421 -49.680426 
L 482.46542 -49.680426 
L 483.106631 -49.680426 
L 483.747842 -49.680426 
L 484.389052 -49.680426 
L 485.030263 -49.680426 
L 485.671473 -49.680426 
L 486.312684 -49.680426 
L 486.953895 -49.680426 
L 487.595105 -49.680426 
L 488.236316 -49.680426 
L 488.877526 -49.680426 
L 489.518737 -49.680426 
L 490.159948 -49.680426 
L 490.801158 -49.680426 
L 491.442369 -49.680426 
L 492.08358 -49.680426 
L 492.72479 -49.680426 
L 493.366001 -49.680426 
L 494.007211 -49.680426 
L 494.648422 -49.680426 
L 495.289633 -49.680426 
L 495.930843 -49.680426 
L 496.572054 -49.680426 
L 497.213264 -49.680426 
L 497.854475 -49.680426 
L 498.495686 -49.680426 
L 499.136896 -49.680426 
L 499.778107 -49.680426 
L 500.419317 -49.680426 
L 501.060528 -49.680426 
L 501.701739 -49.680426 
L 502.342949 -49.680426 
L 502.98416 -49.680426 
L 503.62537 -49.680426 
L 504.266581 -49.680426 
L 504.907792 -49.680426 
L 505.549002 -49.680426 
L 506.190213 -49.680426 
L 506.831423 -49.680426 
L 507.472634 -49.680426 
L 508.113845 -49.680426 
L 508.755055 -49.680426 
L 509.396266 -49.680426 
L 510.037476 -49.680426 
L 510.678687 -49.680426 
L 511.319898 -49.680426 
L 511.961108 -49.680426 
L 512.602319 -49.680426 
L 513.243529 -49.680426 
L 513.88474 -49.680426 
L 514.525951 -49.680426 
L 515.167161 -49.680426 
L 515.808372 -49.680426 
L 516.449582 -49.680426 
L 517.090793 -49.680426 
L 517.732004 -49.680426 
L 518.373214 -49.680426 
L 519.014425 -49.680426 
L 519.655635 -49.680426 
L 520.296846 -49.680426 
L 520.938057 -49.680426 
L 521.579267 -49.680426 
L 522.220478 -49.680426 
L 522.861689 -49.680426 
L 523.502899 -49.680426 
L 524.14411 -49.680426 
L 524.78532 -49.680426 
L 525.426531 -49.680426 
L 526.067742 -49.680426 
L 526.708952 -49.680426 
L 527.350163 -49.680426 
L 527.991373 -49.680426 
L 528.632584 -49.680426 
L 529.273795 -49.680426 
L 529.915005 -49.680426 
L 530.556216 -49.680426 
L 531.197426 -49.680426 
L 531.838637 -49.680426 
L 532.479848 -49.680426 
L 533.121058 -49.680426 
L 533.762269 -49.680426 
L 534.403479 -49.680426 
L 535.04469 -49.680426 
L 535.685901 -49.680426 
L 536.327111 -49.680426 
L 536.968322 -49.680426 
L 537.609532 -49.680426 
L 538.250743 -49.680426 
L 538.891954 -49.680426 
L 539.533164 -49.680426 
L 540.174375 -49.680426 
L 540.815585 -49.680426 
L 541.456796 -49.680426 
L 542.098007 -49.680426 
L 542.739217 -49.680426 
L 543.380428 -49.680426 
L 544.021638 -49.680426 
L 544.662849 -49.680426 
L 545.30406 -49.680426 
L 545.94527 -49.680426 
L 546.586481 -49.680426 
L 547.227691 -49.680426 
L 547.868902 -49.680426 
L 548.510113 -49.680426 
L 549.151323 -49.680426 
L 549.792534 -49.680426 
L 550.433744 -49.680426 
L 551.074955 -49.680426 
L 551.716166 -49.680426 
L 552.357376 -49.680426 
L 552.998587 -49.680426 
L 553.639798 -49.680426 
L 554.281008 -49.680426 
L 554.922219 -49.680426 
L 555.563429 -49.680426 
L 556.20464 -49.680426 
L 556.845851 -49.680426 
L 557.487061 -49.680426 
L 558.128272 -49.680426 
L 558.769482 -49.680426 
L 559.410693 -49.680426 
L 560.051904 -49.680426 
L 560.693114 -49.680426 
L 561.334325 -49.680426 
L 561.975535 -49.680426 
L 562.616746 -49.680426 
L 563.257957 -49.680426 
L 563.899167 -49.680426 
L 564.540378 -49.680426 
L 565.181588 -49.680426 
L 565.822799 -49.680426 
L 566.46401 -49.680426 
L 567.10522 -49.680426 
L 567.746431 -49.680426 
L 568.387641 -49.680426 
L 569.028852 -49.680426 
L 569.670063 -49.680426 
L 570.311273 -49.680426 
L 570.952484 -49.680426 
L 571.593694 -49.680426 
L 572.234905 -49.680426 
L 572.876116 -49.680426 
L 573.517326 -49.680426 
L 574.158537 -49.680426 
L 574.799747 -49.680426 
L 575.440958 -49.680426 
L 576.082169 -49.680426 
L 576.723379 -49.680426 
L 577.36459 -49.680426 
L 578.0058 -49.680426 
L 578.647011 -49.680426 
L 579.288222 -49.680426 
L 579.929432 -49.680426 
L 580.570643 -49.680426 
L 581.211853 -49.680426 
L 581.853064 -49.680426 
L 582.494275 -49.680426 
L 583.135485 -49.680426 
L 583.776696 -49.680426 
L 584.417907 -49.680426 
L 585.059117 -49.680426 
L 585.700328 -49.680426 
L 586.341538 -49.680426 
L 586.982749 -49.680426 
L 587.62396 -49.680426 
L 588.26517 -49.680426 
L 588.906381 -49.680426 
L 589.547591 -49.680426 
L 590.188802 -49.680426 
L 590.830013 -49.680426 
L 591.471223 -49.680426 
L 592.112434 -49.680426 
L 592.753644 -49.680426 
L 593.394855 -49.680426 
L 594.036066 -49.680426 
L 594.677276 -49.680426 
L 595.318487 -49.680426 
L 595.959697 -49.680426 
L 596.600908 -49.680426 
L 597.242119 -49.680426 
L 597.883329 -49.680426 
L 598.52454 -49.680426 
L 599.16575 -49.680426 
L 599.806961 -49.680426 
L 600.448172 -49.680426 
L 601.089382 -49.680426 
L 601.730593 -49.680426 
L 602.371803 -49.680426 
L 603.013014 -49.680426 
L 603.654225 -49.680426 
L 604.295435 -49.680426 
L 604.936646 -49.680426 
L 605.577856 -49.680426 
L 606.219067 -49.680426 
L 606.860278 -49.680426 
L 607.501488 -49.680426 
L 608.142699 -49.680426 
L 608.142699 -49.680426 
L 608.142699 -49.680426 
L 607.501488 -49.681405 
L 606.860278 -49.684341 
L 606.219067 -49.689235 
L 605.577856 -49.696086 
L 604.936646 -49.704894 
L 604.295435 -49.715659 
L 603.654225 -49.728381 
L 603.013014 -49.74306 
L 602.371803 -49.759695 
L 601.730593 -49.778286 
L 601.089382 -49.798833 
L 600.448172 -49.821336 
L 599.806961 -49.845793 
L 599.16575 -49.872205 
L 598.52454 -49.900571 
L 597.883329 -49.930891 
L 597.242119 -49.963164 
L 596.600908 -49.99739 
L 595.959697 -50.033567 
L 595.318487 -50.071696 
L 594.677276 -50.111775 
L 594.036066 -50.153804 
L 593.394855 -50.197782 
L 592.753644 -50.243709 
L 592.112434 -50.291583 
L 591.471223 -50.341405 
L 590.830013 -50.393172 
L 590.188802 -50.446884 
L 589.547591 -50.50254 
L 588.906381 -50.560139 
L 588.26517 -50.61968 
L 587.62396 -50.681162 
L 586.982749 -50.744584 
L 586.341538 -50.809945 
L 585.700328 -50.877244 
L 585.059117 -50.946479 
L 584.417907 -51.017649 
L 583.776696 -51.090753 
L 583.135485 -51.165791 
L 582.494275 -51.242759 
L 581.853064 -51.321658 
L 581.211853 -51.402485 
L 580.570643 -51.48524 
L 579.929432 -51.56992 
L 579.288222 -51.656525 
L 578.647011 -51.745052 
L 578.0058 -51.835501 
L 577.36459 -51.92787 
L 576.723379 -52.022156 
L 576.082169 -52.118359 
L 575.440958 -52.216477 
L 574.799747 -52.316508 
L 574.158537 -52.418449 
L 573.517326 -52.522301 
L 572.876116 -52.62806 
L 572.234905 -52.735725 
L 571.593694 -52.845293 
L 570.952484 -52.956764 
L 570.311273 -53.070134 
L 569.670063 -53.185403 
L 569.028852 -53.302568 
L 568.387641 -53.421626 
L 567.746431 -53.542576 
L 567.10522 -53.665416 
L 566.46401 -53.790144 
L 565.822799 -53.916757 
L 565.181588 -54.045253 
L 564.540378 -54.17563 
L 563.899167 -54.307886 
L 563.257957 -54.442018 
L 562.616746 -54.578024 
L 561.975535 -54.715902 
L 561.334325 -54.855648 
L 560.693114 -54.997262 
L 560.051904 -55.140739 
L 559.410693 -55.286078 
L 558.769482 -55.433277 
L 558.128272 -55.582332 
L 557.487061 -55.73324 
L 556.845851 -55.886001 
L 556.20464 -56.040609 
L 555.563429 -56.197064 
L 554.922219 -56.355362 
L 554.281008 -56.5155 
L 553.639798 -56.677475 
L 552.998587 -56.841286 
L 552.357376 -57.006928 
L 551.716166 -57.174399 
L 551.074955 -57.343697 
L 550.433744 -57.514817 
L 549.792534 -57.687757 
L 549.151323 -57.862514 
L 548.510113 -58.039085 
L 547.868902 -58.217467 
L 547.227691 -58.397657 
L 546.586481 -58.579651 
L 545.94527 -58.763447 
L 545.30406 -58.949041 
L 544.662849 -59.136429 
L 544.021638 -59.325609 
L 543.380428 -59.516578 
L 542.739217 -59.709331 
L 542.098007 -59.903866 
L 541.456796 -60.100179 
L 540.815585 -60.298266 
L 540.174375 -60.498125 
L 539.533164 -60.699751 
L 538.891954 -60.903142 
L 538.250743 -61.108293 
L 537.609532 -61.315201 
L 536.968322 -61.523863 
L 536.327111 -61.734274 
L 535.685901 -61.946431 
L 535.04469 -62.160331 
L 534.403479 -62.375969 
L 533.762269 -62.593341 
L 533.121058 -62.812445 
L 532.479848 -63.033276 
L 531.838637 -63.25583 
L 531.197426 -63.480103 
L 530.556216 -63.706091 
L 529.915005 -63.933791 
L 529.273795 -64.163199 
L 528.632584 -64.394309 
L 527.991373 -64.627119 
L 527.350163 -64.861625 
L 526.708952 -65.097821 
L 526.067742 -65.335704 
L 525.426531 -65.57527 
L 524.78532 -65.816515 
L 524.14411 -66.059434 
L 523.502899 -66.304024 
L 522.861689 -66.550279 
L 522.220478 -66.798195 
L 521.579267 -67.047769 
L 520.938057 -67.298995 
L 520.296846 -67.55187 
L 519.655635 -67.806389 
L 519.014425 -68.062547 
L 518.373214 -68.32034 
L 517.732004 -68.579764 
L 517.090793 -68.840813 
L 516.449582 -69.103484 
L 515.808372 -69.367771 
L 515.167161 -69.633671 
L 514.525951 -69.901178 
L 513.88474 -70.170287 
L 513.243529 -70.440995 
L 512.602319 -70.713296 
L 511.961108 -70.987185 
L 511.319898 -71.262658 
L 510.678687 -71.539709 
L 510.037476 -71.818335 
L 509.396266 -72.09853 
L 508.755055 -72.380288 
L 508.113845 -72.663606 
L 507.472634 -72.948479 
L 506.831423 -73.2349 
L 506.190213 -73.522866 
L 505.549002 -73.812371 
L 504.907792 -74.10341 
L 504.266581 -74.395977 
L 503.62537 -74.690069 
L 502.98416 -74.985679 
L 502.342949 -75.282803 
L 501.701739 -75.581435 
L 501.060528 -75.881571 
L 500.419317 -76.183203 
L 499.778107 -76.486329 
L 499.136896 -76.790941 
L 498.495686 -77.097036 
L 497.854475 -77.404607 
L 497.213264 -77.713648 
L 496.572054 -78.024156 
L 495.930843 -78.336123 
L 495.289633 -78.649546 
L 494.648422 -78.964417 
L 494.007211 -79.280732 
L 493.366001 -79.598486 
L 492.72479 -79.917672 
L 492.08358 -80.238284 
L 491.442369 -80.560319 
L 490.801158 -80.883768 
L 490.159948 -81.208628 
L 489.518737 -81.534892 
L 488.877526 -81.862555 
L 488.236316 -82.19161 
L 487.595105 -82.522053 
L 486.953895 -82.853877 
L 486.312684 -83.187076 
L 485.671473 -83.521645 
L 485.030263 -83.857577 
L 484.389052 -84.194868 
L 483.747842 -84.53351 
L 483.106631 -84.873498 
L 482.46542 -85.214826 
L 481.82421 -85.557488 
L 481.182999 -85.901479 
L 480.541789 -86.246791 
L 479.900578 -86.593419 
L 479.259367 -86.941357 
L 478.618157 -87.290598 
L 477.976946 -87.641137 
L 477.335736 -87.992968 
L 476.694525 -88.346084 
L 476.053314 -88.700479 
L 475.412104 -89.056146 
L 474.770893 -89.413081 
L 474.129683 -89.771276 
L 473.488472 -90.130724 
L 472.847261 -90.491421 
L 472.206051 -90.853359 
L 471.56484 -91.216532 
L 470.92363 -91.580933 
L 470.282419 -91.946557 
L 469.641208 -92.313397 
L 468.999998 -92.681447 
L 468.358787 -93.050699 
L 467.717577 -93.421148 
L 467.076366 -93.792787 
L 466.435155 -94.165609 
L 465.793945 -94.539608 
L 465.152734 -94.914778 
L 464.511524 -95.291112 
L 463.870313 -95.668602 
L 463.229102 -96.047244 
L 462.587892 -96.427029 
L 461.946681 -96.807951 
L 461.305471 -97.190005 
L 460.66426 -97.573182 
L 460.023049 -97.957476 
L 459.381839 -98.34288 
L 458.740628 -98.729389 
L 458.099417 -99.116994 
L 457.458207 -99.505689 
L 456.816996 -99.895467 
L 456.175786 -100.286322 
L 455.534575 -100.678247 
L 454.893364 -101.071234 
L 454.252154 -101.465277 
L 453.610943 -101.860369 
L 452.969733 -102.256502 
L 452.328522 -102.653671 
L 451.687311 -103.051868 
L 451.046101 -103.451086 
L 450.40489 -103.851317 
L 449.76368 -104.252556 
L 449.122469 -104.654795 
L 448.481258 -105.058027 
L 447.840048 -105.462244 
L 447.198837 -105.867441 
L 446.557627 -106.273609 
L 445.916416 -106.680741 
L 445.275205 -107.088831 
L 444.633995 -107.497871 
L 443.992784 -107.907854 
L 443.351574 -108.318773 
L 442.710363 -108.73062 
L 442.069152 -109.143389 
L 441.427942 -109.557072 
L 440.786731 -109.971662 
L 440.145521 -110.387152 
L 439.50431 -110.803534 
L 438.863099 -111.2208 
L 438.221889 -111.638945 
L 437.580678 -112.05796 
L 436.939468 -112.477838 
L 436.298257 -112.898572 
L 435.657046 -113.320154 
L 435.015836 -113.742576 
L 434.374625 -114.165833 
L 433.733415 -114.589915 
L 433.092204 -115.014816 
L 432.450993 -115.440528 
L 431.809783 -115.867044 
L 431.168572 -116.294355 
L 430.527362 -116.722456 
L 429.886151 -117.151338 
L 429.24494 -117.580993 
L 428.60373 -118.011415 
L 427.962519 -118.442595 
L 427.321308 -118.874526 
L 426.680098 -119.3072 
L 426.038887 -119.74061 
L 425.397677 -120.174749 
L 424.756466 -120.609608 
L 424.115255 -121.04518 
L 423.474045 -121.481457 
L 422.832834 -121.918432 
L 422.191624 -122.356097 
L 421.550413 -122.794445 
L 420.909202 -123.233467 
L 420.267992 -123.673156 
L 419.626781 -124.113504 
L 418.985571 -124.554504 
L 418.34436 -124.996147 
L 417.703149 -125.438426 
L 417.061939 -125.881334 
L 416.420728 -126.324862 
L 415.779518 -126.769003 
L 415.138307 -127.213749 
L 414.497096 -127.659091 
L 413.855886 -128.105024 
L 413.214675 -128.551537 
L 412.573465 -128.998624 
L 411.932254 -129.446277 
L 411.291043 -129.894488 
L 410.649833 -130.343249 
L 410.008622 -130.792552 
L 409.367412 -131.242389 
L 408.726201 -131.692753 
L 408.08499 -132.143636 
L 407.44378 -132.595028 
L 406.802569 -133.046924 
L 406.161359 -133.499314 
L 405.520148 -133.952191 
L 404.878937 -134.405547 
L 404.237727 -134.859374 
L 403.596516 -135.313664 
L 402.955306 -135.768409 
L 402.314095 -136.223601 
L 401.672884 -136.679232 
L 401.031674 -137.135294 
L 400.390463 -137.591778 
L 399.749253 -138.048678 
L 399.108042 -138.505985 
L 398.466831 -138.963691 
L 397.825621 -139.421788 
L 397.18441 -139.880267 
L 396.543199 -140.339122 
L 395.901989 -140.798343 
L 395.260778 -141.257923 
L 394.619568 -141.717854 
L 393.978357 -142.178127 
L 393.337146 -142.638735 
L 392.695936 -143.099669 
L 392.054725 -143.560922 
L 391.413515 -144.022484 
L 390.772304 -144.48435 
L 390.131093 -144.946509 
L 389.489883 -145.408954 
L 388.848672 -145.871677 
L 388.207462 -146.334669 
L 387.566251 -146.797923 
L 386.92504 -147.261431 
L 386.28383 -147.725184 
L 385.642619 -148.189175 
L 385.001409 -148.653394 
L 384.360198 -149.117834 
L 383.718987 -149.582487 
L 383.077777 -150.047345 
L 382.436566 -150.512399 
L 381.795356 -150.977641 
L 381.154145 -151.443064 
L 380.512934 -151.908658 
L 379.871724 -152.374416 
L 379.230513 -152.84033 
L 378.589303 -153.306391 
L 377.948092 -153.772592 
L 377.306881 -154.238924 
L 376.665671 -154.705378 
L 376.02446 -155.171948 
L 375.38325 -155.638624 
L 374.742039 -156.105398 
L 374.100828 -156.572262 
L 373.459618 -157.039209 
L 372.818407 -157.506229 
L 372.177197 -157.973315 
L 371.535986 -158.440458 
L 370.894775 -158.90765 
L 370.253565 -159.374883 
L 369.612354 -159.842149 
L 368.971144 -160.30944 
L 368.329933 -160.776747 
L 367.688722 -161.244062 
L 367.047512 -161.711378 
L 366.406301 -162.178685 
L 365.76509 -162.645976 
L 365.12388 -163.113242 
L 364.482669 -163.580475 
L 363.841459 -164.047667 
L 363.200248 -164.51481 
L 362.559037 -164.981896 
L 361.917827 -165.448916 
L 361.276616 -165.915863 
L 360.635406 -166.382727 
L 359.994195 -166.849501 
L 359.352984 -167.316177 
L 358.711774 -167.782747 
L 358.070563 -168.249201 
L 357.429353 -168.715533 
L 356.788142 -169.181734 
L 356.146931 -169.647795 
L 355.505721 -170.113709 
L 354.86451 -170.579467 
L 354.2233 -171.045061 
L 353.582089 -171.510484 
L 352.940878 -171.975726 
L 352.299668 -172.44078 
L 351.658457 -172.905638 
L 351.017247 -173.370291 
L 350.376036 -173.834731 
L 349.734825 -174.29895 
L 349.093615 -174.762941 
L 348.452404 -175.226694 
L 347.811194 -175.690202 
L 347.169983 -176.153456 
L 346.528772 -176.616448 
L 345.887562 -177.079171 
L 345.246351 -177.541616 
L 344.605141 -178.003775 
L 343.96393 -178.465641 
L 343.322719 -178.927203 
L 342.681509 -179.388456 
L 342.040298 -179.84939 
L 341.399088 -180.309998 
L 340.757877 -180.770271 
L 340.116666 -181.230202 
L 339.475456 -181.689782 
L 338.834245 -182.149003 
L 338.193035 -182.607858 
L 337.551824 -183.066337 
L 336.910613 -183.524434 
L 336.269403 -183.98214 
L 335.628192 -184.439447 
L 334.986981 -184.896347 
L 334.345771 -185.352831 
L 333.70456 -185.808893 
L 333.06335 -186.264524 
L 332.422139 -186.719716 
L 331.780928 -187.174461 
L 331.139718 -187.628751 
L 330.498507 -188.082578 
L 329.857297 -188.535934 
L 329.216086 -188.988811 
L 328.574875 -189.441201 
L 327.933665 -189.893097 
L 327.292454 -190.344489 
L 326.651244 -190.795372 
L 326.010033 -191.245736 
L 325.368822 -191.695573 
L 324.727612 -192.144876 
L 324.086401 -192.593637 
L 323.445191 -193.041848 
L 322.80398 -193.489501 
L 322.162769 -193.936588 
L 321.521559 -194.383101 
L 320.880348 -194.829034 
L 320.239138 -195.274376 
L 319.597927 -195.719122 
L 318.956716 -196.163263 
L 318.315506 -196.606791 
L 317.674295 -197.049699 
L 317.033085 -197.491978 
L 316.391874 -197.933621 
L 315.750663 -198.374621 
L 315.109453 -198.814969 
L 314.468242 -199.254658 
L 313.827032 -199.69368 
L 313.185821 -200.132028 
L 312.54461 -200.569693 
L 311.9034 -201.006668 
L 311.262189 -201.442945 
L 310.620979 -201.878517 
L 309.979768 -202.313376 
L 309.338557 -202.747515 
L 308.697347 -203.180925 
L 308.056136 -203.613599 
L 307.414926 -204.04553 
L 306.773715 -204.47671 
L 306.132504 -204.907132 
L 305.491294 -205.336787 
L 304.850083 -205.765669 
L 304.208872 -206.19377 
L 303.567662 -206.621081 
L 302.926451 -207.047597 
L 302.285241 -207.473309 
L 301.64403 -207.89821 
L 301.002819 -208.322292 
L 300.361609 -208.745549 
L 299.720398 -209.167971 
L 299.079188 -209.589553 
L 298.437977 -210.010287 
L 297.796766 -210.430165 
L 297.155556 -210.84918 
L 296.514345 -211.267325 
L 295.873135 -211.684591 
L 295.231924 -212.100973 
L 294.590713 -212.516463 
L 293.949503 -212.931053 
L 293.308292 -213.344736 
L 292.667082 -213.757505 
L 292.025871 -214.169352 
L 291.38466 -214.580271 
L 290.74345 -214.990254 
L 290.102239 -215.399294 
L 289.461029 -215.807384 
L 288.819818 -216.214516 
L 288.178607 -216.620684 
L 287.537397 -217.025881 
L 286.896186 -217.430098 
L 286.254976 -217.83333 
L 285.613765 -218.235569 
L 284.972554 -218.636808 
L 284.331344 -219.037039 
L 283.690133 -219.436257 
L 283.048923 -219.834454 
L 282.407712 -220.231623 
L 281.766501 -220.627756 
L 281.125291 -221.022848 
L 280.48408 -221.416891 
L 279.84287 -221.809878 
L 279.201659 -222.201803 
L 278.560448 -222.592658 
L 277.919238 -222.982436 
L 277.278027 -223.371131 
L 276.636817 -223.758736 
L 275.995606 -224.145245 
L 275.354395 -224.530649 
L 274.713185 -224.914943 
L 274.071974 -225.29812 
L 273.430763 -225.680174 
L 272.789553 -226.061096 
L 272.148342 -226.440881 
L 271.507132 -226.819523 
L 270.865921 -227.197013 
L 270.22471 -227.573347 
L 269.5835 -227.948517 
L 268.942289 -228.322516 
L 268.301079 -228.695338 
L 267.659868 -229.066977 
L 267.018657 -229.437426 
L 266.377447 -229.806678 
L 265.736236 -230.174728 
L 265.095026 -230.541568 
L 264.453815 -230.907192 
L 263.812604 -231.271593 
L 263.171394 -231.634766 
L 262.530183 -231.996704 
L 261.888973 -232.357401 
L 261.247762 -232.716849 
L 260.606551 -233.075044 
L 259.965341 -233.431979 
L 259.32413 -233.787646 
L 258.68292 -234.142041 
L 258.041709 -234.495157 
L 257.400498 -234.846988 
L 256.759288 -235.197527 
L 256.118077 -235.546768 
L 255.476867 -235.894706 
L 254.835656 -236.241334 
L 254.194445 -236.586646 
L 253.553235 -236.930637 
L 252.912024 -237.273299 
L 252.270814 -237.614627 
L 251.629603 -237.954615 
L 250.988392 -238.293257 
L 250.347182 -238.630548 
L 249.705971 -238.96648 
L 249.064761 -239.301049 
L 248.42355 -239.634248 
L 247.782339 -239.966072 
L 247.141129 -240.296515 
L 246.499918 -240.62557 
L 245.858708 -240.953233 
L 245.217497 -241.279497 
L 244.576286 -241.604357 
L 243.935076 -241.927806 
L 243.293865 -242.249841 
L 242.652654 -242.570453 
L 242.011444 -242.889639 
L 241.370233 -243.207393 
L 240.729023 -243.523708 
L 240.087812 -243.838579 
L 239.446601 -244.152002 
L 238.805391 -244.463969 
L 238.16418 -244.774477 
L 237.52297 -245.083518 
L 236.881759 -245.391089 
L 236.240548 -245.697184 
L 235.599338 -246.001796 
L 234.958127 -246.304922 
L 234.316917 -246.606554 
L 233.675706 -246.90669 
L 233.034495 -247.205322 
L 232.393285 -247.502446 
L 231.752074 -247.798056 
L 231.110864 -248.092148 
L 230.469653 -248.384715 
L 229.828442 -248.675754 
L 229.187232 -248.965259 
L 228.546021 -249.253225 
L 227.904811 -249.539646 
L 227.2636 -249.824519 
L 226.622389 -250.107837 
L 225.981179 -250.389595 
L 225.339968 -250.66979 
L 224.698758 -250.948416 
L 224.057547 -251.225467 
L 223.416336 -251.50094 
L 222.775126 -251.774829 
L 222.133915 -252.04713 
L 221.492705 -252.317838 
L 220.851494 -252.586947 
L 220.210283 -252.854454 
L 219.569073 -253.120354 
L 218.927862 -253.384641 
L 218.286652 -253.647312 
L 217.645441 -253.908361 
L 217.00423 -254.167785 
L 216.36302 -254.425578 
L 215.721809 -254.681736 
L 215.080599 -254.936255 
L 214.439388 -255.18913 
L 213.798177 -255.440356 
L 213.156967 -255.68993 
L 212.515756 -255.937846 
L 211.874545 -256.184101 
L 211.233335 -256.428691 
L 210.592124 -256.67161 
L 209.950914 -256.912855 
L 209.309703 -257.152421 
L 208.668492 -257.390304 
L 208.027282 -257.6265 
L 207.386071 -257.861006 
L 206.744861 -258.093816 
L 206.10365 -258.324926 
L 205.462439 -258.554334 
L 204.821229 -258.782034 
L 204.180018 -259.008022 
L 203.538808 -259.232295 
L 202.897597 -259.454849 
L 202.256386 -259.67568 
L 201.615176 -259.894784 
L 200.973965 -260.112156 
L 200.332755 -260.327794 
L 199.691544 -260.541694 
L 199.050333 -260.753851 
L 198.409123 -260.964262 
L 197.767912 -261.172924 
L 197.126702 -261.379832 
L 196.485491 -261.584983 
L 195.84428 -261.788374 
L 195.20307 -261.99 
L 194.561859 -262.189859 
L 193.920649 -262.387946 
L 193.279438 -262.584259 
L 192.638227 -262.778794 
L 191.997017 -262.971547 
L 191.355806 -263.162516 
L 190.714596 -263.351696 
L 190.073385 -263.539084 
L 189.432174 -263.724678 
L 188.790964 -263.908474 
L 188.149753 -264.090468 
L 187.508543 -264.270658 
L 186.867332 -264.44904 
L 186.226121 -264.625611 
L 185.584911 -264.800368 
L 184.9437 -264.973308 
L 184.30249 -265.144428 
L 183.661279 -265.313726 
L 183.020068 -265.481197 
L 182.378858 -265.646839 
L 181.737647 -265.81065 
L 181.096436 -265.972625 
L 180.455226 -266.132763 
L 179.814015 -266.291061 
L 179.172805 -266.447516 
L 178.531594 -266.602124 
L 177.890383 -266.754885 
L 177.249173 -266.905793 
L 176.607962 -267.054848 
L 175.966752 -267.202047 
L 175.325541 -267.347386 
L 174.68433 -267.490863 
L 174.04312 -267.632477 
L 173.401909 -267.772223 
L 172.760699 -267.910101 
L 172.119488 -268.046107 
L 171.478277 -268.180239 
L 170.837067 -268.312495 
L 170.195856 -268.442872 
L 169.554646 -268.571368 
L 168.913435 -268.697981 
L 168.272224 -268.822709 
L 167.631014 -268.945549 
L 166.989803 -269.066499 
L 166.348593 -269.185557 
L 165.707382 -269.302722 
L 165.066171 -269.417991 
L 164.424961 -269.531361 
L 163.78375 -269.642832 
L 163.14254 -269.7524 
L 162.501329 -269.860065 
L 161.860118 -269.965824 
L 161.218908 -270.069676 
L 160.577697 -270.171617 
L 159.936487 -270.271648 
L 159.295276 -270.369766 
L 158.654065 -270.465969 
L 158.012855 -270.560255 
L 157.371644 -270.652624 
L 156.730434 -270.743073 
L 156.089223 -270.8316 
L 155.448012 -270.918205 
L 154.806802 -271.002885 
L 154.165591 -271.08564 
L 153.524381 -271.166467 
L 152.88317 -271.245366 
L 152.241959 -271.322334 
L 151.600749 -271.397372 
L 150.959538 -271.470476 
L 150.318327 -271.541646 
L 149.677117 -271.610881 
L 149.035906 -271.67818 
L 148.394696 -271.743541 
L 147.753485 -271.806963 
L 147.112274 -271.868445 
L 146.471064 -271.927986 
L 145.829853 -271.985585 
L 145.188643 -272.041241 
L 144.547432 -272.094953 
L 143.906221 -272.14672 
L 143.265011 -272.196542 
L 142.6238 -272.244416 
L 141.98259 -272.290343 
L 141.341379 -272.334321 
L 140.700168 -272.37635 
L 140.058958 -272.416429 
L 139.417747 -272.454558 
L 138.776537 -272.490735 
L 138.135326 -272.524961 
L 137.494115 -272.557234 
L 136.852905 -272.587554 
L 136.211694 -272.61592 
L 135.570484 -272.642332 
L 134.929273 -272.666789 
L 134.288062 -272.689292 
L 133.646852 -272.709839 
L 133.005641 -272.72843 
L 132.364431 -272.745065 
L 131.72322 -272.759744 
L 131.082009 -272.772466 
L 130.440799 -272.783231 
L 129.799588 -272.792039 
L 129.158378 -272.79889 
L 128.517167 -272.803784 
L 127.875956 -272.80672 
L 127.234746 -272.807699 
L 126.593535 -268.345153 
L 125.952325 -263.882608 
L 125.311114 -259.420062 
L 124.669903 -254.957517 
L 124.028693 -250.494972 
L 123.387482 -246.032426 
L 122.746272 -241.569881 
L 122.105061 -237.107335 
L 121.46385 -232.64479 
L 120.82264 -228.182244 
L 120.181429 -223.719699 
L 119.540218 -219.257153 
L 118.899008 -214.794608 
L 118.257797 -210.332063 
L 117.616587 -205.869517 
L 116.975376 -201.406972 
L 116.334165 -196.944426 
L 115.692955 -192.481881 
L 115.051744 -188.019335 
L 114.410534 -183.55679 
L 113.769323 -179.094244 
L 113.128112 -174.631699 
L 112.486902 -170.169153 
L 111.845691 -165.706608 
L 111.204481 -161.244062 
L 110.56327 -156.781517 
L 109.922059 -152.318972 
L 109.280849 -147.856426 
L 108.639638 -143.393881 
L 107.998428 -138.931335 
L 107.357217 -134.46879 
L 106.716006 -130.006244 
L 106.074796 -125.543699 
L 105.433585 -121.081153 
L 104.792375 -116.618608 
L 104.151164 -112.156062 
L 103.509953 -107.693517 
L 102.868743 -103.230972 
L 102.227532 -98.768426 
L 101.586322 -94.305881 
L 100.945111 -89.843335 
L 100.3039 -85.38079 
L 99.66269 -80.918244 
L 99.021479 -76.455699 
L 98.380269 -71.993153 
L 97.739058 -67.530608 
L 97.097847 -63.068062 
L 96.456637 -58.605517 
L 95.815426 -54.142972 
z
" style="stroke: #6366f1; stroke-opacity: 0.15"/>
    </defs>
    <g clip-path="url(#p90467dc049)">
     <use xlink:href="#mdbe87728f3" x="0" y="316.042031" style="fill: #6366f1; fill-opacity: 0.15; stroke: #6366f1; stroke-opacity: 0.15"/>
    </g>
   </g>
   <g id="matplotlib.axis_1">
    <g id="xtick_1">
     <g id="line2d_1">
      <path d="M 95.174216 277.517969 
L 95.174216 32.077969 
" clip-path="url(#p90467dc049)" style="fill: none; stroke-dasharray: 2.96,1.28; stroke-dashoffset: 0; stroke: #b0b0b0; stroke-opacity: 0.4; stroke-width: 0.8"/>
     </g>
     <g id="line2d_2">
      <defs>
       <path id="m07abcf1366" d="M 0 0 
L 0 3.5 
" style="stroke: #000000; stroke-width: 0.8"/>
      </defs>
      <g>
       <use xlink:href="#m07abcf1366" x="95.174216" y="277.517969" style="stroke: #000000; stroke-width: 0.8"/>
      </g>
     </g>
     <g id="text_1">
      <!-- 0 -->
      <g transform="translate(91.992966 292.116406) scale(0.1 -0.1)">
       <defs>
        <path id="DejaVuSans-30" d="M 2034 4250 
Q 1547 4250 1301 3770 
Q 1056 3291 1056 2328 
Q 1056 1369 1301 889 
Q 1547 409 2034 409 
Q 2525 409 2770 889 
Q 3016 1369 3016 2328 
Q 3016 3291 2770 3770 
Q 2525 4250 2034 4250 
z
M 2034 4750 
Q 2819 4750 3233 4129 
Q 3647 3509 3647 2328 
Q 3647 1150 3233 529 
Q 2819 -91 2034 -91 
Q 1250 -91 836 529 
Q 422 1150 422 2328 
Q 422 3509 836 4129 
Q 1250 4750 2034 4750 
z
" transform="scale(0.015625)"/>
       </defs>
       <use xlink:href="#DejaVuSans-30"/>
      </g>
     </g>
    </g>
    <g id="xtick_2">
     <g id="line2d_3">
      <path d="M 159.295276 277.517969 
L 159.295276 32.077969 
" clip-path="url(#p90467dc049)" style="fill: none; stroke-dasharray: 2.96,1.28; stroke-dashoffset: 0; stroke: #b0b0b0; stroke-opacity: 0.4; stroke-width: 0.8"/>
     </g>
     <g id="line2d_4">
      <g>
       <use xlink:href="#m07abcf1366" x="159.295276" y="277.517969" style="stroke: #000000; stroke-width: 0.8"/>
      </g>
     </g>
     <g id="text_2">
      <!-- 100 -->
      <g transform="translate(149.751526 292.116406) scale(0.1 -0.1)">
       <defs>
        <path id="DejaVuSans-31" d="M 794 531 
L 1825 531 
L 1825 4091 
L 703 3866 
L 703 4441 
L 1819 4666 
L 2450 4666 
L 2450 531 
L 3481 531 
L 3481 0 
L 794 0 
L 794 531 
z
" transform="scale(0.015625)"/>
       </defs>
       <use xlink:href="#DejaVuSans-31"/>
       <use xlink:href="#DejaVuSans-30" transform="translate(63.623047 0)"/>
       <use xlink:href="#DejaVuSans-30" transform="translate(127.246094 0)"/>
      </g>
     </g>
    </g>
    <g id="xtick_3">
     <g id="line2d_5">
      <path d="M 223.416336 277.517969 
L 223.416336 32.077969 
" clip-path="url(#p90467dc049)" style="fill: none; stroke-dasharray: 2.96,1.28; stroke-dashoffset: 0; stroke: #b0b0b0; stroke-opacity: 0.4; stroke-width: 0.8"/>
     </g>
     <g id="line2d_6">
      <g>
       <use xlink:href="#m07abcf1366" x="223.416336" y="277.517969" style="stroke: #000000; stroke-width: 0.8"/>
      </g>
     </g>
     <g id="text_3">
      <!-- 200 -->
      <g transform="translate(213.872586 292.116406) scale(0.1 -0.1)">
       <defs>
        <path id="DejaVuSans-32" d="M 1228 531 
L 3431 531 
L 3431 0 
L 469 0 
L 469 531 
Q 828 903 1448 1529 
Q 2069 2156 2228 2338 
Q 2531 2678 2651 2914 
Q 2772 3150 2772 3378 
Q 2772 3750 2511 3984 
Q 2250 4219 1831 4219 
Q 1534 4219 1204 4116 
Q 875 4013 500 3803 
L 500 4441 
Q 881 4594 1212 4672 
Q 1544 4750 1819 4750 
Q 2544 4750 2975 4387 
Q 3406 4025 3406 3419 
Q 3406 3131 3298 2873 
Q 3191 2616 2906 2266 
Q 2828 2175 2409 1742 
Q 1991 1309 1228 531 
z
" transform="scale(0.015625)"/>
       </defs>
       <use xlink:href="#DejaVuSans-32"/>
       <use xlink:href="#DejaVuSans-30" transform="translate(63.623047 0)"/>
       <use xlink:href="#DejaVuSans-30" transform="translate(127.246094 0)"/>
      </g>
     </g>
    </g>
    <g id="xtick_4">
     <g id="line2d_7">
      <path d="M 287.537397 277.517969 
L 287.537397 32.077969 
" clip-path="url(#p90467dc049)" style="fill: none; stroke-dasharray: 2.96,1.28; stroke-dashoffset: 0; stroke: #b0b0b0; stroke-opacity: 0.4; stroke-width: 0.8"/>
     </g>
     <g id="line2d_8">
      <g>
       <use xlink:href="#m07abcf1366" x="287.537397" y="277.517969" style="stroke: #000000; stroke-width: 0.8"/>
      </g>
     </g>
     <g id="text_4">
      <!-- 300 -->
      <g transform="translate(277.993647 292.116406) scale(0.1 -0.1)">
       <defs>
        <path id="DejaVuSans-33" d="M 2597 2516 
Q 3050 2419 3304 2112 
Q 3559 1806 3559 1356 
Q 3559 666 3084 287 
Q 2609 -91 1734 -91 
Q 1441 -91 1130 -33 
Q 819 25 488 141 
L 488 750 
Q 750 597 1062 519 
Q 1375 441 1716 441 
Q 2309 441 2620 675 
Q 2931 909 2931 1356 
Q 2931 1769 2642 2001 
Q 2353 2234 1838 2234 
L 1294 2234 
L 1294 2753 
L 1863 2753 
Q 2328 2753 2575 2939 
Q 2822 3125 2822 3475 
Q 2822 3834 2567 4026 
Q 2313 4219 1838 4219 
Q 1578 4219 1281 4162 
Q 984 4106 628 3988 
L 628 4550 
Q 988 4650 1302 4700 
Q 1616 4750 1894 4750 
Q 2613 4750 3031 4423 
Q 3450 4097 3450 3541 
Q 3450 3153 3228 2886 
Q 3006 2619 2597 2516 
z
" transform="scale(0.015625)"/>
       </defs>
       <use xlink:href="#DejaVuSans-33"/>
       <use xlink:href="#DejaVuSans-30" transform="translate(63.623047 0)"/>
       <use xlink:href="#DejaVuSans-30" transform="translate(127.246094 0)"/>
      </g>
     </g>
    </g>
    <g id="xtick_5">
     <g id="line2d_9">
      <path d="M 351.658457 277.517969 
L 351.658457 32.077969 
" clip-path="url(#p90467dc049)" style="fill: none; stroke-dasharray: 2.96,1.28; stroke-dashoffset: 0; stroke: #b0b0b0; stroke-opacity: 0.4; stroke-width: 0.8"/>
     </g>
     <g id="line2d_10">
      <g>
       <use xlink:href="#m07abcf1366" x="351.658457" y="277.517969" style="stroke: #000000; stroke-width: 0.8"/>
      </g>
     </g>
     <g id="text_5">
      <!-- 400 -->
      <g transform="translate(342.114707 292.116406) scale(0.1 -0.1)">
       <defs>
        <path id="DejaVuSans-34" d="M 2419 4116 
L 825 1625 
L 2419 1625 
L 2419 4116 
z
M 2253 4666 
L 3047 4666 
L 3047 1625 
L 3713 1625 
L 3713 1100 
L 3047 1100 
L 3047 0 
L 2419 0 
L 2419 1100 
L 313 1100 
L 313 1709 
L 2253 4666 
z
" transform="scale(0.015625)"/>
       </defs>
       <use xlink:href="#DejaVuSans-34"/>
       <use xlink:href="#DejaVuSans-30" transform="translate(63.623047 0)"/>
       <use xlink:href="#DejaVuSans-30" transform="translate(127.246094 0)"/>
      </g>
     </g>
    </g>
    <g id="xtick_6">
     <g id="line2d_11">
      <path d="M 415.779518 277.517969 
L 415.779518 32.077969 
" clip-path="url(#p90467dc049)" style="fill: none; stroke-dasharray: 2.96,1.28; stroke-dashoffset: 0; stroke: #b0b0b0; stroke-opacity: 0.4; stroke-width: 0.8"/>
     </g>
     <g id="line2d_12">
      <g>
       <use xlink:href="#m07abcf1366" x="415.779518" y="277.517969" style="stroke: #000000; stroke-width: 0.8"/>
      </g>
     </g>
     <g id="text_6">
      <!-- 500 -->
      <g transform="translate(406.235768 292.116406) scale(0.1 -0.1)">
       <defs>
        <path id="DejaVuSans-35" d="M 691 4666 
L 3169 4666 
L 3169 4134 
L 1269 4134 
L 1269 2991 
Q 1406 3038 1543 3061 
Q 1681 3084 1819 3084 
Q 2600 3084 3056 2656 
Q 3513 2228 3513 1497 
Q 3513 744 3044 326 
Q 2575 -91 1722 -91 
Q 1428 -91 1123 -41 
Q 819 9 494 109 
L 494 744 
Q 775 591 1075 516 
Q 1375 441 1709 441 
Q 2250 441 2565 725 
Q 2881 1009 2881 1497 
Q 2881 1984 2565 2268 
Q 2250 2553 1709 2553 
Q 1456 2553 1204 2497 
Q 953 2441 691 2322 
L 691 4666 
z
" transform="scale(0.015625)"/>
       </defs>
       <use xlink:href="#DejaVuSans-35"/>
       <use xlink:href="#DejaVuSans-30" transform="translate(63.623047 0)"/>
       <use xlink:href="#DejaVuSans-30" transform="translate(127.246094 0)"/>
      </g>
     </g>
    </g>
    <g id="xtick_7">
     <g id="line2d_13">
      <path d="M 479.900578 277.517969 
L 479.900578 32.077969 
" clip-path="url(#p90467dc049)" style="fill: none; stroke-dasharray: 2.96,1.28; stroke-dashoffset: 0; stroke: #b0b0b0; stroke-opacity: 0.4; stroke-width: 0.8"/>
     </g>
     <g id="line2d_14">
      <g>
       <use xlink:href="#m07abcf1366" x="479.900578" y="277.517969" style="stroke: #000000; stroke-width: 0.8"/>
      </g>
     </g>
     <g id="text_7">
      <!-- 600 -->
      <g transform="translate(470.356828 292.116406) scale(0.1 -0.1)">
       <defs>
        <path id="DejaVuSans-36" d="M 2113 2584 
Q 1688 2584 1439 2293 
Q 1191 2003 1191 1497 
Q 1191 994 1439 701 
Q 1688 409 2113 409 
Q 2538 409 2786 701 
Q 3034 994 3034 1497 
Q 3034 2003 2786 2293 
Q 2538 2584 2113 2584 
z
M 3366 4563 
L 3366 3988 
Q 3128 4100 2886 4159 
Q 2644 4219 2406 4219 
Q 1781 4219 1451 3797 
Q 1122 3375 1075 2522 
Q 1259 2794 1537 2939 
Q 1816 3084 2150 3084 
Q 2853 3084 3261 2657 
Q 3669 2231 3669 1497 
Q 3669 778 3244 343 
Q 2819 -91 2113 -91 
Q 1303 -91 875 529 
Q 447 1150 447 2328 
Q 447 3434 972 4092 
Q 1497 4750 2381 4750 
Q 2619 4750 2861 4703 
Q 3103 4656 3366 4563 
z
" transform="scale(0.015625)"/>
       </defs>
       <use xlink:href="#DejaVuSans-36"/>
       <use xlink:href="#DejaVuSans-30" transform="translate(63.623047 0)"/>
       <use xlink:href="#DejaVuSans-30" transform="translate(127.246094 0)"/>
      </g>
     </g>
    </g>
    <g id="xtick_8">
     <g id="line2d_15">
      <path d="M 544.021638 277.517969 
L 544.021638 32.077969 
" clip-path="url(#p90467dc049)" style="fill: none; stroke-dasharray: 2.96,1.28; stroke-dashoffset: 0; stroke: #b0b0b0; stroke-opacity: 0.4; stroke-width: 0.8"/>
     </g>
     <g id="line2d_16">
      <g>
       <use xlink:href="#m07abcf1366" x="544.021638" y="277.517969" style="stroke: #000000; stroke-width: 0.8"/>
      </g>
     </g>
     <g id="text_8">
      <!-- 700 -->
      <g transform="translate(534.477888 292.116406) scale(0.1 -0.1)">
       <defs>
        <path id="DejaVuSans-37" d="M 525 4666 
L 3525 4666 
L 3525 4397 
L 1831 0 
L 1172 0 
L 2766 4134 
L 525 4134 
L 525 4666 
z
" transform="scale(0.015625)"/>
       </defs>
       <use xlink:href="#DejaVuSans-37"/>
       <use xlink:href="#DejaVuSans-30" transform="translate(63.623047 0)"/>
       <use xlink:href="#DejaVuSans-30" transform="translate(127.246094 0)"/>
      </g>
     </g>
    </g>
    <g id="xtick_9">
     <g id="line2d_17">
      <path d="M 608.142699 277.517969 
L 608.142699 32.077969 
" clip-path="url(#p90467dc049)" style="fill: none; stroke-dasharray: 2.96,1.28; stroke-dashoffset: 0; stroke: #b0b0b0; stroke-opacity: 0.4; stroke-width: 0.8"/>
     </g>
     <g id="line2d_18">
      <g>
       <use xlink:href="#m07abcf1366" x="608.142699" y="277.517969" style="stroke: #000000; stroke-width: 0.8"/>
      </g>
     </g>
     <g id="text_9">
      <!-- 800 -->
      <g transform="translate(598.598949 292.116406) scale(0.1 -0.1)">
       <defs>
        <path id="DejaVuSans-38" d="M 2034 2216 
Q 1584 2216 1326 1975 
Q 1069 1734 1069 1313 
Q 1069 891 1326 650 
Q 1584 409 2034 409 
Q 2484 409 2743 651 
Q 3003 894 3003 1313 
Q 3003 1734 2745 1975 
Q 2488 2216 2034 2216 
z
M 1403 2484 
Q 997 2584 770 2862 
Q 544 3141 544 3541 
Q 544 4100 942 4425 
Q 1341 4750 2034 4750 
Q 2731 4750 3128 4425 
Q 3525 4100 3525 3541 
Q 3525 3141 3298 2862 
Q 3072 2584 2669 2484 
Q 3125 2378 3379 2068 
Q 3634 1759 3634 1313 
Q 3634 634 3220 271 
Q 2806 -91 2034 -91 
Q 1263 -91 848 271 
Q 434 634 434 1313 
Q 434 1759 690 2068 
Q 947 2378 1403 2484 
z
M 1172 3481 
Q 1172 3119 1398 2916 
Q 1625 2713 2034 2713 
Q 2441 2713 2670 2916 
Q 2900 3119 2900 3481 
Q 2900 3844 2670 4047 
Q 2441 4250 2034 4250 
Q 1625 4250 1398 4047 
Q 1172 3844 1172 3481 
z
" transform="scale(0.015625)"/>
       </defs>
       <use xlink:href="#DejaVuSans-38"/>
       <use xlink:href="#DejaVuSans-30" transform="translate(63.623047 0)"/>
       <use xlink:href="#DejaVuSans-30" transform="translate(127.246094 0)"/>
      </g>
     </g>
    </g>
    <g id="text_10">
     <!-- Training step -->
     <g transform="translate(316.635547 306.554375) scale(0.11 -0.11)">
      <defs>
       <path id="DejaVuSans-54" d="M -19 4666 
L 3928 4666 
L 3928 4134 
L 2272 4134 
L 2272 0 
L 1638 0 
L 1638 4134 
L -19 4134 
L -19 4666 
z
" transform="scale(0.015625)"/>
       <path id="DejaVuSans-72" d="M 2631 2963 
Q 2534 3019 2420 3045 
Q 2306 3072 2169 3072 
Q 1681 3072 1420 2755 
Q 1159 2438 1159 1844 
L 1159 0 
L 581 0 
L 581 3500 
L 1159 3500 
L 1159 2956 
Q 1341 3275 1631 3429 
Q 1922 3584 2338 3584 
Q 2397 3584 2469 3576 
Q 2541 3569 2628 3553 
L 2631 2963 
z
" transform="scale(0.015625)"/>
       <path id="DejaVuSans-61" d="M 2194 1759 
Q 1497 1759 1228 1600 
Q 959 1441 959 1056 
Q 959 750 1161 570 
Q 1363 391 1709 391 
Q 2188 391 2477 730 
Q 2766 1069 2766 1631 
L 2766 1759 
L 2194 1759 
z
M 3341 1997 
L 3341 0 
L 2766 0 
L 2766 531 
Q 2569 213 2275 61 
Q 1981 -91 1556 -91 
Q 1019 -91 701 211 
Q 384 513 384 1019 
Q 384 1609 779 1909 
Q 1175 2209 1959 2209 
L 2766 2209 
L 2766 2266 
Q 2766 2663 2505 2880 
Q 2244 3097 1772 3097 
Q 1472 3097 1187 3025 
Q 903 2953 641 2809 
L 641 3341 
Q 956 3463 1253 3523 
Q 1550 3584 1831 3584 
Q 2591 3584 2966 3190 
Q 3341 2797 3341 1997 
z
" transform="scale(0.015625)"/>
       <path id="DejaVuSans-69" d="M 603 3500 
L 1178 3500 
L 1178 0 
L 603 0 
L 603 3500 
z
M 603 4863 
L 1178 4863 
L 1178 4134 
L 603 4134 
L 603 4863 
z
" transform="scale(0.015625)"/>
       <path id="DejaVuSans-6e" d="M 3513 2113 
L 3513 0 
L 2938 0 
L 2938 2094 
Q 2938 2591 2744 2837 
Q 2550 3084 2163 3084 
Q 1697 3084 1428 2787 
Q 1159 2491 1159 1978 
L 1159 0 
L 581 0 
L 581 3500 
L 1159 3500 
L 1159 2956 
Q 1366 3272 1645 3428 
Q 1925 3584 2291 3584 
Q 2894 3584 3203 3211 
Q 3513 2838 3513 2113 
z
" transform="scale(0.015625)"/>
       <path id="DejaVuSans-67" d="M 2906 1791 
Q 2906 2416 2648 2759 
Q 2391 3103 1925 3103 
Q 1463 3103 1205 2759 
Q 947 2416 947 1791 
Q 947 1169 1205 825 
Q 1463 481 1925 481 
Q 2391 481 2648 825 
Q 2906 1169 2906 1791 
z
M 3481 434 
Q 3481 -459 3084 -895 
Q 2688 -1331 1869 -1331 
Q 1566 -1331 1297 -1286 
Q 1028 -1241 775 -1147 
L 775 -588 
Q 1028 -725 1275 -790 
Q 1522 -856 1778 -856 
Q 2344 -856 2625 -561 
Q 2906 -266 2906 331 
L 2906 616 
Q 2728 306 2450 153 
Q 2172 0 1784 0 
Q 1141 0 747 490 
Q 353 981 353 1791 
Q 353 2603 747 3093 
Q 1141 3584 1784 3584 
Q 2172 3584 2450 3431 
Q 2728 3278 2906 2969 
L 2906 3500 
L 3481 3500 
L 3481 434 
z
" transform="scale(0.015625)"/>
       <path id="DejaVuSans-20" transform="scale(0.015625)"/>
       <path id="DejaVuSans-73" d="M 2834 3397 
L 2834 2853 
Q 2591 2978 2328 3040 
Q 2066 3103 1784 3103 
Q 1356 3103 1142 2972 
Q 928 2841 928 2578 
Q 928 2378 1081 2264 
Q 1234 2150 1697 2047 
L 1894 2003 
Q 2506 1872 2764 1633 
Q 3022 1394 3022 966 
Q 3022 478 2636 193 
Q 2250 -91 1575 -91 
Q 1294 -91 989 -36 
Q 684 19 347 128 
L 347 722 
Q 666 556 975 473 
Q 1284 391 1588 391 
Q 1994 391 2212 530 
Q 2431 669 2431 922 
Q 2431 1156 2273 1281 
Q 2116 1406 1581 1522 
L 1381 1569 
Q 847 1681 609 1914 
Q 372 2147 372 2553 
Q 372 3047 722 3315 
Q 1072 3584 1716 3584 
Q 2034 3584 2315 3537 
Q 2597 3491 2834 3397 
z
" transform="scale(0.015625)"/>
       <path id="DejaVuSans-74" d="M 1172 4494 
L 1172 3500 
L 2356 3500 
L 2356 3053 
L 1172 3053 
L 1172 1153 
Q 1172 725 1289 603 
Q 1406 481 1766 481 
L 2356 481 
L 2356 0 
L 1766 0 
Q 1100 0 847 248 
Q 594 497 594 1153 
L 594 3053 
L 172 3053 
L 172 3500 
L 594 3500 
L 594 4494 
L 1172 4494 
z
" transform="scale(0.015625)"/>
       <path id="DejaVuSans-65" d="M 3597 1894 
L 3597 1613 
L 953 1613 
Q 991 1019 1311 708 
Q 1631 397 2203 397 
Q 2534 397 2845 478 
Q 3156 559 3463 722 
L 3463 178 
Q 3153 47 2828 -22 
Q 2503 -91 2169 -91 
Q 1331 -91 842 396 
Q 353 884 353 1716 
Q 353 2575 817 3079 
Q 1281 3584 2069 3584 
Q 2775 3584 3186 3129 
Q 3597 2675 3597 1894 
z
M 3022 2063 
Q 3016 2534 2758 2815 
Q 2500 3097 2075 3097 
Q 1594 3097 1305 2825 
Q 1016 2553 972 2059 
L 3022 2063 
z
" transform="scale(0.015625)"/>
       <path id="DejaVuSans-70" d="M 1159 525 
L 1159 -1331 
L 581 -1331 
L 581 3500 
L 1159 3500 
L 1159 2969 
Q 1341 3281 1617 3432 
Q 1894 3584 2278 3584 
Q 2916 3584 3314 3078 
Q 3713 2572 3713 1747 
Q 3713 922 3314 415 
Q 2916 -91 2278 -91 
Q 1894 -91 1617 61 
Q 1341 213 1159 525 
z
M 3116 1747 
Q 3116 2381 2855 2742 
Q 2594 3103 2138 3103 
Q 1681 3103 1420 2742 
Q 1159 2381 1159 1747 
Q 1159 1113 1420 752 
Q 1681 391 2138 391 
Q 2594 391 2855 752 
Q 3116 1113 3116 1747 
z
" transform="scale(0.015625)"/>
      </defs>
      <use xlink:href="#DejaVuSans-54"/>
      <use xlink:href="#DejaVuSans-72" transform="translate(46.333984 0)"/>
      <use xlink:href="#DejaVuSans-61" transform="translate(87.447266 0)"/>
      <use xlink:href="#DejaVuSans-69" transform="translate(148.726562 0)"/>
      <use xlink:href="#DejaVuSans-6e" transform="translate(176.509766 0)"/>
      <use xlink:href="#DejaVuSans-69" transform="translate(239.888672 0)"/>
      <use xlink:href="#DejaVuSans-6e" transform="translate(267.671875 0)"/>
      <use xlink:href="#DejaVuSans-67" transform="translate(331.050781 0)"/>
      <use xlink:href="#DejaVuSans-20" transform="translate(394.527344 0)"/>
      <use xlink:href="#DejaVuSans-73" transform="translate(426.314453 0)"/>
      <use xlink:href="#DejaVuSans-74" transform="translate(478.414062 0)"/>
      <use xlink:href="#DejaVuSans-65" transform="translate(517.623047 0)"/>
      <use xlink:href="#DejaVuSans-70" transform="translate(579.146484 0)"/>
     </g>
    </g>
   </g>
   <g id="matplotlib.axis_2">
    <g id="ytick_1">
     <g id="line2d_19">
      <path d="M 70.199063 266.361605 
L 633.759062 266.361605 
" clip-path="url(#p90467dc049)" style="fill: none; stroke-dasharray: 2.96,1.28; stroke-dashoffset: 0; stroke: #b0b0b0; stroke-opacity: 0.4; stroke-width: 0.8"/>
     </g>
     <g id="line2d_20">
      <defs>
       <path id="m3048295155" d="M 0 0 
L -3.5 0 
" style="stroke: #000000; stroke-width: 0.8"/>
      </defs>
      <g>
       <use xlink:href="#m3048295155" x="70.199063" y="266.361605" style="stroke: #000000; stroke-width: 0.8"/>
      </g>
     </g>
     <g id="text_11">
      <!-- 0.00000 -->
      <g transform="translate(21.845938 270.160824) scale(0.1 -0.1)">
       <defs>
        <path id="DejaVuSans-2e" d="M 684 794 
L 1344 794 
L 1344 0 
L 684 0 
L 684 794 
z
" transform="scale(0.015625)"/>
       </defs>
       <use xlink:href="#DejaVuSans-30"/>
       <use xlink:href="#DejaVuSans-2e" transform="translate(63.623047 0)"/>
       <use xlink:href="#DejaVuSans-30" transform="translate(95.410156 0)"/>
       <use xlink:href="#DejaVuSans-30" transform="translate(159.033203 0)"/>
       <use xlink:href="#DejaVuSans-30" transform="translate(222.65625 0)"/>
       <use xlink:href="#DejaVuSans-30" transform="translate(286.279297 0)"/>
       <use xlink:href="#DejaVuSans-30" transform="translate(349.902344 0)"/>
      </g>
     </g>
    </g>
    <g id="ytick_2">
     <g id="line2d_21">
      <path d="M 70.199063 221.736151 
L 633.759062 221.736151 
" clip-path="url(#p90467dc049)" style="fill: none; stroke-dasharray: 2.96,1.28; stroke-dashoffset: 0; stroke: #b0b0b0; stroke-opacity: 0.4; stroke-width: 0.8"/>
     </g>
     <g id="line2d_22">
      <g>
       <use xlink:href="#m3048295155" x="70.199063" y="221.736151" style="stroke: #000000; stroke-width: 0.8"/>
      </g>
     </g>
     <g id="text_12">
      <!-- 0.00002 -->
      <g transform="translate(21.845938 225.535369) scale(0.1 -0.1)">
       <use xlink:href="#DejaVuSans-30"/>
       <use xlink:href="#DejaVuSans-2e" transform="translate(63.623047 0)"/>
       <use xlink:href="#DejaVuSans-30" transform="translate(95.410156 0)"/>
       <use xlink:href="#DejaVuSans-30" transform="translate(159.033203 0)"/>
       <use xlink:href="#DejaVuSans-30" transform="translate(222.65625 0)"/>
       <use xlink:href="#DejaVuSans-30" transform="translate(286.279297 0)"/>
       <use xlink:href="#DejaVuSans-32" transform="translate(349.902344 0)"/>
      </g>
     </g>
    </g>
    <g id="ytick_3">
     <g id="line2d_23">
      <path d="M 70.199063 177.110696 
L 633.759062 177.110696 
" clip-path="url(#p90467dc049)" style="fill: none; stroke-dasharray: 2.96,1.28; stroke-dashoffset: 0; stroke: #b0b0b0; stroke-opacity: 0.4; stroke-width: 0.8"/>
     </g>
     <g id="line2d_24">
      <g>
       <use xlink:href="#m3048295155" x="70.199063" y="177.110696" style="stroke: #000000; stroke-width: 0.8"/>
      </g>
     </g>
     <g id="text_13">
      <!-- 0.00004 -->
      <g transform="translate(21.845938 180.909915) scale(0.1 -0.1)">
       <use xlink:href="#DejaVuSans-30"/>
       <use xlink:href="#DejaVuSans-2e" transform="translate(63.623047 0)"/>
       <use xlink:href="#DejaVuSans-30" transform="translate(95.410156 0)"/>
       <use xlink:href="#DejaVuSans-30" transform="translate(159.033203 0)"/>
       <use xlink:href="#DejaVuSans-30" transform="translate(222.65625 0)"/>
       <use xlink:href="#DejaVuSans-30" transform="translate(286.279297 0)"/>
       <use xlink:href="#DejaVuSans-34" transform="translate(349.902344 0)"/>
      </g>
     </g>
    </g>
    <g id="ytick_4">
     <g id="line2d_25">
      <path d="M 70.199063 132.485241 
L 633.759062 132.485241 
" clip-path="url(#p90467dc049)" style="fill: none; stroke-dasharray: 2.96,1.28; stroke-dashoffset: 0; stroke: #b0b0b0; stroke-opacity: 0.4; stroke-width: 0.8"/>
     </g>
     <g id="line2d_26">
      <g>
       <use xlink:href="#m3048295155" x="70.199063" y="132.485241" style="stroke: #000000; stroke-width: 0.8"/>
      </g>
     </g>
     <g id="text_14">
      <!-- 0.00006 -->
      <g transform="translate(21.845938 136.28446) scale(0.1 -0.1)">
       <use xlink:href="#DejaVuSans-30"/>
       <use xlink:href="#DejaVuSans-2e" transform="translate(63.623047 0)"/>
       <use xlink:href="#DejaVuSans-30" transform="translate(95.410156 0)"/>
       <use xlink:href="#DejaVuSans-30" transform="translate(159.033203 0)"/>
       <use xlink:href="#DejaVuSans-30" transform="translate(222.65625 0)"/>
       <use xlink:href="#DejaVuSans-30" transform="translate(286.279297 0)"/>
       <use xlink:href="#DejaVuSans-36" transform="translate(349.902344 0)"/>
      </g>
     </g>
    </g>
    <g id="ytick_5">
     <g id="line2d_27">
      <path d="M 70.199063 87.859787 
L 633.759062 87.859787 
" clip-path="url(#p90467dc049)" style="fill: none; stroke-dasharray: 2.96,1.28; stroke-dashoffset: 0; stroke: #b0b0b0; stroke-opacity: 0.4; stroke-width: 0.8"/>
     </g>
     <g id="line2d_28">
      <g>
       <use xlink:href="#m3048295155" x="70.199063" y="87.859787" style="stroke: #000000; stroke-width: 0.8"/>
      </g>
     </g>
     <g id="text_15">
      <!-- 0.00008 -->
      <g transform="translate(21.845938 91.659006) scale(0.1 -0.1)">
       <use xlink:href="#DejaVuSans-30"/>
       <use xlink:href="#DejaVuSans-2e" transform="translate(63.623047 0)"/>
       <use xlink:href="#DejaVuSans-30" transform="translate(95.410156 0)"/>
       <use xlink:href="#DejaVuSans-30" transform="translate(159.033203 0)"/>
       <use xlink:href="#DejaVuSans-30" transform="translate(222.65625 0)"/>
       <use xlink:href="#DejaVuSans-30" transform="translate(286.279297 0)"/>
       <use xlink:href="#DejaVuSans-38" transform="translate(349.902344 0)"/>
      </g>
     </g>
    </g>
    <g id="ytick_6">
     <g id="line2d_29">
      <path d="M 70.199063 43.234332 
L 633.759062 43.234332 
" clip-path="url(#p90467dc049)" style="fill: none; stroke-dasharray: 2.96,1.28; stroke-dashoffset: 0; stroke: #b0b0b0; stroke-opacity: 0.4; stroke-width: 0.8"/>
     </g>
     <g id="line2d_30">
      <g>
       <use xlink:href="#m3048295155" x="70.199063" y="43.234332" style="stroke: #000000; stroke-width: 0.8"/>
      </g>
     </g>
     <g id="text_16">
      <!-- 0.00010 -->
      <g transform="translate(21.845938 47.033551) scale(0.1 -0.1)">
       <use xlink:href="#DejaVuSans-30"/>
       <use xlink:href="#DejaVuSans-2e" transform="translate(63.623047 0)"/>
       <use xlink:href="#DejaVuSans-30" transform="translate(95.410156 0)"/>
       <use xlink:href="#DejaVuSans-30" transform="translate(159.033203 0)"/>
       <use xlink:href="#DejaVuSans-30" transform="translate(222.65625 0)"/>
       <use xlink:href="#DejaVuSans-31" transform="translate(286.279297 0)"/>
       <use xlink:href="#DejaVuSans-30" transform="translate(349.902344 0)"/>
      </g>
     </g>
    </g>
    <g id="text_17">
     <!-- Learning rate -->
     <g transform="translate(15.558281 191.596406) rotate(-90) scale(0.11 -0.11)">
      <defs>
       <path id="DejaVuSans-4c" d="M 628 4666 
L 1259 4666 
L 1259 531 
L 3531 531 
L 3531 0 
L 628 0 
L 628 4666 
z
" transform="scale(0.015625)"/>
      </defs>
      <use xlink:href="#DejaVuSans-4c"/>
      <use xlink:href="#DejaVuSans-65" transform="translate(53.962891 0)"/>
      <use xlink:href="#DejaVuSans-61" transform="translate(115.486328 0)"/>
      <use xlink:href="#DejaVuSans-72" transform="translate(176.765625 0)"/>
      <use xlink:href="#DejaVuSans-6e" transform="translate(216.128906 0)"/>
      <use xlink:href="#DejaVuSans-69" transform="translate(279.507812 0)"/>
      <use xlink:href="#DejaVuSans-6e" transform="translate(307.291016 0)"/>
      <use xlink:href="#DejaVuSans-67" transform="translate(370.669922 0)"/>
      <use xlink:href="#DejaVuSans-20" transform="translate(434.146484 0)"/>
      <use xlink:href="#DejaVuSans-72" transform="translate(465.933594 0)"/>
      <use xlink:href="#DejaVuSans-61" transform="translate(507.046875 0)"/>
      <use xlink:href="#DejaVuSans-74" transform="translate(568.326172 0)"/>
      <use xlink:href="#DejaVuSans-65" transform="translate(607.535156 0)"/>
     </g>
    </g>
   </g>
   <g id="line2d_31">
    <path d="M 95.815426 261.89906 
L 127.234746 43.234332 
L 134.288062 43.35274 
L 141.341379 43.70771 
L 148.394696 44.29849 
L 155.448012 45.123826 
L 162.501329 46.181966 
L 169.554646 47.470663 
L 176.607962 48.987183 
L 183.661279 50.728306 
L 190.714596 52.690335 
L 197.767912 54.869108 
L 205.462439 57.487697 
L 213.156967 60.352101 
L 220.851494 63.455084 
L 228.546021 66.788806 
L 236.881759 70.650942 
L 245.217497 74.762534 
L 253.553235 79.111395 
L 262.530183 84.045327 
L 272.148342 89.60115 
L 281.766501 95.414275 
L 292.025871 101.872679 
L 302.926451 108.994434 
L 315.109453 117.227062 
L 328.574875 126.60083 
L 344.605141 138.038256 
L 368.971144 155.732591 
L 397.18441 176.161764 
L 413.214675 187.490494 
L 426.680098 196.734831 
L 438.221889 204.403086 
L 449.122469 211.387236 
L 459.381839 217.699151 
L 468.999998 223.360585 
L 477.976946 228.400894 
L 486.953895 233.188154 
L 495.289633 237.392486 
L 503.62537 241.351962 
L 511.961108 245.054847 
L 519.655635 248.235642 
L 527.350163 251.180407 
L 535.04469 253.881701 
L 542.739217 256.3327 
L 549.792534 258.354274 
L 556.845851 260.156031 
L 563.899167 261.734145 
L 570.952484 263.085268 
L 578.0058 264.20653 
L 585.059117 265.095552 
L 592.112434 265.750448 
L 599.16575 266.169826 
L 606.219067 266.352797 
L 608.142699 266.361605 
L 608.142699 266.361605 
" clip-path="url(#p90467dc049)" style="fill: none; stroke: #6366f1; stroke-width: 2.2; stroke-linecap: square"/>
   </g>
   <g id="patch_3">
    <path d="M 70.199063 277.517969 
L 70.199063 32.077969 
" style="fill: none; stroke: #000000; stroke-width: 0.8; stroke-linejoin: miter; stroke-linecap: square"/>
   </g>
   <g id="patch_4">
    <path d="M 70.199063 277.517969 
L 633.759063 277.517969 
" style="fill: none; stroke: #000000; stroke-width: 0.8; stroke-linejoin: miter; stroke-linecap: square"/>
   </g>
   <g id="patch_5">
    <path d="M 174.543847 47.644859 
Q 151.884046 45.532334 130.337453 43.523591 
" style="fill: none; stroke: #64748b; stroke-linecap: round"/>
    <path d="M 134.134532 45.886257 
L 130.337453 43.523591 
L 134.505833 41.903528 
" style="fill: none; stroke: #64748b; stroke-linecap: round"/>
   </g>
   <g id="text_18">
    <!-- peak = 1.0e-04 -->
    <g style="fill: #1e293b" transform="translate(178.531594 54.390696) scale(0.1 -0.1)">
     <defs>
      <path id="DejaVuSans-6b" d="M 581 4863 
L 1159 4863 
L 1159 1991 
L 2875 3500 
L 3609 3500 
L 1753 1863 
L 3688 0 
L 2938 0 
L 1159 1709 
L 1159 0 
L 581 0 
L 581 4863 
z
" transform="scale(0.015625)"/>
      <path id="DejaVuSans-3d" d="M 678 2906 
L 4684 2906 
L 4684 2381 
L 678 2381 
L 678 2906 
z
M 678 1631 
L 4684 1631 
L 4684 1100 
L 678 1100 
L 678 1631 
z
" transform="scale(0.015625)"/>
      <path id="DejaVuSans-2d" d="M 313 2009 
L 1997 2009 
L 1997 1497 
L 313 1497 
L 313 2009 
z
" transform="scale(0.015625)"/>
     </defs>
     <use xlink:href="#DejaVuSans-70"/>
     <use xlink:href="#DejaVuSans-65" transform="translate(63.476562 0)"/>
     <use xlink:href="#DejaVuSans-61" transform="translate(125 0)"/>
     <use xlink:href="#DejaVuSans-6b" transform="translate(186.279297 0)"/>
     <use xlink:href="#DejaVuSans-20" transform="translate(244.189453 0)"/>
     <use xlink:href="#DejaVuSans-3d" transform="translate(275.976562 0)"/>
     <use xlink:href="#DejaVuSans-20" transform="translate(359.765625 0)"/>
     <use xlink:href="#DejaVuSans-31" transform="translate(391.552734 0)"/>
     <use xlink:href="#DejaVuSans-2e" transform="translate(455.175781 0)"/>
     <use xlink:href="#DejaVuSans-30" transform="translate(486.962891 0)"/>
     <use xlink:href="#DejaVuSans-65" transform="translate(550.585938 0)"/>
     <use xlink:href="#DejaVuSans-2d" transform="translate(612.109375 0)"/>
     <use xlink:href="#DejaVuSans-30" transform="translate(648.193359 0)"/>
     <use xlink:href="#DejaVuSans-34" transform="translate(711.816406 0)"/>
    </g>
   </g>
   <g id="text_19">
    <!-- Learning rate schedule — cosine with 50-step warmup -->
    <g transform="translate(152.730703 17.077969) scale(0.13 -0.13)">
     <defs>
      <path id="DejaVuSans-Bold-4c" d="M 588 4666 
L 1791 4666 
L 1791 909 
L 3903 909 
L 3903 0 
L 588 0 
L 588 4666 
z
" transform="scale(0.015625)"/>
      <path id="DejaVuSans-Bold-65" d="M 4031 1759 
L 4031 1441 
L 1416 1441 
Q 1456 1047 1700 850 
Q 1944 653 2381 653 
Q 2734 653 3104 758 
Q 3475 863 3866 1075 
L 3866 213 
Q 3469 63 3072 -14 
Q 2675 -91 2278 -91 
Q 1328 -91 801 392 
Q 275 875 275 1747 
Q 275 2603 792 3093 
Q 1309 3584 2216 3584 
Q 3041 3584 3536 3087 
Q 4031 2591 4031 1759 
z
M 2881 2131 
Q 2881 2450 2695 2645 
Q 2509 2841 2209 2841 
Q 1884 2841 1681 2658 
Q 1478 2475 1428 2131 
L 2881 2131 
z
" transform="scale(0.015625)"/>
      <path id="DejaVuSans-Bold-61" d="M 2106 1575 
Q 1756 1575 1579 1456 
Q 1403 1338 1403 1106 
Q 1403 894 1545 773 
Q 1688 653 1941 653 
Q 2256 653 2472 879 
Q 2688 1106 2688 1447 
L 2688 1575 
L 2106 1575 
z
M 3816 1997 
L 3816 0 
L 2688 0 
L 2688 519 
Q 2463 200 2181 54 
Q 1900 -91 1497 -91 
Q 953 -91 614 226 
Q 275 544 275 1050 
Q 275 1666 698 1953 
Q 1122 2241 2028 2241 
L 2688 2241 
L 2688 2328 
Q 2688 2594 2478 2717 
Q 2269 2841 1825 2841 
Q 1466 2841 1156 2769 
Q 847 2697 581 2553 
L 581 3406 
Q 941 3494 1303 3539 
Q 1666 3584 2028 3584 
Q 2975 3584 3395 3211 
Q 3816 2838 3816 1997 
z
" transform="scale(0.015625)"/>
      <path id="DejaVuSans-Bold-72" d="M 3138 2547 
Q 2991 2616 2845 2648 
Q 2700 2681 2553 2681 
Q 2122 2681 1889 2404 
Q 1656 2128 1656 1613 
L 1656 0 
L 538 0 
L 538 3500 
L 1656 3500 
L 1656 2925 
Q 1872 3269 2151 3426 
Q 2431 3584 2822 3584 
Q 2878 3584 2943 3579 
Q 3009 3575 3134 3559 
L 3138 2547 
z
" transform="scale(0.015625)"/>
      <path id="DejaVuSans-Bold-6e" d="M 4056 2131 
L 4056 0 
L 2931 0 
L 2931 347 
L 2931 1631 
Q 2931 2084 2911 2256 
Q 2891 2428 2841 2509 
Q 2775 2619 2662 2680 
Q 2550 2741 2406 2741 
Q 2056 2741 1856 2470 
Q 1656 2200 1656 1722 
L 1656 0 
L 538 0 
L 538 3500 
L 1656 3500 
L 1656 2988 
Q 1909 3294 2193 3439 
Q 2478 3584 2822 3584 
Q 3428 3584 3742 3212 
Q 4056 2841 4056 2131 
z
" transform="scale(0.015625)"/>
      <path id="DejaVuSans-Bold-69" d="M 538 3500 
L 1656 3500 
L 1656 0 
L 538 0 
L 538 3500 
z
M 538 4863 
L 1656 4863 
L 1656 3950 
L 538 3950 
L 538 4863 
z
" transform="scale(0.015625)"/>
      <path id="DejaVuSans-Bold-67" d="M 2919 594 
Q 2688 288 2409 144 
Q 2131 0 1766 0 
Q 1125 0 706 504 
Q 288 1009 288 1791 
Q 288 2575 706 3076 
Q 1125 3578 1766 3578 
Q 2131 3578 2409 3434 
Q 2688 3291 2919 2981 
L 2919 3500 
L 4044 3500 
L 4044 353 
Q 4044 -491 3511 -936 
Q 2978 -1381 1966 -1381 
Q 1638 -1381 1331 -1331 
Q 1025 -1281 716 -1178 
L 716 -306 
Q 1009 -475 1290 -558 
Q 1572 -641 1856 -641 
Q 2406 -641 2662 -400 
Q 2919 -159 2919 353 
L 2919 594 
z
M 2181 2772 
Q 1834 2772 1640 2515 
Q 1447 2259 1447 1791 
Q 1447 1309 1634 1061 
Q 1822 813 2181 813 
Q 2531 813 2725 1069 
Q 2919 1325 2919 1791 
Q 2919 2259 2725 2515 
Q 2531 2772 2181 2772 
z
" transform="scale(0.015625)"/>
      <path id="DejaVuSans-Bold-20" transform="scale(0.015625)"/>
      <path id="DejaVuSans-Bold-74" d="M 1759 4494 
L 1759 3500 
L 2913 3500 
L 2913 2700 
L 1759 2700 
L 1759 1216 
Q 1759 972 1856 886 
Q 1953 800 2241 800 
L 2816 800 
L 2816 0 
L 1856 0 
Q 1194 0 917 276 
Q 641 553 641 1216 
L 641 2700 
L 84 2700 
L 84 3500 
L 641 3500 
L 641 4494 
L 1759 4494 
z
" transform="scale(0.015625)"/>
      <path id="DejaVuSans-Bold-73" d="M 3272 3391 
L 3272 2541 
Q 2913 2691 2578 2766 
Q 2244 2841 1947 2841 
Q 1628 2841 1473 2761 
Q 1319 2681 1319 2516 
Q 1319 2381 1436 2309 
Q 1553 2238 1856 2203 
L 2053 2175 
Q 2913 2066 3209 1816 
Q 3506 1566 3506 1031 
Q 3506 472 3093 190 
Q 2681 -91 1863 -91 
Q 1516 -91 1145 -36 
Q 775 19 384 128 
L 384 978 
Q 719 816 1070 734 
Q 1422 653 1784 653 
Q 2113 653 2278 743 
Q 2444 834 2444 1013 
Q 2444 1163 2330 1236 
Q 2216 1309 1875 1350 
L 1678 1375 
Q 931 1469 631 1722 
Q 331 1975 331 2491 
Q 331 3047 712 3315 
Q 1094 3584 1881 3584 
Q 2191 3584 2531 3537 
Q 2872 3491 3272 3391 
z
" transform="scale(0.015625)"/>
      <path id="DejaVuSans-Bold-63" d="M 3366 3391 
L 3366 2478 
Q 3138 2634 2908 2709 
Q 2678 2784 2431 2784 
Q 1963 2784 1702 2511 
Q 1441 2238 1441 1747 
Q 1441 1256 1702 982 
Q 1963 709 2431 709 
Q 2694 709 2930 787 
Q 3166 866 3366 1019 
L 3366 103 
Q 3103 6 2833 -42 
Q 2563 -91 2291 -91 
Q 1344 -91 809 395 
Q 275 881 275 1747 
Q 275 2613 809 3098 
Q 1344 3584 2291 3584 
Q 2566 3584 2833 3536 
Q 3100 3488 3366 3391 
z
" transform="scale(0.015625)"/>
      <path id="DejaVuSans-Bold-68" d="M 4056 2131 
L 4056 0 
L 2931 0 
L 2931 347 
L 2931 1625 
Q 2931 2084 2911 2256 
Q 2891 2428 2841 2509 
Q 2775 2619 2662 2680 
Q 2550 2741 2406 2741 
Q 2056 2741 1856 2470 
Q 1656 2200 1656 1722 
L 1656 0 
L 538 0 
L 538 4863 
L 1656 4863 
L 1656 2988 
Q 1909 3294 2193 3439 
Q 2478 3584 2822 3584 
Q 3428 3584 3742 3212 
Q 4056 2841 4056 2131 
z
" transform="scale(0.015625)"/>
      <path id="DejaVuSans-Bold-64" d="M 2919 2988 
L 2919 4863 
L 4044 4863 
L 4044 0 
L 2919 0 
L 2919 506 
Q 2688 197 2409 53 
Q 2131 -91 1766 -91 
Q 1119 -91 703 423 
Q 288 938 288 1747 
Q 288 2556 703 3070 
Q 1119 3584 1766 3584 
Q 2128 3584 2408 3439 
Q 2688 3294 2919 2988 
z
M 2181 722 
Q 2541 722 2730 984 
Q 2919 1247 2919 1747 
Q 2919 2247 2730 2509 
Q 2541 2772 2181 2772 
Q 1825 2772 1636 2509 
Q 1447 2247 1447 1747 
Q 1447 1247 1636 984 
Q 1825 722 2181 722 
z
" transform="scale(0.015625)"/>
      <path id="DejaVuSans-Bold-75" d="M 500 1363 
L 500 3500 
L 1625 3500 
L 1625 3150 
Q 1625 2866 1622 2436 
Q 1619 2006 1619 1863 
Q 1619 1441 1641 1255 
Q 1663 1069 1716 984 
Q 1784 875 1895 815 
Q 2006 756 2150 756 
Q 2500 756 2700 1025 
Q 2900 1294 2900 1772 
L 2900 3500 
L 4019 3500 
L 4019 0 
L 2900 0 
L 2900 506 
Q 2647 200 2364 54 
Q 2081 -91 1741 -91 
Q 1134 -91 817 281 
Q 500 653 500 1363 
z
" transform="scale(0.015625)"/>
      <path id="DejaVuSans-Bold-6c" d="M 538 4863 
L 1656 4863 
L 1656 0 
L 538 0 
L 538 4863 
z
" transform="scale(0.015625)"/>
      <path id="DejaVuSans-Bold-2014" d="M 344 2156 
L 6056 2156 
L 6056 1350 
L 344 1350 
L 344 2156 
z
" transform="scale(0.015625)"/>
      <path id="DejaVuSans-Bold-6f" d="M 2203 2784 
Q 1831 2784 1636 2517 
Q 1441 2250 1441 1747 
Q 1441 1244 1636 976 
Q 1831 709 2203 709 
Q 2569 709 2762 976 
Q 2956 1244 2956 1747 
Q 2956 2250 2762 2517 
Q 2569 2784 2203 2784 
z
M 2203 3584 
Q 3106 3584 3614 3096 
Q 4122 2609 4122 1747 
Q 4122 884 3614 396 
Q 3106 -91 2203 -91 
Q 1297 -91 786 396 
Q 275 884 275 1747 
Q 275 2609 786 3096 
Q 1297 3584 2203 3584 
z
" transform="scale(0.015625)"/>
      <path id="DejaVuSans-Bold-77" d="M 225 3500 
L 1313 3500 
L 1900 1088 
L 2491 3500 
L 3425 3500 
L 4013 1113 
L 4603 3500 
L 5691 3500 
L 4769 0 
L 3547 0 
L 2956 2406 
L 2369 0 
L 1147 0 
L 225 3500 
z
" transform="scale(0.015625)"/>
      <path id="DejaVuSans-Bold-35" d="M 678 4666 
L 3669 4666 
L 3669 3781 
L 1638 3781 
L 1638 3059 
Q 1775 3097 1914 3117 
Q 2053 3138 2203 3138 
Q 3056 3138 3531 2711 
Q 4006 2284 4006 1522 
Q 4006 766 3489 337 
Q 2972 -91 2053 -91 
Q 1656 -91 1267 -14 
Q 878 63 494 219 
L 494 1166 
Q 875 947 1217 837 
Q 1559 728 1863 728 
Q 2300 728 2551 942 
Q 2803 1156 2803 1522 
Q 2803 1891 2551 2103 
Q 2300 2316 1863 2316 
Q 1603 2316 1309 2248 
Q 1016 2181 678 2041 
L 678 4666 
z
" transform="scale(0.015625)"/>
      <path id="DejaVuSans-Bold-30" d="M 2944 2338 
Q 2944 3213 2780 3570 
Q 2616 3928 2228 3928 
Q 1841 3928 1675 3570 
Q 1509 3213 1509 2338 
Q 1509 1453 1675 1090 
Q 1841 728 2228 728 
Q 2613 728 2778 1090 
Q 2944 1453 2944 2338 
z
M 4147 2328 
Q 4147 1169 3647 539 
Q 3147 -91 2228 -91 
Q 1306 -91 806 539 
Q 306 1169 306 2328 
Q 306 3491 806 4120 
Q 1306 4750 2228 4750 
Q 3147 4750 3647 4120 
Q 4147 3491 4147 2328 
z
" transform="scale(0.015625)"/>
      <path id="DejaVuSans-Bold-2d" d="M 347 2297 
L 2309 2297 
L 2309 1388 
L 347 1388 
L 347 2297 
z
" transform="scale(0.015625)"/>
      <path id="DejaVuSans-Bold-70" d="M 1656 506 
L 1656 -1331 
L 538 -1331 
L 538 3500 
L 1656 3500 
L 1656 2988 
Q 1888 3294 2169 3439 
Q 2450 3584 2816 3584 
Q 3463 3584 3878 3070 
Q 4294 2556 4294 1747 
Q 4294 938 3878 423 
Q 3463 -91 2816 -91 
Q 2450 -91 2169 54 
Q 1888 200 1656 506 
z
M 2400 2772 
Q 2041 2772 1848 2508 
Q 1656 2244 1656 1747 
Q 1656 1250 1848 986 
Q 2041 722 2400 722 
Q 2759 722 2948 984 
Q 3138 1247 3138 1747 
Q 3138 2247 2948 2509 
Q 2759 2772 2400 2772 
z
" transform="scale(0.015625)"/>
      <path id="DejaVuSans-Bold-6d" d="M 3781 2919 
Q 3994 3244 4286 3414 
Q 4578 3584 4928 3584 
Q 5531 3584 5847 3212 
Q 6163 2841 6163 2131 
L 6163 0 
L 5038 0 
L 5038 1825 
Q 5041 1866 5042 1909 
Q 5044 1953 5044 2034 
Q 5044 2406 4934 2573 
Q 4825 2741 4581 2741 
Q 4263 2741 4089 2478 
Q 3916 2216 3909 1719 
L 3909 0 
L 2784 0 
L 2784 1825 
Q 2784 2406 2684 2573 
Q 2584 2741 2328 2741 
Q 2006 2741 1831 2477 
Q 1656 2213 1656 1722 
L 1656 0 
L 531 0 
L 531 3500 
L 1656 3500 
L 1656 2988 
Q 1863 3284 2130 3434 
Q 2397 3584 2719 3584 
Q 3081 3584 3359 3409 
Q 3638 3234 3781 2919 
z
" transform="scale(0.015625)"/>
     </defs>
     <use xlink:href="#DejaVuSans-Bold-4c"/>
     <use xlink:href="#DejaVuSans-Bold-65" transform="translate(63.720703 0)"/>
     <use xlink:href="#DejaVuSans-Bold-61" transform="translate(131.542969 0)"/>
     <use xlink:href="#DejaVuSans-Bold-72" transform="translate(199.023438 0)"/>
     <use xlink:href="#DejaVuSans-Bold-6e" transform="translate(248.339844 0)"/>
     <use xlink:href="#DejaVuSans-Bold-69" transform="translate(319.53125 0)"/>
     <use xlink:href="#DejaVuSans-Bold-6e" transform="translate(353.808594 0)"/>
     <use xlink:href="#DejaVuSans-Bold-67" transform="translate(425 0)"/>
     <use xlink:href="#DejaVuSans-Bold-20" transform="translate(496.582031 0)"/>
     <use xlink:href="#DejaVuSans-Bold-72" transform="translate(531.396484 0)"/>
     <use xlink:href="#DejaVuSans-Bold-61" transform="translate(580.712891 0)"/>
     <use xlink:href="#DejaVuSans-Bold-74" transform="translate(648.193359 0)"/>
     <use xlink:href="#DejaVuSans-Bold-65" transform="translate(695.996094 0)"/>
     <use xlink:href="#DejaVuSans-Bold-20" transform="translate(763.818359 0)"/>
     <use xlink:href="#DejaVuSans-Bold-73" transform="translate(798.632812 0)"/>
     <use xlink:href="#DejaVuSans-Bold-63" transform="translate(858.154297 0)"/>
     <use xlink:href="#DejaVuSans-Bold-68" transform="translate(917.431641 0)"/>
     <use xlink:href="#DejaVuSans-Bold-65" transform="translate(988.623047 0)"/>
     <use xlink:href="#DejaVuSans-Bold-64" transform="translate(1056.445312 0)"/>
     <use xlink:href="#DejaVuSans-Bold-75" transform="translate(1128.027344 0)"/>
     <use xlink:href="#DejaVuSans-Bold-6c" transform="translate(1199.21875 0)"/>
     <use xlink:href="#DejaVuSans-Bold-65" transform="translate(1233.496094 0)"/>
     <use xlink:href="#DejaVuSans-Bold-20" transform="translate(1301.318359 0)"/>
     <use xlink:href="#DejaVuSans-Bold-2014" transform="translate(1336.132812 0)"/>
     <use xlink:href="#DejaVuSans-Bold-20" transform="translate(1436.132812 0)"/>
     <use xlink:href="#DejaVuSans-Bold-63" transform="translate(1470.947266 0)"/>
     <use xlink:href="#DejaVuSans-Bold-6f" transform="translate(1530.224609 0)"/>
     <use xlink:href="#DejaVuSans-Bold-73" transform="translate(1598.925781 0)"/>
     <use xlink:href="#DejaVuSans-Bold-69" transform="translate(1658.447266 0)"/>
     <use xlink:href="#DejaVuSans-Bold-6e" transform="translate(1692.724609 0)"/>
     <use xlink:href="#DejaVuSans-Bold-65" transform="translate(1763.916016 0)"/>
     <use xlink:href="#DejaVuSans-Bold-20" transform="translate(1831.738281 0)"/>
     <use xlink:href="#DejaVuSans-Bold-77" transform="translate(1866.552734 0)"/>
     <use xlink:href="#DejaVuSans-Bold-69" transform="translate(1958.935547 0)"/>
     <use xlink:href="#DejaVuSans-Bold-74" transform="translate(1993.212891 0)"/>
     <use xlink:href="#DejaVuSans-Bold-68" transform="translate(2041.015625 0)"/>
     <use xlink:href="#DejaVuSans-Bold-20" transform="translate(2112.207031 0)"/>
     <use xlink:href="#DejaVuSans-Bold-35" transform="translate(2147.021484 0)"/>
     <use xlink:href="#DejaVuSans-Bold-30" transform="translate(2216.601562 0)"/>
     <use xlink:href="#DejaVuSans-Bold-2d" transform="translate(2286.181641 0)"/>
     <use xlink:href="#DejaVuSans-Bold-73" transform="translate(2327.685547 0)"/>
     <use xlink:href="#DejaVuSans-Bold-74" transform="translate(2387.207031 0)"/>
     <use xlink:href="#DejaVuSans-Bold-65" transform="translate(2435.009766 0)"/>
     <use xlink:href="#DejaVuSans-Bold-70" transform="translate(2502.832031 0)"/>
     <use xlink:href="#DejaVuSans-Bold-20" transform="translate(2574.414062 0)"/>
     <use xlink:href="#DejaVuSans-Bold-77" transform="translate(2609.228516 0)"/>
     <use xlink:href="#DejaVuSans-Bold-61" transform="translate(2701.611328 0)"/>
     <use xlink:href="#DejaVuSans-Bold-72" transform="translate(2769.091797 0)"/>
     <use xlink:href="#DejaVuSans-Bold-6d" transform="translate(2818.408203 0)"/>
     <use xlink:href="#DejaVuSans-Bold-75" transform="translate(2922.607422 0)"/>
     <use xlink:href="#DejaVuSans-Bold-70" transform="translate(2993.798828 0)"/>
    </g>
   </g>
  </g>
 </g>
 <defs>
  <clipPath id="p90467dc049">
   <rect x="70.199063" y="32.077969" width="563.56" height="245.44"/>
  </clipPath>
 </defs>
</svg>
